<svg xmlns="http://www.w3.org/2000/svg" width="40" height="40" viewBox="0 0 40 40">
    <path fill="#4FC0E8" fill-rule="evenodd" d="M20 40C8.954 40 0 31.046 0 20S8.954 0 20 0s20 8.954 20 20-8.954 20-20 20zm7.967-17.333h-1.334c-.4 0-.666.266-.666.666V25c0 .2-.134.333-.334.333H14.3c-.2 0-.333-.133-.333-.333v-1.667c0-.4-.267-.666-.667-.666h-1.333c-.4 0-.667.266-.667.666v4c0 .4.267.667.667.667h16c.4 0 .666-.267.666-.667v-4c0-.4-.266-.666-.666-.666zm-8.467-.2a.72.72 0 0 0 .467.2.72.72 0 0 0 .466-.2l4-4a.605.605 0 0 0 .2-.467c0-.2-.066-.333-.2-.467L23.5 16.6a.605.605 0 0 0-.467-.2c-.2 0-.333.067-.466.2l-.667.667c-.2.2-.6.066-.6-.267v-4.333c0-.4-.267-.667-.667-.667H19.3c-.4 0-.667.267-.667.667v4.4c0 .266-.333.466-.6.266l-.666-.666a.605.605 0 0 0-.467-.2c-.2 0-.333.066-.467.2l-.933.933a.605.605 0 0 0-.2.467c0 .2.067.333.2.466l4 3.934z"/>
</svg>
