<svg xmlns="http://www.w3.org/2000/svg" width="18" height="16" viewBox="0 0 18 16">
    <g fill="#FFF" fill-rule="nonzero">
        <path d="M16.967 10.667h-1.334c-.4 0-.666.266-.666.666V13c0 .2-.134.333-.334.333H3.3c-.2 0-.333-.133-.333-.333v-1.667c0-.4-.267-.666-.667-.666H.967c-.4 0-.667.266-.667.666v4c0 .4.267.667.667.667h16c.4 0 .666-.267.666-.667v-4c0-.4-.266-.666-.666-.666zM8.5 10.467a.72.72 0 0 0 .467.2.72.72 0 0 0 .466-.2l4-4a.605.605 0 0 0 .2-.467c0-.2-.066-.333-.2-.467L12.5 4.6a.605.605 0 0 0-.467-.2c-.2 0-.333.067-.466.2l-.667.667c-.2.2-.6.066-.6-.267V.667c0-.4-.267-.667-.667-.667H8.3c-.4 0-.667.267-.667.667v4.4c0 .266-.333.466-.6.266l-.666-.666a.605.605 0 0 0-.467-.2c-.2 0-.333.066-.467.2L4.5 5.6a.605.605 0 0 0-.2.467c0 .2.067.333.2.466l4 3.934z"/>
    </g>
</svg>
