<svg xmlns="http://www.w3.org/2000/svg" width="18" height="18" viewBox="0 0 18 18">
    <path fill="#FFF" fill-rule="evenodd" d="M10.66 7.208c.236.24.359.57.338.908-.02.282-.14.548-.338.748a1.183 1.183 0 0 1-1.636 0 1.732 1.732 0 0 0-2.47 0l-3.718 3.76a1.784 1.784 0 0 0 0 2.503c.683.69 1.79.69 2.472 0l2.199-2.228a.289.289 0 0 1 .317-.065 4.85 4.85 0 0 0 1.863.365h.117c.16 0 .292.13.293.293 0 .08-.03.156-.086.211l-3.058 3.095A4.026 4.026 0 0 1 4.073 18C1.824 17.999 0 16.15 0 13.872c0-1.092.429-2.14 1.191-2.912l3.704-3.752a4.034 4.034 0 0 1 5.08-.557c.248.16.478.347.685.557zm6.147-5.52a4.163 4.163 0 0 1 0 5.835l-3.705 3.752a4.061 4.061 0 0 1-1.889 1.084h-.032l-.168.036-.094.017-.2.03h-.1c-.075 0-.142.014-.206.017l-.175.021H10.017a4.002 4.002 0 0 1-.433-.041 4.667 4.667 0 0 1-.352-.074l-.172-.047a2.292 2.292 0 0 1-.186-.062c-.062-.024-.126-.044-.187-.07-.06-.027-.122-.05-.183-.08a4.04 4.04 0 0 1-1.164-.825 1.187 1.187 0 0 1 0-1.662 1.182 1.182 0 0 1 1.635 0 1.73 1.73 0 0 0 2.468 0l.955-.961.023-.027 2.73-2.76a1.785 1.785 0 0 0 0-2.503 1.732 1.732 0 0 0-2.471 0l-2.191 2.216a.288.288 0 0 1-.317.065 4.836 4.836 0 0 0-1.86-.368h-.108a.297.297 0 0 1-.212-.504l3.053-3.089a4.039 4.039 0 0 1 5.762 0z"/>
</svg>
