<svg xmlns="http://www.w3.org/2000/svg" width="24" height="29" viewBox="0 0 24 29">
    <g fill="#FFF" fill-rule="nonzero" transform="translate(0 .574)">
        <circle cx="11.827" cy="14.135" r="4.904"/>
        <path d="M20.172 8.182C18.127 6.099 11.803-.025 11.829 0c.026-.025-6.528 6.433-8.342 8.184C1.673 9.936 0 12.658 0 16.7c0 6.39 5.295 11.57 11.827 11.57s11.827-5.18 11.827-11.57c0-4.053-1.442-6.445-3.484-8.516l.002-.002zm-8.28 14.009c-4.216.01-7.643-3.325-7.655-7.45 0-2.607.908-4.177 2.259-5.489l5.4-5.17 5.41 5.17c1.35 1.314 2.257 2.882 2.257 5.49a7.39 7.39 0 0 1-2.256 5.28 7.725 7.725 0 0 1-5.414 2.169z"/>
    </g>
</svg>
