<svg xmlns="http://www.w3.org/2000/svg" width="80" height="53" viewBox="0 0 80 53">
    <path fill="#4FC0E8" fill-rule="nonzero" d="M79.999 6.616c0-1.701-.675-3.24-1.751-4.413-.018-.023-.022-.05-.041-.074-.018-.02-.043-.029-.063-.048A6.73 6.73 0 0 0 73.276 0H6.724c-1.92 0-3.645.806-4.871 2.081-.018.02-.045.028-.062.05-.02.022-.024.05-.042.074C.675 3.378 0 4.915 0 6.615v38.991c0 1.742.702 3.318 1.825 4.5.022.025.03.056.054.079.008.008.018.01.026.018a6.744 6.744 0 0 0 4.819 2.02h66.552a6.743 6.743 0 0 0 4.819-2.021c.008-.007.018-.01.026-.017.024-.022.03-.052.052-.076C79.298 48.927 80 47.35 80 45.607V6.616h-.001zM53.814 24.05L76.87 5.015c.226.49.36 1.029.36 1.6v38.991c0 .517-.108 1.007-.294 1.46L53.815 24.05zM73.276 2.727c.581 0 1.129.131 1.627.354L40 31.897 5.097 3.081a3.974 3.974 0 0 1 1.627-.354h66.552zM3.066 47.064a3.81 3.81 0 0 1-.295-1.459V6.615a3.8 3.8 0 0 1 .36-1.6l23.055 19.036-23.12 23.013zm3.658 2.43c-.64 0-1.236-.165-1.772-.431l23.364-23.255L39.11 34.72a1.393 1.393 0 0 0 1.78 0l10.794-8.912 23.363 23.255a3.957 3.957 0 0 1-1.77.431H6.723z"/>
</svg>
