<svg xmlns="http://www.w3.org/2000/svg" width="20" height="14" viewBox="0 0 20 14">
    <path fill="#4FC0E8" fill-rule="nonzero" d="M20 1.654c0-.425-.169-.81-.438-1.103-.005-.006-.006-.013-.01-.019-.005-.005-.011-.007-.016-.012A1.683 1.683 0 0 0 18.32 0H1.681C1.2 0 .77.202.463.52.46.525.453.527.448.533.443.538.442.545.438.55A1.628 1.628 0 0 0 0 1.654v9.748c0 .435.176.829.456 1.125.006.006.008.013.014.02l.006.004c.306.31.732.505 1.205.505h16.638c.473 0 .9-.195 1.205-.506l.006-.004c.006-.005.008-.013.013-.019A1.63 1.63 0 0 0 20 11.402V1.654zm-6.546 4.359l5.763-4.76a.95.95 0 0 1 .09.4v9.749c0 .129-.027.251-.073.364l-5.78-5.753zM18.319.682c.145 0 .282.033.407.088L10 7.974 1.274.77a.994.994 0 0 1 .407-.088h16.638zM.766 11.766a.952.952 0 0 1-.073-.365V1.654a.95.95 0 0 1 .09-.4l5.763 4.759-5.78 5.753zm.915.608a.99.99 0 0 1-.443-.108l5.84-5.814 2.7 2.228a.348.348 0 0 0 .444 0l2.7-2.228 5.84 5.814a.99.99 0 0 1-.443.108H1.681z"/>
</svg>
