<svg xmlns="http://www.w3.org/2000/svg" width="69" height="66" viewBox="0 0 69 66">
    <defs>
        <filter id="a" width="133.6%" height="127.9%" x="-16.8%" y="-10.6%" filterUnits="objectBoundingBox">
            <feOffset dy="2" in="SourceAlpha" result="shadowOffsetOuter1"/>
            <feGaussianBlur in="shadowOffsetOuter1" result="shadowBlurOuter1" stdDeviation="12"/>
            <feColorMatrix in="shadowBlurOuter1" result="shadowMatrixOuter1" values="0 0 0 0 0.0470588235 0 0 0 0 0.262745098 0 0 0 0 0.4 0 0 0 0.1 0"/>
            <feMerge>
                <feMergeNode in="shadowMatrixOuter1"/>
                <feMergeNode in="SourceGraphic"/>
            </feMerge>
        </filter>
    </defs>
    <g fill="#FF5791" fill-rule="nonzero" filter="url(#a)" transform="translate(-213 -52)">
        <path d="M243.974 81.886h-3.101c-.37 0-.683-.129-.942-.387a1.282 1.282 0 0 1-.387-.942v-.443c0-.978.346-1.813 1.038-2.505a3.415 3.415 0 0 1 2.506-1.039h.886c.24 0 .447-.087.623-.263a.851.851 0 0 0 .263-.622v-1.773a.852.852 0 0 0-.263-.623.852.852 0 0 0-.623-.263h-.886c-.96 0-1.876.187-2.748.561a7.143 7.143 0 0 0-2.263 1.516 7.137 7.137 0 0 0-1.516 2.263 6.904 6.904 0 0 0-.561 2.748v9.746c0 .738.258 1.366.775 1.883a2.564 2.564 0 0 0 1.883.775h5.316c.738 0 1.366-.259 1.883-.775a2.564 2.564 0 0 0 .775-1.883v-5.316c0-.738-.259-1.366-.776-1.883a2.563 2.563 0 0 0-1.882-.775zM258.26 82.661a2.563 2.563 0 0 0-1.882-.775h-3.101a1.28 1.28 0 0 1-.941-.387 1.281 1.281 0 0 1-.388-.942v-.443c0-.978.346-1.813 1.038-2.505a3.414 3.414 0 0 1 2.506-1.039h.886c.24 0 .448-.087.623-.263a.852.852 0 0 0 .263-.622v-1.773a.852.852 0 0 0-.263-.623.852.852 0 0 0-.623-.263h-.886c-.96 0-1.876.187-2.748.561a7.143 7.143 0 0 0-2.263 1.516 7.134 7.134 0 0 0-1.516 2.263 6.906 6.906 0 0 0-.561 2.748v9.746c0 .738.258 1.366.775 1.883a2.563 2.563 0 0 0 1.883.775h5.316c.738 0 1.365-.259 1.882-.775a2.562 2.562 0 0 0 .775-1.883v-5.316c0-.738-.258-1.366-.775-1.883z"/>
    </g>
</svg>
