<svg xmlns="http://www.w3.org/2000/svg" width="24" height="59" viewBox="0 0 24 59">
    <path fill="#FFF" fill-rule="nonzero" d="M12 2C6.477 2 2 6.477 2 12v21.333c0 5.523 4.477 10 10 10s10-4.477 10-10V12c0-5.523-4.477-10-10-10zm0-2c6.627 0 12 5.373 12 12v21.333c0 6.628-5.373 12-12 12s-12-5.372-12-12V12C0 5.373 5.373 0 12 0zm0 7a3 3 0 0 0-3 3v6a3 3 0 0 0 6 0v-6a3 3 0 0 0-3-3zm0 2a1 1 0 0 1 1 1v6a1 1 0 0 1-2 0v-6a1 1 0 0 1 1-1zm3.293 43.626a1 1 0 1 1 1.414 1.414l-4 4a1 1 0 0 1-1.414 0l-4-4a1 1 0 1 1 1.414-1.414L12 55.92l3.293-3.293z"/>
</svg>
