<svg xmlns="http://www.w3.org/2000/svg" width="20" height="15" viewBox="0 0 20 15">
    <path fill="#FFF" fill-rule="nonzero" d="M19.22 1.288C18.5.373 17.166 0 14.62 0H5.38C2.776 0 1.42.397.7 1.37 0 2.32 0 3.72 0 5.656v3.69C0 13.095.832 15 5.38 15h9.24c2.208 0 3.43-.33 4.222-1.136.812-.828 1.158-2.18 1.158-4.519v-3.69c0-2.042-.054-3.449-.78-4.367zm-6.38 6.721l-4.196 2.338a.613.613 0 0 1-.633-.022.698.698 0 0 1-.31-.588V5.078c0-.24.117-.463.31-.588a.61.61 0 0 1 .632-.022l4.196 2.322a.694.694 0 0 1 .347.61.695.695 0 0 1-.346.61z"/>
</svg>
