<svg xmlns="http://www.w3.org/2000/svg" width="80" height="80" viewBox="0 0 80 80">
    <path fill="#4FC0E8" fill-rule="nonzero" d="M40 78c20.987 0 38-17.013 38-38S60.987 2 40 2 2 19.013 2 40s17.013 38 38 38zm0 2C17.909 80 0 62.091 0 40S17.909 0 40 0s40 17.909 40 40-17.909 40-40 40zm22.728-31.893c.36.36.363.946.005 1.308a.916.916 0 0 1-1.302.006l-2.247-2.24a.928.928 0 0 1-.006-1.307.918.918 0 0 1 1.302-.006l2.248 2.24zm-4.116-4.252a1.022 1.022 0 1 1-1.447.002l.002-.002c.4-.4 1.046-.4 1.445 0zm-8.292 3.842a13.75 13.75 0 0 1-8.952 4.088l-.572.582a6.428 6.428 0 0 0 3.713.818l.283-.023a.884.884 0 0 1 .702.26l4.88 4.945a.91.91 0 0 1 0 1.275.881.881 0 0 1-1.258 0l-4.59-4.65a8.191 8.191 0 0 1-5.025-1.31l-5.865 5.964a.881.881 0 0 1-1.259.002.91.91 0 0 1-.002-1.274l7.975-8.108a.884.884 0 0 1 .598-.264 11.984 11.984 0 0 0 8.112-3.58l8.633-8.743a1.61 1.61 0 0 0 0-2.254 1.562 1.562 0 0 0-2.224-.001l-1.095 1.108a.881.881 0 0 1-1.258 0 .91.91 0 0 1 0-1.275l1.093-1.107 1.196-1.211c.297-.301.46-.701.46-1.127 0-.426-.163-.826-.46-1.127a1.553 1.553 0 0 0-1.113-.467c-.42 0-.815.166-1.113.467l-2.289 2.318a.881.881 0 0 1-1.258 0 .91.91 0 0 1 0-1.274l2.289-2.319.871-.882a1.61 1.61 0 0 0 0-2.254 1.561 1.561 0 0 0-2.225 0l-3.16 3.2a.881.881 0 0 1-1.259 0 .91.91 0 0 1 0-1.274l3.16-3.201.871-.882c.297-.301.461-.701.461-1.127 0-.426-.164-.826-.46-1.127a1.553 1.553 0 0 0-1.114-.467c-.42 0-.815.166-1.112.467l-5.908 5.983a3.434 3.434 0 0 1-.222 4.555 3.321 3.321 0 0 1-2.505.99 3.397 3.397 0 0 1-.979 2.539 3.322 3.322 0 0 1-2.505.99 3.397 3.397 0 0 1-.979 2.539 3.322 3.322 0 0 1-2.506.989 3.411 3.411 0 0 1-.978 2.539 3.31 3.31 0 0 1-2.371.995 3.3 3.3 0 0 1-1.657-.444l-8.825 8.938a.881.881 0 0 1-1.258 0 .91.91 0 0 1 0-1.275L26 42.35l-1.776-1.798a3.431 3.431 0 0 1 0-4.803 3.32 3.32 0 0 1 1.618-.909 3.435 3.435 0 0 1 .671-3.83 3.314 3.314 0 0 1 1.8-.946 3.442 3.442 0 0 1-.17-1.064c0-.907.35-1.76.983-2.402a3.32 3.32 0 0 1 1.802-.943 3.43 3.43 0 0 1 .811-3.468 3.31 3.31 0 0 1 2.371-.994c.45 0 .885.088 1.287.258a4.142 4.142 0 0 1-.23-1.367v-1.182c0-.497.399-.901.89-.901h6.988c1.638 0 3.218.697 4.333 1.911l.086.094a3.301 3.301 0 0 1 1.602-.412 3.31 3.31 0 0 1 2.371.995 3.442 3.442 0 0 1 .813 3.468 3.32 3.32 0 0 1 1.8.943 3.43 3.43 0 0 1 .812 3.466 3.313 3.313 0 0 1 1.801.945c.634.641.982 1.494.982 2.401 0 .503-.107.99-.31 1.432a3.32 3.32 0 0 1 1.617.906 3.432 3.432 0 0 1 0 4.804l-8.633 8.744zm-20.206-5.985a1.61 1.61 0 0 0 0-2.254l-2.405-2.435a1.553 1.553 0 0 0-1.112-.467c-.42 0-.816.165-1.113.467a1.61 1.61 0 0 0 0 2.254l2.404 2.435c.298.301.693.467 1.113.467.42 0 .816-.166 1.113-.467zm3.484-3.529c.297-.3.46-.701.46-1.127 0-.426-.163-.826-.46-1.127l-3.6-3.646a1.553 1.553 0 0 0-1.113-.467c-.42 0-.816.166-1.113.467a1.61 1.61 0 0 0 0 2.254l1.196 1.21 2.404 2.436a1.561 1.561 0 0 0 2.226 0zm3.484-3.529c.297-.3.46-.7.46-1.127 0-.425-.163-.826-.46-1.127l-2.434-2.465-2.038-2.064a1.559 1.559 0 0 0-2.225 0 1.593 1.593 0 0 0-.46 1.128c0 .426.163.826.46 1.127l4.471 4.528a1.562 1.562 0 0 0 2.226 0zm3.484-3.528c.297-.301.46-.702.46-1.128 0-.425-.163-.825-.46-1.127l-5.342-5.41a1.558 1.558 0 0 0-2.226 0 1.61 1.61 0 0 0 0 2.254l.87.88.001.002 4.471 4.529a1.561 1.561 0 0 0 2.226 0zm.234-4.567l5.313-5.38-.037-.04a4.129 4.129 0 0 0-3.03-1.336h-6.098v.28c0 .614.236 1.19.666 1.623.426.43.992.667 1.594.667h.011l2.442-.012h.004c.49 0 .888.4.89.897a.896.896 0 0 1-.885.906l-2.443.011h-.02c-.29 0-.574-.031-.851-.091l2.444 2.475z"/>
</svg>
