<svg xmlns="http://www.w3.org/2000/svg" width="80" height="80" viewBox="0 0 80 80">
    <path fill="#4FC0E8" fill-rule="nonzero" d="M40 78c20.987 0 38-17.013 38-38S60.987 2 40 2 2 19.013 2 40s17.013 38 38 38zm0 2C17.909 80 0 62.091 0 40S17.909 0 40 0s40 17.909 40 40-17.909 40-40 40zM26.869 31.87c-.551-.177-.85-.759-.668-1.298C28.135 24.847 33.576 21 39.741 21 47.603 21 54 27.26 54 34.956c0 5.756-2.662 9.23-4.605 11.768-1.178 1.538-2.108 2.752-2.108 3.923 0 .492-.022.972-.063 1.43v8.697c0 .027-.002.054-.004.082l-.001.02c-.004.038-.01.074-.018.111v.001a7.677 7.677 0 0 1-2.63 4.288A7.642 7.642 0 0 1 39.74 67a7.641 7.641 0 0 1-7.46-6.012 1.012 1.012 0 0 1-.017-.113l-.001-.02a1.063 1.063 0 0 1-.005-.08v-8.697a15.944 15.944 0 0 1-.062-1.431c0-1.17-.93-2.385-2.108-3.923-1.416-1.848-3.177-4.149-4.054-7.427a1.026 1.026 0 0 1 .75-1.255 1.053 1.053 0 0 1 1.283.735c.772 2.888 2.328 4.92 3.701 6.714 1.357 1.77 2.529 3.3 2.529 5.156 0 .122.001.243.004.363h4.39v-2.362c0-.568.47-1.028 1.05-1.028.58 0 1.05.46 1.05 1.028v2.362h4.39c.003-.12.005-.241.005-.363 0-1.855 1.171-3.385 2.528-5.156 1.864-2.434 4.185-5.464 4.185-10.535 0-6.562-5.454-11.9-12.158-11.9-5.257 0-9.896 3.28-11.545 8.161-.182.54-.776.832-1.327.654zM39.74 64.945c2.136 0 4.062-1.265 4.975-3.142h-9.95c.913 1.877 2.84 3.142 4.975 3.142zm5.382-5.198v-2.312H34.36v2.312h10.764zm0-4.368v-2.312H34.36v2.312h10.764zM40 19c-.552 0-1-.48-1-1.072v-2.856c0-.592.448-1.072 1-1.072s1 .48 1 1.072v2.856C41 18.52 40.552 19 40 19zM20.072 36C19.48 36 19 35.552 19 35s.48-1 1.072-1h2.856c.592 0 1.072.448 1.072 1s-.48 1-1.072 1h-2.856zM45 36.944c0 .521-.489.944-1.092.944h-2.816v2.168c0 .521-.489.944-1.092.944-.603 0-1.092-.423-1.092-.944v-2.168h-2.816c-.603 0-1.092-.423-1.092-.944 0-.521.489-.944 1.092-.944h7.816c.603 0 1.092.423 1.092.944zM27.242 22.698l-1.94-1.94a1.03 1.03 0 0 1 1.456-1.456l1.94 1.94a1.03 1.03 0 1 1-1.456 1.456zM26.03 51a1.03 1.03 0 0 1-.729-1.758l1.941-1.94a1.03 1.03 0 1 1 1.456 1.456l-1.94 1.94a1.026 1.026 0 0 1-.728.302zm26-28a1.03 1.03 0 0 1-.728-1.758l1.94-1.94a1.03 1.03 0 0 1 1.456 1.456l-1.94 1.94a1.027 1.027 0 0 1-.728.302zm-.728 24.302a1.03 1.03 0 0 1 1.456 0l1.94 1.94a1.03 1.03 0 1 1-1.456 1.456l-1.94-1.94a1.03 1.03 0 0 1 0-1.456zM57.072 36C56.48 36 56 35.552 56 35s.48-1 1.072-1h2.856c.592 0 1.072.448 1.072 1s-.48 1-1.072 1h-2.856zM40 43c.55 0 1 .45 1 1s-.45 1-1 1-1-.45-1-1 .45-1 1-1zm-12-8c0 .55-.45 1-1 1-.551 0-1-.45-1-1s.449-1 1-1c.55 0 1 .45 1 1z"/>
</svg>
