<svg xmlns="http://www.w3.org/2000/svg" width="80" height="80" viewBox="0 0 80 80">
    <path fill="#4FC0E8" fill-rule="nonzero" d="M40 78c20.987 0 38-17.013 38-38S60.987 2 40 2 2 19.013 2 40s17.013 38 38 38zm0 2C17.909 80 0 62.091 0 40S17.909 0 40 0s40 17.909 40 40-17.909 40-40 40zm18.6-56.848c3.618.454 6.2 3.762 5.757 7.373-.756 6.154-3.058 21.057-8.092 26.514-4.038 4.377-9.076 8.24-12.592 10.71A6.903 6.903 0 0 1 39.703 69a6.899 6.899 0 0 1-3.97-1.251c-3.515-2.47-8.553-6.333-12.59-10.71-5.035-5.457-7.337-20.36-8.093-26.514-.444-3.611 2.139-6.919 5.757-7.373 7.404-.929 12.31-4.618 15.122-7.549A5.182 5.182 0 0 1 39.703 14c1.442 0 2.783.57 3.775 1.603a25.024 25.024 0 0 0 6.959 5.119.803.803 0 0 1 .363 1.08.815.815 0 0 1-1.09.361 26.63 26.63 0 0 1-7.409-5.449 3.57 3.57 0 0 0-2.598-1.103c-.992 0-1.915.392-2.597 1.103-2.994 3.12-8.216 7.048-16.096 8.037a5.017 5.017 0 0 0-4.348 5.578c.44 3.584 1.247 8.933 2.587 14.064 1.459 5.589 3.172 9.477 5.091 11.558 3.941 4.272 8.882 8.058 12.332 10.483a5.286 5.286 0 0 0 6.063 0c3.45-2.425 8.391-6.211 12.332-10.483 1.919-2.08 3.632-5.97 5.091-11.558 1.34-5.131 2.147-10.48 2.587-14.064a5.016 5.016 0 0 0-4.348-5.578 27.754 27.754 0 0 1-5.297-1.193.804.804 0 0 1-.512-1.02.814.814 0 0 1 1.028-.508c1.591.53 3.268.907 4.984 1.122zM38.335 21.2a2.835 2.835 0 0 1 3.669 0c4.113 3.532 8.915 5.843 14.271 6.87a3.121 3.121 0 0 1 2.51 3.487c-.38 2.76-1.155 7.924-2.085 11.485-1.694 6.49-3.332 8.961-4.158 9.856-2.715 2.943-7.751 6.876-10.512 8.958a3.088 3.088 0 0 1-1.86.62 3.088 3.088 0 0 1-1.861-.62c-2.761-2.082-7.798-6.015-10.512-8.958-.826-.895-2.465-3.366-4.159-9.856-.93-3.56-1.704-8.724-2.083-11.485a3.12 3.12 0 0 1 2.508-3.487c5.357-1.027 10.159-3.338 14.272-6.87zm18.838 10.139a1.505 1.505 0 0 0-1.206-1.685c-5.64-1.08-10.696-3.515-15.027-7.234a1.18 1.18 0 0 0-.77-.283c-.276 0-.552.095-.771.283-4.331 3.72-9.387 6.153-15.027 7.234-.786.151-1.315.89-1.206 1.685.374 2.726 1.138 7.818 2.046 11.298 1.713 6.561 3.33 8.679 3.784 9.172 2.727 2.956 8.109 7.113 10.297 8.762.516.39 1.237.39 1.753 0 2.188-1.65 7.57-5.806 10.297-8.762.454-.493 2.07-2.611 3.783-9.172.91-3.48 1.673-8.573 2.047-11.298zM34.682 39.25l4.254 3.426 6.53-6.404a2.935 2.935 0 0 1 4.116.02 2.863 2.863 0 0 1-.019 4.073l-8.388 8.224a2.937 2.937 0 0 1-3.885.188l-1.332-1.073a.788.788 0 0 1-.116-1.116.808.808 0 0 1 1.128-.114l1.332 1.072c.35.285 1.08.55 1.745-.084l8.388-8.225a1.286 1.286 0 0 0 .009-1.83 1.318 1.318 0 0 0-1.849-.008l-7.043 6.905a.807.807 0 0 1-1.07.052L33.67 40.48c-.27-.218-1.166-.705-1.839.187-.673.892-.082 1.602.189 1.82l2.324 1.872a.788.788 0 0 1 .116 1.116.807.807 0 0 1-1.128.114l-2.324-1.871c-.603-.486-1.877-2.147-.42-4.052 1.456-1.905 3.491-.902 4.094-.416z"/>
</svg>
