<svg xmlns="http://www.w3.org/2000/svg" width="80" height="80" viewBox="0 0 80 80">
    <path fill="#4FC0E8" fill-rule="nonzero" d="M40 78c20.987 0 38-17.013 38-38S60.987 2 40 2 2 19.013 2 40s17.013 38 38 38zm0 2C17.909 80 0 62.091 0 40S17.909 0 40 0s40 17.909 40 40-17.909 40-40 40zm.009-65C53.813 15.002 65.002 26.197 65 40.004 64.998 53.81 53.806 65.002 40.001 65a24.977 24.977 0 0 1-9.4-1.83c-12.786-5.186-18.948-19.756-13.764-32.544l-.12-.363.31-.103A24.995 24.995 0 0 1 40.01 15zm19.605 37.605a23.254 23.254 0 0 0 1.082-23.35l-4.604 1.535a.826.826 0 0 1-.4.032l-4.999-.834a.833.833 0 0 1-.556-.359L48.72 27.5h-4.208l-1.96 1.96.707 4.957 5.142 2.206 3.06-.765a.833.833 0 0 1 .667.115l2.5 1.667c.231.155.37.415.37.693v3.137l3.25 6.49a.832.832 0 0 1 .083.373v2.989l1.283 1.283zm-3.436-29.393a23.414 23.414 0 0 0-5.423-3.908l-2.883 1.442a.833.833 0 0 1-.372.087h-2.818l-1.006 2.014 1.358.452 3.097-.774a.818.818 0 0 1 .465.018l2.45.816 3.777.756 1.355-.903zm-25.302-4.684a23.465 23.465 0 0 0-12.26 12.164l1.256 3.773 3.466 2.312v-1.432l-1.422-1.423a.833.833 0 0 1-.244-.589v-2.5c0-.414.306-.766.716-.824l5.666-.809 3.843-2.307 2.393-3.988a.833.833 0 0 1 .45-.36l2.105-.703.394-1.18-4.038-.673a.832.832 0 0 1-.326-.128l-2-1.333zM28.504 45.85c.388.08.666.42.666.817v8.173l1.463 3.66 1.037.343v-3.01c0-.262.123-.509.333-.666l3-2.25v-2.084c0-.22.088-.433.244-.589l3.155-3.155.583-2.922h-2.316a.833.833 0 0 1-.714-.405L33.698 40h-5.36a.833.833 0 0 1-.746-.46l-1.15-2.3-3.104 3.105v1.958l1.4 2.793 3.766.754zm-2.505 12.81c10.304 7.732 24.923 5.646 32.653-4.66l-1.743-1.744a.833.833 0 0 1-.244-.59V48.53l-3.25-6.49a.832.832 0 0 1-.083-.373v-2.888l-1.819-1.215-2.975.744a.823.823 0 0 1-.53-.042l-5.832-2.5a.833.833 0 0 1-.5-.648l-.833-5.833a.833.833 0 0 1 .236-.708l2.5-2.5a.833.833 0 0 1 .588-.244h5c.276.002.535.14.688.371l1.467 2.2 4.438.74 4.099-1.367a23.509 23.509 0 0 0-2.506-3.349l-1.896 1.265a.827.827 0 0 1-.626.124l-4.166-.834a.612.612 0 0 1-.1-.026l-2.27-.756-3.097.774a.818.818 0 0 1-.465-.018l-2.5-.834a.835.835 0 0 1-.482-1.162l1.666-3.333a.833.833 0 0 1 .75-.461h3.136l1.522-.76a23.26 23.26 0 0 0-16.023-.596l.847.565 4.823.804a.833.833 0 0 1 .653 1.083l-.833 2.5a.825.825 0 0 1-.527.527l-2.207.737-2.341 3.902a.833.833 0 0 1-.285.285l-4.166 2.5a.837.837 0 0 1-.31.111l-5.118.73v1.433l1.422 1.423a.833.833 0 0 1 .245.589v1.322l1.081-1.078a.833.833 0 0 1 1.335.217l1.431 2.872h5.317c.293 0 .564.154.714.404L37.14 42.5h2.861a.833.833 0 0 1 .816.997l-.832 4.166a.834.834 0 0 1-.228.426l-3.088 3.09v2.154c0 .263-.124.51-.333.667l-3 2.25V60a.833.833 0 0 1-1.092.79l-2.5-.833a.833.833 0 0 1-.51-.481l-1.667-4.167a.834.834 0 0 1-.059-.309v-7.65l-3.499-.7a.833.833 0 0 1-.583-.444l-1.667-3.334a.833.833 0 0 1-.087-.372V40c0-.221.088-.433.244-.59l.947-.948-4.153-2.769a.833.833 0 0 1-.327-.43l-.693-2.076A23.33 23.33 0 0 0 26 58.66z"/>
</svg>
