<svg xmlns="http://www.w3.org/2000/svg" width="80" height="80" viewBox="0 0 80 80">
    <path fill="#4FC0E8" fill-rule="nonzero" d="M40 78c20.987 0 38-17.013 38-38S60.987 2 40 2 2 19.013 2 40s17.013 38 38 38zm0 2C17.909 80 0 62.091 0 40S17.909 0 40 0s40 17.909 40 40-17.909 40-40 40zm5.719-31.55c.404 0 .731.47.731 1.05 0 .58-.327 1.05-.731 1.05H42.98c-.404 0-.731-.47-.731-1.05 0-.58.327-1.05.731-1.05h2.738zm15.605-7.069a4.65 4.65 0 0 1 2.972 4.526l-.544 13.418a.703.703 0 1 1-1.405-.057l.544-13.417a3.243 3.243 0 0 0-.112-.983l-2.133 2.134a3.225 3.225 0 0 0-.95 2.294v10a.703.703 0 1 1-1.406 0v-10c0-1.242.484-2.41 1.362-3.289l2.43-2.432a3.236 3.236 0 0 0-1.264-.881l-3.552-1.371-2.717 4.076a2.011 2.011 0 0 1-2.67.638l.582 13.229a.703.703 0 1 1-1.404.061l-.541-12.279h-1.46l-.54 12.28a.703.703 0 1 1-1.405-.062l.583-13.23a2.006 2.006 0 0 1-1.19.253 2.01 2.01 0 0 1-1.481-.89l-2.716-4.076-3.553 1.37c-.231.09-.452.205-.656.344a.7.7 0 0 1-.976-.186.704.704 0 0 1 .186-.977c.293-.2.609-.365.94-.493l3.828-1.477 1.952-1.953a.7.7 0 0 1 .451-.204v-1.553a7.256 7.256 0 0 1-1.838-3.624 2.006 2.006 0 0 1-.493-.04c-.936-.191-1.615-1.06-1.615-2.064v-.505c0-.828.46-1.553 1.145-1.887a17.572 17.572 0 0 1-.487-4.086c0-2.029.93-3.013 1.711-3.482a3.702 3.702 0 0 1 1.447-.492c.597-.491 2.48-1.835 5.4-1.993 3.158-.17 5.643.681 7.185 2.463 1.595 1.843 2.106 4.596 1.486 7.973.383.382.619.915.619 1.496v.513c0 1.005-.68 1.873-1.614 2.065a2.01 2.01 0 0 1-.493.039 7.255 7.255 0 0 1-1.84 3.624v1.554a.7.7 0 0 1 .452.203l1.952 1.953 3.828 1.477zM44.017 32.28a5.865 5.865 0 0 0 11.538 0c.124-.676.75-1.166 1.424-1.116.053.004.108 0 .163-.012.28-.057.49-.352.49-.686v-.513c0-.32-.214-.603-.498-.66a1.516 1.516 0 0 0-.526.039 1.155 1.155 0 0 1-1.335-.685l-.51-1.227c-1.837.367-7.352 1.12-10.132-2.342a.704.704 0 0 1 1.096-.881c2.722 3.39 9.214 1.744 9.28 1.727a.704.704 0 0 1 .826.41l.66 1.587c.206-.034.412-.049.6-.042.454-2.791.036-5.021-1.221-6.474-1.248-1.441-3.34-2.125-6.048-1.979-2.96.16-4.688 1.765-4.705 1.78a.71.71 0 0 1-.485.195s-.54.013-1.05.337c-.655.416-.987 1.173-.987 2.25 0 1.789.322 3.272.502 3.964.28.079.54.216.762.407.202-.175.386-.373.548-.592a.703.703 0 1 1 1.128.84 5.105 5.105 0 0 1-1.153 1.127.987.987 0 0 1-.85.137.984.984 0 0 1-.497-.348.61.61 0 0 0-.602-.23c-.278.048-.496.342-.496.668v.505c0 .334.211.63.49.687.056.01.11.015.164.01.675-.05 1.3.442 1.424 1.117zm3.118 12.432l1.623-1.623-4.201-3.678-1.1 1.101 2.736 4.107c.14.21.341.26.449.27.108.01.315.002.493-.177zm1.983.93h1.336l-.043-.967-.625-.626-.625.626-.043.967zm.668-3.522l3.9-3.415V37.36a7.25 7.25 0 0 1-3.9 1.135 7.25 7.25 0 0 1-3.9-1.135v1.346l3.9 3.415zm3.594 2.5l2.736-4.108-1.1-1.1-4.201 3.677 1.622 1.623a.603.603 0 0 0 .493.177c.108-.01.31-.06.45-.27zm-14.982.447a4.68 4.68 0 0 1 2.798 4.46l-.417 9.8a.705.705 0 0 1-.736.672.705.705 0 0 1-.675-.732l.417-9.8a3.228 3.228 0 0 0-.448-1.77l-1.854 2.215a3.9 3.9 0 0 0-.908 2.498v6.887a.705.705 0 0 1-.707.703.705.705 0 0 1-.706-.703V52.41c0-1.24.44-2.447 1.236-3.399l1.97-2.355a3.21 3.21 0 0 0-.535-.3l-3.006-1.306-2.124 3.433a1.366 1.366 0 0 1-1.164.648c-.323 0-.638-.114-.887-.326l-1.346-1.144v11.635A.705.705 0 0 1 28.6 60a.705.705 0 0 1-.706-.704V47.661l-1.346 1.144a1.369 1.369 0 0 1-2.051-.322l-2.124-3.433-3.006 1.307c-.19.082-.368.184-.536.299l1.97 2.355a5.306 5.306 0 0 1 1.237 3.399v6.887a.705.705 0 0 1-.707.703.705.705 0 0 1-.706-.703V52.41a3.9 3.9 0 0 0-.908-2.499l-1.854-2.215a3.228 3.228 0 0 0-.448 1.772l.418 9.799a.704.704 0 0 1-.707.733.705.705 0 0 1-.705-.674l-.417-9.799a4.68 4.68 0 0 1 2.798-4.46l3.449-1.499 1.885-1.877a.703.703 0 0 1 .454-.204v-1.106a7.263 7.263 0 0 1-3.17-4.73 2.033 2.033 0 0 1-.557-.052c-.903-.213-1.56-1.076-1.56-2.051v-.505a2.1 2.1 0 0 1 .904-1.743 7.922 7.922 0 0 1-.243-1.943c0-2.914 1.582-5.48 3.966-6.954C23.955 19.971 26.04 18 28.6 18s4.644 1.971 4.67 4.403c2.383 1.474 3.965 4.04 3.965 6.954 0 .657-.082 1.31-.244 1.949.55.376.905 1.017.905 1.729v.513c0 .975-.656 1.838-1.56 2.05a2.037 2.037 0 0 1-.557.053 7.263 7.263 0 0 1-3.17 4.73v1.106c.166.01.329.078.455.204l1.885 1.877 3.449 1.5zM28.6 19.407c-1.503 0-2.77.954-3.145 2.248a8.925 8.925 0 0 1 3.145-.568c1.11 0 2.17.201 3.145.568-.375-1.294-1.643-2.248-3.145-2.248zm-5.797 15.955a5.885 5.885 0 0 0 5.797 4.807 5.885 5.885 0 0 0 5.797-4.808 1.376 1.376 0 0 1 1.43-1.116c.06.005.122 0 .184-.015.27-.064.473-.357.473-.682v-.513c0-.32-.216-.604-.501-.66-.175-.035-.576.027-.696.092a.707.707 0 0 1-.803-.065l-.829-.678c-.678.038-2.411.078-4.36-.331-2.547-.535-4.52-1.62-5.865-3.223a.701.701 0 0 1 .089-.99c.3-.25.745-.21.995.088 2.727 3.251 8.044 3.111 9.082 3.05.34-.02.676.09.943.308l.53.435c.175-.046.364-.076.55-.09.135-.53.204-1.07.204-1.614 0-3.785-3.24-6.864-7.223-6.864-3.983 0-7.223 3.08-7.223 6.864 0 .545.07 1.087.204 1.617.394.048.764.21 1.066.467.199-.172.379-.365.54-.577a.708.708 0 0 1 .988-.14.701.701 0 0 1 .14.984c-.323.43-.707.802-1.142 1.108a.99.99 0 0 1-1.354-.212.615.615 0 0 0-.604-.23c-.28.049-.499.342-.499.669v.505c0 .325.203.618.473.682.062.014.124.02.184.015.677-.05 1.306.441 1.43 1.117zM25.671 47.7l1.889-1.605-2.925-2.912-1.088 1.084 2.124 3.433zm2.929-2.558l2.597-2.587V41.1a7.318 7.318 0 0 1-5.195 0v1.455l2.598 2.587zm2.928 2.558l2.125-3.433-1.088-1.084-2.925 2.912 1.888 1.605zm-5.683 3.9c.362 0 .655.47.655 1.05 0 .58-.293 1.05-.655 1.05h-1.84c-.362 0-.655-.47-.655-1.05 0-.58.293-1.05.655-1.05h1.84z"/>
</svg>
