<svg xmlns="http://www.w3.org/2000/svg" width="42" height="42" viewBox="0 0 42 42">
    <path fill="#4FC0E8" fill-rule="nonzero" d="M21 41.75C9.54 41.75.25 32.46.25 21S9.54.25 21 .25 41.75 9.54 41.75 21 32.46 41.75 21 41.75zm0-1.5c10.631 0 19.25-8.619 19.25-19.25S31.631 1.75 21 1.75 1.75 10.369 1.75 21 10.369 40.25 21 40.25zm5.674-21.755c.34-1.56.392-3.091.097-4.397-.679-3.005-3.057-4.611-7.358-4.313-3.927.272-6.457 3.431-5.154 6.623.2.488.155.768-.224 2.47l-.06.27c-.158.732-.23 1.197-.225 1.513.727.027 1.208.52 1.396 1.27.121.483.135.976.102 1.932l-.005.13c-.03.829-.027 1.166.026 1.448.016.087-.002.093-.04.086.475-.046.872-.05 1.612-.046 1.397.01 1.863-.041 2.439-.323.613-.299 1.235-.887 1.985-1.932a.75.75 0 1 1 1.219.874c-.883 1.23-1.68 1.983-2.546 2.406a4.052 4.052 0 0 1-1.095.37l-.043.364c-.025.206-.044.355-.064.504a12.77 12.77 0 0 1-.474 2.138h7.121a11.173 11.173 0 0 0-.215-.662c-.034-.097-.233-.654-.292-.824-.255-.73-.422-1.29-.536-1.854-.262-1.289-.18-2.375.383-3.277a15.366 15.366 0 0 0 1.694-3.77h-2.66a.5.5 0 0 1-.438-.258l-1.394-2.527a2.25 2.25 0 1 1 .919-.405l1.208 2.19h2.622zm-9.842 8.486c-.744-.004-1.117 0-1.608.03-.81.048-1.28-.494-1.43-1.295-.08-.436-.084-.82-.05-1.776l.005-.129c.028-.808.016-1.22-.058-1.516-.044-.174-.003-.137-.045-.132-.907.098-1.366-.548-1.394-1.432-.016-.481.07-1.033.258-1.9l.061-.28c.235-1.057.313-1.542.3-1.576-1.728-4.23 1.572-8.35 6.438-8.687 5.012-.347 8.076 1.723 8.925 5.48.698 3.092-.238 7.094-2.239 10.293-.324.518-.378 1.235-.185 2.183.098.483.248.986.482 1.658l.291.821c.11.315.187.547.246.76.19.679.219 1.144-.058 1.562a.75.75 0 0 1-.626.337h-8.928a.75.75 0 0 1-.705-1.006c.427-1.176.613-1.927.738-2.836a27.88 27.88 0 0 0 .07-.558h-.488zM21.5 15.25a.75.75 0 1 0 0-1.5.75.75 0 0 0 0 1.5z"/>
</svg>
