<svg xmlns="http://www.w3.org/2000/svg" width="42" height="42" viewBox="0 0 42 42">
    <path fill="#4FC0E8" fill-rule="nonzero" d="M21 41.75C9.54 41.75.25 32.46.25 21S9.54.25 21 .25 41.75 9.54 41.75 21 32.46 41.75 21 41.75zm0-1.5c10.631 0 19.25-8.619 19.25-19.25S31.631 1.75 21 1.75 1.75 10.369 1.75 21 10.369 40.25 21 40.25zm3.499-15.94c1.34 0 2.434 1.05 2.434 2.345 0 1.294-1.094 2.345-2.435 2.345-1.34 0-2.433-1.052-2.433-2.345 0-.177.026-.354.066-.524L16.2 22.79c-.448.4-1.04.65-1.698.65-1.385 0-2.501-1.076-2.501-2.409 0-1.333 1.116-2.409 2.501-2.409.658 0 1.25.25 1.699.652l5.875-3.304A2.504 2.504 0 0 1 22 15.41C22 14.077 23.116 13 24.5 13 25.883 13 27 14.077 27 15.41c0 1.335-1.116 2.409-2.501 2.409a2.54 2.54 0 0 1-1.698-.65l-5.876 3.3c.043.186.076.371.076.563 0 .192-.033.378-.076.563l5.943 3.332a2.467 2.467 0 0 1 1.63-.617z"/>
</svg>
