<svg xmlns="http://www.w3.org/2000/svg" width="42" height="42" viewBox="0 0 42 42">
    <path fill="#4FC0E8" fill-rule="nonzero" d="M13.753 12.502a3.44 3.44 0 0 0-.708.543c-1.327 1.327-1.447 3.666-.513 6.247a20.37 20.37 0 0 1 2.988-3.772 20.37 20.37 0 0 1 3.772-2.988c-1.302-.471-2.543-.674-3.623-.589a1.25 1.25 0 0 1-1.916.56zm-.407-1.484a1.25 1.25 0 0 1 1.875-.54c1.728-.214 3.741.193 5.779 1.138 3.531-1.637 6.988-1.659 9.016.368 2.027 2.028 2.005 5.485.368 9.016 1.637 3.531 1.659 6.988-.368 9.016a5.004 5.004 0 0 1-1.362.966 1.25 1.25 0 0 1-1.875.54c-1.728.214-3.741-.193-5.779-1.138-3.531 1.637-6.988 1.659-9.016-.368C9.957 27.988 9.98 24.53 11.616 21c-1.637-3.531-1.659-6.988.368-9.016a5.004 5.004 0 0 1 1.362-.966zm12.985 19.039a1.25 1.25 0 0 1 1.916-.56c.26-.15.497-.33.708-.542 1.327-1.327 1.447-3.666.513-6.247a20.37 20.37 0 0 1-2.988 3.772 20.37 20.37 0 0 1-3.772 2.988c1.302.471 2.543.674 3.623.589zM21 28.712c1.496-.782 3.015-1.888 4.42-3.293 1.404-1.404 2.51-2.923 3.292-4.419-.782-1.496-1.888-3.015-3.293-4.42-1.404-1.404-2.923-2.51-4.419-3.292-1.496.782-3.015 1.888-4.42 3.293-1.404 1.404-2.51 2.923-3.292 4.419.782 1.496 1.888 3.015 3.293 4.42 1.404 1.404 2.923 2.51 4.419 3.292zm-1.708.756a20.37 20.37 0 0 1-3.772-2.988 20.37 20.37 0 0 1-2.988-3.772c-.934 2.58-.814 4.92.513 6.247s3.666 1.447 6.247.513zm3.416-16.936a20.37 20.37 0 0 1 3.772 2.988 20.37 20.37 0 0 1 2.988 3.772c.934-2.58.814-4.92-.513-6.247s-3.666-1.447-6.247-.513zM21 41.75C9.54 41.75.25 32.46.25 21S9.54.25 21 .25 41.75 9.54 41.75 21 32.46 41.75 21 41.75zm0-1.5c10.631 0 19.25-8.619 19.25-19.25S31.631 1.75 21 1.75 1.75 10.369 1.75 21 10.369 40.25 21 40.25zm0-16.5a2.75 2.75 0 1 1 0-5.5 2.75 2.75 0 0 1 0 5.5zm0-1.5a1.25 1.25 0 1 0 0-2.5 1.25 1.25 0 0 0 0 2.5z"/>
</svg>
