<svg xmlns="http://www.w3.org/2000/svg" width="42" height="42" viewBox="0 0 42 42">
    <path fill="#4FC0E8" fill-rule="nonzero" d="M21 41.75C9.54 41.75.25 32.46.25 21S9.54.25 21 .25 41.75 9.54 41.75 21 32.46 41.75 21 41.75zm0-1.5c10.631 0 19.25-8.619 19.25-19.25S31.631 1.75 21 1.75 1.75 10.369 1.75 21 10.369 40.25 21 40.25zm8.283-28.458c.396 0 .717.313.717.699v3.82c0 2.634-1.463 4.104-4.122 4.156a6.128 6.128 0 0 1-.979 1.623 5.213 5.213 0 0 1-1.999 1.468v3.585h2.833c.396 0 .717.313.717.699v3.46a.708.708 0 0 1-.717.698h-9.466a.708.708 0 0 1-.717-.699v-3.46c0-.385.32-.698.717-.698H19.1v-3.585a5.213 5.213 0 0 1-2-1.468 6.127 6.127 0 0 1-.978-1.623C13.462 20.415 12 18.945 12 16.31v-3.82c0-.386.321-.699.717-.699h2.833V11.7c0-.386.32-.699.717-.699h9.466c.396 0 .717.313.717.699v.093h2.833zm-15.849 4.52c0 1.712.704 2.573 2.264 2.732a8.367 8.367 0 0 1-.148-1.58V13.19h-2.116v3.121zM25.016 28.54h-8.032v2.061h8.032v-2.061zm-3.55-1.398v-3.237a5.118 5.118 0 0 1-.932 0v3.237h.932zM21 22.531c2.327 0 4.016-2.131 4.016-5.067v-5.066h-8.032v5.066c0 2.936 1.69 5.067 4.016 5.067zm7.566-6.22V13.19H26.45v4.274c0 .544-.05 1.073-.148 1.58 1.56-.16 2.264-1.02 2.264-2.733z"/>
</svg>
