<svg xmlns="http://www.w3.org/2000/svg" xmlns:xlink="http://www.w3.org/1999/xlink" width="528" height="180" viewBox="0 0 528 180">
    <defs>
        <path id="a" d="M164.647 146.2h-22.32V175h-54.96v-28.8H.247v-36L71.527 7h58.08l-63.36 95.28h22.8V76.6h53.28v25.68h22.32v43.92zm172.167-70.165c10.048 22.23 8.061 49.335-5.141 69.824-13.203 20.489-37.096 33.722-61.573 34.128-24.478.465-48.838-11.956-62.859-31.864-8.88-12.712-13.728-28.209-13.202-43.706.35-9.693 2.804-19.27 6.776-28.15 6.426-14.453 16.65-25.887 27.808-36.857C242 26.293 255.203 13.117 268.58 0c11.45 11.202 23.075 22.462 34.525 33.664C310 40.455 317.068 47.42 323.32 54.966c5.316 6.442 10.048 13.407 13.495 21.069zm-68.292 65.239c26.58 0 48.079-21.418 48.079-47.769 0-6.094-1.402-11.55-2.103-14.046-2.22-7.777-6.251-14.975-21.615-31.4-6.076-6.56-14.254-14.86-24.419-23.972a445.487 445.487 0 0 0-24.185 23.972c-15.072 16.135-19.278 23.1-21.674 31.284-.759 2.438-2.161 8.01-2.161 14.162 0 26.351 21.498 47.769 48.078 47.769zm6.89-22.162c-16.078 4.001-32.356-5.789-36.357-21.867-4.002-16.078 5.789-32.356 21.867-36.357 16.078-4.001 32.355 5.789 36.357 21.867 4.001 16.078-5.79 32.356-21.867 36.357zM527.147 146.2h-22.32V175h-54.96v-28.8h-87.12v-36L434.027 7h58.08l-63.36 95.28h22.8V76.6h53.28v25.68h22.32v43.92z"/>
    </defs>
    <g fill="none" fill-rule="evenodd">
        <mask id="b" fill="#fff">
            <use xlink:href="#a"/>
        </mask>
        <use fill="#4FC0E8" xlink:href="#a"/>
        <g fill="#FFF" fill-rule="nonzero" mask="url(#b)" opacity=".1">
            <path d="M584.018-131.534L452.908-.396a7.428 7.428 0 0 0 .26 10.214 7.422 7.422 0 0 0 10.21.286l131.11-131.117a7.422 7.422 0 0 0-3.137-12.773 7.417 7.417 0 0 0-7.333 2.299v-.047z" opacity=".6"/>
            <path d="M15.136 52.841a7.344 7.344 0 0 0 10.402 0l21.906-22.037c.068-.068.125-.142.192-.215.068-.073.146-.125.214-.193 2.867-2.892 2.867-7.573 0-10.464l-60.086-60.493 16.69-16.79a7.436 7.436 0 0 0 2.161-5.245 7.436 7.436 0 0 0-2.161-5.245 7.344 7.344 0 0 0-10.402 0l-21.906 22.037c-2.861 2.894-2.861 7.57 0 10.464l60.085 60.493-17.095 17.198c-2.876 2.898-2.876 7.592 0 10.49z" opacity=".3"/>
            <path d="M253.648-68.16L107.002 79.052l-16.024-16.08a7.398 7.398 0 0 0-7.331-2.306 7.43 7.43 0 0 0-5.433 5.453 7.46 7.46 0 0 0 2.297 7.36l21.263 21.342a7.406 7.406 0 0 0 10.493 0l151.88-152.454a7.464 7.464 0 0 0-.319-10.187 7.395 7.395 0 0 0-10.148-.32l-.032-.02z" opacity=".4"/>
            <path d="M105.18 57.765a7.299 7.299 0 0 0 10.513 0l22.134-22.833c2.897-2.996 2.897-7.846 0-10.842L115.719 1.235a7.299 7.299 0 0 0-10.513 0c-2.889 3-2.889 7.842 0 10.842l16.873 17.396-16.873 17.396A7.815 7.815 0 0 0 103 52.311a7.817 7.817 0 0 0 2.18 5.454z" opacity=".3"/>
            <path d="M38.188 150.202a7.513 7.513 0 0 0 0 10.599l22.33 22.322A7.515 7.515 0 0 0 70.8 182.8a7.507 7.507 0 0 0 .322-10.276l-22.31-22.322a7.509 7.509 0 0 0-10.624 0z" opacity=".2"/>
            <path d="M200.833 173.17a7.322 7.322 0 0 0-10.407 0L86.355 278.177l-16.777-16.958a7.337 7.337 0 0 0-10.433 0c-2.86 2.905-2.86 7.595 0 10.5l21.918 22.11a7.32 7.32 0 0 0 8.934 1.15 7.158 7.158 0 0 0 1.847-1.36l108.989-109.915a7.468 7.468 0 0 0 2.167-5.266c0-1.976-.78-3.871-2.167-5.266z" opacity=".7"/>
            <path d="M28.704 174.856c-2.86-1.523-6.355-.978-8.642 1.347L-1.853 198.62c-2.863 2.945-2.863 7.701 0 10.646a7.266 7.266 0 0 0 10.406 0l16.696-17.08 58.273 59.612a7.25 7.25 0 0 0 10.405 0l21.915-22.413c2.877-2.949 2.877-7.723 0-10.672a7.266 7.266 0 0 0-10.432 0L88.714 235.8l-58.272-59.613a7.342 7.342 0 0 0-1.738-1.33z" opacity=".4"/>
            <path d="M-91.837 294.827a7.322 7.322 0 0 0 10.411 0l43.328-43.739a7.294 7.294 0 0 0 1.41-2.007 7.5 7.5 0 0 0-1.27-8.808l-16.715-16.869L70.645 96.902a7.492 7.492 0 0 0 2.125-7.3 7.412 7.412 0 0 0-5.337-5.374 7.332 7.332 0 0 0-7.226 2.163L-70.322 218.15c-2.87 2.904-2.87 7.606 0 10.51l16.778 16.938-38.293 38.699A7.477 7.477 0 0 0-94 289.56c0 1.976.778 3.87 2.163 5.266z" opacity=".6"/>
            <path d="M236.054-86.522L149.844-.258a7.382 7.382 0 0 0 .316 10.097 7.37 7.37 0 0 0 10.09.317l86.253-86.243a7.381 7.381 0 0 0-3.118-12.7 7.37 7.37 0 0 0-7.29 2.286l-.041-.021z" opacity=".4"/>
            <path d="M-61.958 184.532L90.973 31.715a7.368 7.368 0 0 0 1.054-1.347 7.463 7.463 0 0 0 0-10.524l-38.28-38.25 39.08-39.048a7.457 7.457 0 0 0 0-10.524l-22.18-22.158a7.466 7.466 0 0 0-10.212.32 7.452 7.452 0 0 0-.32 10.204l16.914 16.901-39.08 39.049a7.463 7.463 0 0 0 0 10.55L76.392 25.3-72.517 173.982a7.458 7.458 0 0 0 3.171 12.794 7.47 7.47 0 0 0 7.361-2.244h.027z" opacity=".3"/>
            <path d="M-94 115.73c0 1.972.79 3.863 2.196 5.256l22.286 22.152a7.533 7.533 0 0 0 10.26-.32 7.414 7.414 0 0 0 .322-10.193L-75.92 115.75l11.857-11.78 16.985 16.874c2.937 2.912 7.693 2.912 10.63 0L7.283 77.398c.187-.15.363-.314.53-.489a7.41 7.41 0 0 0 0-10.513L-9.216 49.475l16.9-16.79a7.42 7.42 0 0 0 0-10.514c-2.925-2.895-7.656-2.895-10.582 0L-25.173 44.26a7.424 7.424 0 0 0-2.199 5.27c0 1.977.791 3.872 2.2 5.27.301.295.627.566.973.81l16.111 16-33.646 33.428-17-16.89c-2.928-2.89-7.655-2.89-10.583 0l-.047.053c-.043.042-.09.073-.127.115l-22.313 22.141A7.403 7.403 0 0 0-94 115.73z" opacity=".6"/>
            <path d="M136.746 152.142c-3.021-2.856-7.898-2.856-10.92 0l-17.33 16.467-17.298-16.467c-3.039-2.785-7.862-2.742-10.845.097-2.984 2.838-3.029 7.427-.102 10.318L97.554 179 80.25 195.456c-3.001 2.875-3.001 7.515 0 10.39 3.024 2.872 7.923 2.872 10.947 0l17.298-16.463 17.303 16.463c3.07 2.522 7.666 2.362 10.535-.367 2.868-2.73 3.036-7.102.385-10.023l-17.276-16.457 17.303-16.463c3.005-2.875 3.005-7.52 0-10.394z"/>
            <path d="M137.819 109.184a7.416 7.416 0 0 0-10.512 0l-16.66 16.74-16.367-16.412a7.431 7.431 0 0 0-10.538 0l-21.575 21.706a7.523 7.523 0 0 0 0 10.565 7.431 7.431 0 0 0 10.538 0l16.319-16.387 16.33 16.413a7.431 7.431 0 0 0 10.538 0l.152-.174c.058-.053.121-.1.174-.159l21.596-21.706a7.5 7.5 0 0 0 2.186-5.292 7.5 7.5 0 0 0-2.181-5.294z" opacity=".7"/>
            <path d="M246.838 142.803c2.883-2.924 2.883-7.648 0-10.572l-60.445-61.002 38.438-38.784c2.593-2.966 2.453-7.455-.319-10.251a7.377 7.377 0 0 0-10.16-.322l-43.217 43.6a8.903 8.903 0 0 0 .053 11.63l65.144 65.701a7.392 7.392 0 0 0 5.253 2.197c1.97 0 3.86-.79 5.253-2.197z" opacity=".4"/>
            <path d="M286.815-47.252a7.361 7.361 0 0 0-9.487.78l-42.87 42.856a8.256 8.256 0 0 0 .437 11.028l16.153 16.153-37.905 37.88a7.378 7.378 0 0 0 0 10.399 7.377 7.377 0 0 0 10.424 0l42.88-42.882c.036-.037.062-.078.098-.115l.115-.098a7.378 7.378 0 0 0 0-10.425L249.982 1.651l32.659-32.66 16.672 16.678a7.377 7.377 0 0 0 10.424 0c.041-.042.073-.088.114-.125.042-.036.083-.073.125-.114l42.874-42.882a7.362 7.362 0 0 0 0-10.398 7.361 7.361 0 0 0-10.397 0L304.538-29.94l-16.153-16.153a7.247 7.247 0 0 0-1.57-1.16z" opacity=".7"/>
            <path d="M246.816 185.107a7.326 7.326 0 0 0 0-10.436l-44.039-43.513c-2.919-2.877-7.643-2.877-10.562 0a7.326 7.326 0 0 0 0 10.436l38.747 38.285L126.19 283.374a7.342 7.342 0 0 0 0 10.462c2.926 2.885 7.663 2.885 10.589 0l110.037-108.729z" opacity=".4"/>
            <path d="M179.793 107.411l-21.675-21.553a7.505 7.505 0 0 0-10.229.319 7.402 7.402 0 0 0-.32 10.172l16.388 16.297-16.389 16.297a7.398 7.398 0 0 0 0 10.491l16.352 16.26-16.389 16.298a7.407 7.407 0 0 0-2.315 7.348 7.454 7.454 0 0 0 5.476 5.445 7.5 7.5 0 0 0 7.389-2.302l20.905-20.787c.296-.211.575-.446.833-.703a7.398 7.398 0 0 0 0-10.491l-16.39-16.297 16.39-16.298a7.398 7.398 0 0 0-.026-10.496z" opacity=".4"/>
            <path d="M542.432-45.187L453.557 41.16c-2.108 1.806-3.01 4.6-2.339 7.253.67 2.652 2.802 4.723 5.532 5.375 2.73.652 5.607-.224 7.466-2.273l88.896-86.325c2.637-2.906 2.495-7.302-.324-10.041-2.82-2.739-7.344-2.877-10.335-.315l-.021-.02z" opacity=".3"/>
            <path d="M411.342-44.861l-16.8 16.76-16.606-16.562a7.434 7.434 0 0 0-10.48 0l-59.98 59.795-16.611-16.566a7.438 7.438 0 0 0-7.28-2.133 7.415 7.415 0 0 0-5.358 5.357 7.392 7.392 0 0 0 2.158 7.254l21.856 21.797a7.44 7.44 0 0 0 10.48 0l.137-.146.152-.136 59.685-59.486 16.606 16.56a7.434 7.434 0 0 0 10.48 0c.032-.03.058-.067.095-.099l.1-.094 21.862-21.802a7.396 7.396 0 0 0 0-10.452 7.45 7.45 0 0 0-10.496-.047zM417.912-1.5a7.377 7.377 0 0 0-12.699 3.12 7.383 7.383 0 0 0 2.286 7.297l21.718 21.726a7.377 7.377 0 0 0 12.557-3.213 7.383 7.383 0 0 0-2.143-7.23L417.912-1.5z" opacity=".4"/>
            <path d="M258.323 153.537a7.379 7.379 0 0 0 .33 10.266c2.865 2.8 7.464 2.941 10.504.322l22.598-22.082a7.49 7.49 0 0 0 0-10.694l-40.23-39.313 39.467-38.573a7.379 7.379 0 0 0-.33-10.266c-2.865-2.8-7.465-2.941-10.504-.322l-44.91 43.872a7.24 7.24 0 0 0-1.186 1.493 7.326 7.326 0 0 0-1.03 3.092c0 .238-.032.476-.032.72 0 .243 0 .476.033.72a7.4 7.4 0 0 0 2.215 4.584l40.268 39.356-17.193 16.825z" opacity=".7"/>
            <path d="M259.16 205.839a7.36 7.36 0 0 0 10.419 0l64.857-65.112a7.431 7.431 0 0 0 .151-10.317 8.16 8.16 0 0 0-.823-.994L317.58 113.16 377.1 53.385a7.442 7.442 0 0 0-.258-10.205 7.364 7.364 0 0 0-10.16-.285l-64.77 65.022-.088.09a7.447 7.447 0 0 0 0 10.49c.322.314.67.6 1.042.852l15.993 16.062-59.7 59.943a7.442 7.442 0 0 0 0 10.485z" opacity=".4"/>
            <path d="M551.84-1.865c-2.9-2.847-7.579-2.847-10.478 0L459.22 79.292l-81.45-80.495c-3.148-2.857-7.978-2.88-11.154-.051l-86.761 85.75a7.275 7.275 0 0 0 .318 10.04c2.772 2.74 7.22 2.878 10.16.316l81.837-80.837 81.795 80.842c2.895 2.857 7.584 2.857 10.478 0l87.37-86.34a7.287 7.287 0 0 0 .026-10.382z" opacity=".3"/>
            <path d="M530.803 67.16c-2.938-2.88-7.692-2.88-10.63 0l-21.837 21.475-.064.068-.063.058A7.344 7.344 0 0 0 496 94c0 1.965.795 3.85 2.209 5.24l16.528 16.253-16.475 16.201a7.535 7.535 0 0 0-.032 10.651l21.79 21.5c2.94 2.873 7.688 2.873 10.628 0a7.329 7.329 0 0 0 0-10.478l-16.56-16.332 16.614-16.337a7.344 7.344 0 0 0 2.208-5.24c0-1.965-.794-3.85-2.208-5.238-.101-.1-.208-.189-.314-.283l-16.23-15.955 16.645-16.369a7.314 7.314 0 0 0 0-10.452z" opacity=".2"/>
            <path d="M482.849 110.177a7.348 7.348 0 0 0-10.378 0L456.35 126.33l-59.096-59.175a7.342 7.342 0 0 0-2.076-1.455 7.697 7.697 0 0 0-1.037-.4 7.338 7.338 0 0 0-7.265 1.855l-43.732 43.814a7.376 7.376 0 0 0 0 10.397l16.195 16.219-16.148 16.178a7.376 7.376 0 0 0 .316 10.08 7.343 7.343 0 0 0 10.062.317l21.32-21.361a7.496 7.496 0 0 0-.046-10.517l-16.116-16.151 33.328-33.38 59.075 59.211a7.305 7.305 0 0 0 2.434 1.617c.439.178.894.314 1.36.405.463.09.934.135 1.405.135a7.387 7.387 0 0 0 2.076-.306 7.308 7.308 0 0 0 3.113-1.851l21.322-21.36a7.373 7.373 0 0 0 .01-10.424zM443.566 152.156a7.455 7.455 0 0 0-10.487 0l-38.131 37.993-16.297-16.23a7.445 7.445 0 0 0-10.487 0 7.388 7.388 0 0 0 0 10.447l21.545 21.465c.355.356.745.674 1.164.95.137.09.278.163.415.241.07.047.144.091.22.13.17.088.345.165.524.23l.163.079c.115.047.236.083.356.125.121.042.215.079.325.11l.121.031a7.439 7.439 0 0 0 7.247-1.896l38.12-37.983 16.292 16.23a7.45 7.45 0 0 0 10.168-.317 7.382 7.382 0 0 0 .319-10.13l-21.577-21.475z" opacity=".4"/>
            <path d="M389.208 162.83c2.945 2.893 7.7 2.893 10.646 0l21.872-21.622.037-.042.043-.037a7.407 7.407 0 0 0 0-10.525l-21.873-21.622c-2.977-2.721-7.597-2.63-10.46.209a7.396 7.396 0 0 0-.186 10.342l16.534 16.35-16.613 16.397a7.407 7.407 0 0 0 0 10.55z"/>
            <path d="M269.583 251.844l59.682-59.954 37.46 37.648a7.361 7.361 0 0 0 10.111-.319 7.452 7.452 0 0 0 .317-10.16l-42.565-42.784-.078-.068-.042-.047a7.372 7.372 0 0 0-10.427 0l-64.885 65.183a7.446 7.446 0 0 0 0 10.48 7.357 7.357 0 0 0 10.427.02z" opacity=".4"/>
            <path d="M560.145 152.474l-37.654 37.878-38.162-38.389a7.312 7.312 0 0 0-10.185.207 7.418 7.418 0 0 0-.18 10.245l43.075 43.33a7.787 7.787 0 0 0 10.717.23l42.8-43.049a7.42 7.42 0 0 0 2.228-7.281 7.37 7.37 0 0 0-5.348-5.394 7.321 7.321 0 0 0-7.244 2.223h-.047z" opacity=".3"/>
        </g>
    </g>
</svg>
