<svg xmlns="http://www.w3.org/2000/svg" width="160" height="225" viewBox="0 0 160 225">
    <g fill="none" fill-rule="nonzero">
        <path fill="#FFF" d="M119.679 157.6A330.49 330.49 0 0 1 79.36 160a330.505 330.505 0 0 1-39.039-2.4c-2.527 0-15.967-.257-26.815-11.105-6.847-6.88-11.103-16.351-11.103-26.815a327.692 327.692 0 0 1-2.4-40.96 334.425 334.425 0 0 1 2.4-38.4c0-2.528.256-15.967 11.103-26.815C20.386 6.657 29.858 2.4 40.321 2.4 52.353.929 65.985-.031 80.96 0c14.207.032 27.199.992 38.719 2.4 2.527 0 15.967.256 26.815 11.104a37.852 37.852 0 0 1 11.103 26.815c1.408 11.456 2.336 24.352 2.4 38.464.064 15.072-.928 28.8-2.4 40.896 0 20.927-16.991 37.92-37.918 37.92z"/>
        <g fill="#4FC0E8" transform="translate(40 28.8)">
            <path d="M78.062 41.937c-1.88-4.196-4.463-8.012-7.363-11.541-3.41-4.133-7.268-7.949-11.029-11.669C53.422 12.591 47.08 6.423 40.832.287c-7.3 7.185-14.503 14.402-21.803 21.588-6.088 6.01-11.666 12.273-15.172 20.19C1.689 46.929.35 52.175.159 57.485c-.286 8.49 2.36 16.979 7.204 23.942 7.65 10.905 20.942 17.71 34.298 17.455 13.355-.223 26.392-7.472 33.596-18.695 7.204-11.224 8.287-26.072 2.805-38.25zM40.8 77.675c-14.503 0-26.233-11.732-26.233-26.167 0-3.37.765-6.423 1.18-7.758 1.306-4.483 3.601-8.299 11.825-17.138a243.546 243.546 0 0 1 13.196-13.131 202.65 202.65 0 0 1 13.324 13.131c8.383 8.998 10.582 12.94 11.794 17.201.382 1.368 1.147 4.356 1.147 7.695 0 14.435-11.73 26.167-26.233 26.167z"/>
            <ellipse cx="40.766" cy="49.661" rx="16.479" ry="16.438" transform="rotate(-13.975 40.766 49.661)"/>
        </g>
        <g fill="#FFF">
            <path d="M18.432 179.987c-1.923 0-3.411 1.48-3.411 3.29 0 1.851 1.55 3.353 3.473 3.353 1.86 0 3.41-1.604 3.41-3.352 0-1.851-1.591-3.29-3.472-3.29zM20.457 189.653h-4.175c-.538 0-.807.329-.807.843v21.943c0 .535.331.802.848.802h4.176c.537 0 .806-.206.806-.843v-21.881c.02-.597-.352-.864-.848-.864zM47.124 189.344c-1.86 0-3.41.535-5.127 1.748-.268.206-.64.206-.971 0-1.757-1.172-3.948-1.81-6.202-1.81-5.085 0-9.715 3.826-9.715 8.823 0 2.92 1.22 5.326 2.935 6.704.372.33.207.576-.103.802-1.758 1.11-2.936 3.29-2.936 4.936 0 1.872.33 2.982 1.075 3.99.33.432.703.74 1.716.576 2.625-.37 6.243-.844 8.558-.844 2.13 0 5.23.535 5.23 2.715 0 1.275-1.447 2.488-2.191 2.92-.703.432-.91.905-.538 1.378l1.654 2.489c.372.534 1.075.329 1.757.061 2.729-1.213 5.127-4.195 5.127-7.013 0-5.47-5.561-7.28-11.163-7.28-1.075 0-3.473.165-5.292.535-.207.062-.434-.062-.33-.432.433-1.275 1.488-2.55 2.935-2.612h1.281c5.602 0 10.109-3.825 10.109-8.925a7.669 7.669 0 0 0-.703-3.188c-.165-.37.103-.575.372-.637.806-.165 2.026-.165 2.625-.103.703.062.807-.164.807-.7v-3.248c0-.576-.207-.885-.91-.885zm-12.28 12.854c-2.5 0-4.01-1.81-4.01-3.826 0-2.077 1.654-3.928 4.28-3.928 2.398 0 4.01 1.81 4.01 3.928-.02 2.078-1.509 3.826-4.28 3.826zM62.132 189.344c-1.86 0-4.28.802-5.458 1.913-.268.329-.537.37-.578 0-.062 0-.062-.74-.062-.802 0-.576-.207-.802-.745-.802h-4.175c-.538 0-.848.267-.848.843v21.943c0 .535.33.802.848.802h4.113c.538 0 .91-.267.91-.843v-13.984c0-2.345 1.612-4.031 4.052-4.031 2.935 0 4.175 1.707 4.175 4.092v13.985c0 .534.331.802.848.802h4.176c.475 0 .806-.268.806-.843v-14.026c.02-5.326-2.44-9.049-8.062-9.049zM79.992 189.653h-4.176c-.537 0-.806.329-.806.843v21.943c0 .535.331.802.848.802h4.176c.537 0 .806-.206.806-.843v-21.881c0-.597-.372-.864-.848-.864zM77.966 179.987c-1.922 0-3.41 1.48-3.41 3.29 0 1.851 1.55 3.353 3.472 3.353 1.86 0 3.411-1.604 3.411-3.352 0-1.851-1.612-3.29-3.473-3.29zM94.69 208.367h-.579c-1.716 0-2.13-.637-2.13-2.653V180.09c0-.473-.33-.7-.743-.7h-4.383c-.434 0-.703.268-.703.741v26.262c0 4.997 1.654 7.28 6.512 7.28.269 0 1.178 0 1.82-.103.578-.062.97-.205.97-.966v-3.29c-.02-.35-.123-.947-.764-.947zM103.227 189.653h-4.175c-.538 0-.807.329-.807.843v21.943c0 .535.331.802.848.802h4.176c.537 0 .806-.206.806-.843v-21.881c0-.597-.372-.864-.848-.864zM101.201 179.987c-1.922 0-3.41 1.48-3.41 3.29 0 1.851 1.55 3.353 3.473 3.353 1.88 0 3.41-1.604 3.41-3.352 0-1.851-1.612-3.29-3.473-3.29zM121.667 179.658c-.91-.329-2.46-.576-4.052-.576-4.693 0-7.318 3.25-7.318 7.013v2.982c0 .37-.165.576-.64.576h-1.923c-.538 0-.848.329-.848.802v3.085c0 .534.331.802.806.802h1.923c.475 0 .64.37.64.802v17.336c0 .473.27.802.848.802h4.114c.537 0 .848-.267.848-.802v-17.377c0-.37.103-.74.744-.74h4.051c.476 0 .807-.268.807-.803v-3.085c0-.473-.31-.802-.848-.802h-4.114c-.475 0-.64-.164-.64-.534v-2.242c0-1.542.806-2.612 2.356-2.612.476 0 1.613.165 2.088.33.972.267 1.385.102 1.55-.638l.641-3.023c.145-.926-.496-1.131-1.033-1.296zM133.966 189.241c-5.87 0-9.984 3.764-9.984 9.296v6.005c0 5.43 4.01 9.028 10.108 9.028 3.68 0 7.153-1.44 9.034-4.73.33-.637-.062-1.008-.703-1.44l-2.625-1.645c-.641-.431-.91-.164-1.282.268-1.013 1.234-2.398 2.509-4.548 2.509-2.46 0-4.113-1.913-4.113-4.196v-.802c0-.473.31-.905 1.075-.905h11.534c.848 0 1.489-.637 1.489-1.583v-2.509c0-5.738-4.217-9.296-9.985-9.296zm3.35 9.502h-6.471c-.703 0-.91-.268-.91-.74.207-2.016 1.716-3.723 4.052-3.723 2.088 0 3.783 1.337 4.052 3.455.082.535-.124 1.008-.724 1.008z"/>
        </g>
    </g>
</svg>
