<svg xmlns="http://www.w3.org/2000/svg" width="107" height="38" viewBox="0 0 107 38">
    <g fill="#4FC0E8" fill-rule="nonzero">
        <path d="M2.824.812C1.242.812.017 2.032.017 3.521c0 1.523 1.276 2.759 2.858 2.759 1.532 0 2.808-1.32 2.808-2.76 0-1.523-1.31-2.708-2.859-2.708zM4.492 8.768H1.055c-.442 0-.664.27-.664.694v18.06c0 .441.273.661.698.661h3.437c.442 0 .663-.17.663-.694V9.48c.017-.49-.289-.71-.697-.71zM26.44 8.514c-1.53 0-2.807.44-4.22 1.439-.22.17-.527.17-.799 0-1.446-.965-3.25-1.49-5.104-1.49-4.186 0-7.997 3.149-7.997 7.262 0 2.404 1.004 4.384 2.416 5.518.306.27.17.474-.085.66-1.446.914-2.416 2.709-2.416 4.063 0 1.54.272 2.454.885 3.283.272.356.578.61 1.412.474 2.16-.304 5.138-.694 7.044-.694 1.752 0 4.305.44 4.305 2.235 0 1.05-1.191 2.048-1.804 2.403-.578.356-.749.745-.442 1.134l1.36 2.049c.307.44.886.27 1.447.05 2.246-.998 4.22-3.453 4.22-5.772 0-4.502-4.577-5.992-9.188-5.992-.885 0-2.859.136-4.356.44-.17.051-.357-.05-.272-.355.357-1.05 1.225-2.099 2.416-2.15h1.055c4.61 0 8.32-3.148 8.32-7.346 0-.965-.221-1.828-.578-2.624-.137-.304.085-.474.306-.524.663-.136 1.667-.136 2.16-.085.58.05.664-.135.664-.576V9.242c0-.474-.17-.728-.748-.728zm-10.106 10.58c-2.059 0-3.3-1.49-3.3-3.149 0-1.71 1.36-3.233 3.521-3.233 1.974 0 3.3 1.49 3.3 3.233-.016 1.71-1.241 3.148-3.521 3.148zM38.793 8.514c-1.531 0-3.522.66-4.492 1.574-.221.271-.442.305-.476 0-.051 0-.051-.609-.051-.66 0-.474-.17-.66-.613-.66h-3.437c-.442 0-.697.22-.697.694v18.06c0 .441.272.661.697.661h3.386c.443 0 .749-.22.749-.694V15.98c0-1.93 1.327-3.318 3.335-3.318 2.416 0 3.437 1.405 3.437 3.369v11.51c0 .44.272.66.697.66h3.437c.391 0 .664-.22.664-.694V15.962c.017-4.384-2.008-7.448-6.636-7.448zM53.494 8.768h-3.437c-.443 0-.664.27-.664.694v18.06c0 .441.272.661.698.661h3.437c.442 0 .663-.17.663-.694V9.48c0-.49-.306-.71-.697-.71zM51.826.812c-1.582 0-2.807 1.22-2.807 2.709 0 1.523 1.276 2.759 2.858 2.759 1.532 0 2.808-1.32 2.808-2.76 0-1.523-1.328-2.708-2.859-2.708zM65.59 24.171h-.476c-1.412 0-1.752-.524-1.752-2.183V.898c0-.39-.272-.576-.613-.576h-3.607c-.357 0-.578.22-.578.609v21.615c0 4.114 1.361 5.993 5.36 5.993.22 0 .97 0 1.497-.085.476-.05.8-.17.8-.796V24.95c-.018-.288-.103-.779-.63-.779zM72.618 8.768H69.18c-.442 0-.664.27-.664.694v18.06c0 .441.273.661.698.661h3.437c.442 0 .663-.17.663-.694V9.48c0-.49-.306-.71-.697-.71zM70.95.812c-1.582 0-2.807 1.22-2.807 2.709 0 1.523 1.276 2.759 2.859 2.759 1.548 0 2.807-1.32 2.807-2.76 0-1.523-1.327-2.708-2.859-2.708zM87.795.542C87.046.27 85.77.068 84.46.068c-3.862 0-6.023 2.674-6.023 5.772v2.454c0 .305-.136.474-.528.474h-1.582c-.442 0-.698.27-.698.66v2.54c0 .44.273.66.664.66h1.582c.392 0 .528.304.528.66v14.269c0 .39.221.66.697.66h3.386c.443 0 .698-.22.698-.66V13.254c0-.305.085-.61.612-.61h3.335c.392 0 .664-.22.664-.66V9.445c0-.39-.255-.66-.698-.66h-3.386c-.391 0-.527-.135-.527-.44V6.5c0-1.27.663-2.15 1.94-2.15.39 0 1.327.136 1.718.271.8.22 1.14.085 1.276-.525l.528-2.488c.119-.762-.409-.93-.851-1.066zM97.918 8.43c-4.832 0-8.218 3.097-8.218 7.65v4.943c0 4.469 3.301 7.43 8.32 7.43 3.03 0 5.888-1.184 7.436-3.892.272-.525-.051-.83-.579-1.185l-2.16-1.354c-.528-.356-.75-.136-1.055.22-.834 1.015-1.974 2.065-3.744 2.065-2.024 0-3.385-1.574-3.385-3.453v-.66c0-.39.255-.745.884-.745h9.494c.698 0 1.225-.525 1.225-1.304V16.08c0-4.722-3.47-7.65-8.218-7.65zm2.757 7.82h-5.326c-.578 0-.748-.22-.748-.61.17-1.658 1.412-3.063 3.334-3.063 1.719 0 3.114 1.1 3.335 2.843.068.44-.102.83-.595.83z"/>
    </g>
</svg>
