<svg xmlns="http://www.w3.org/2000/svg" width="60" height="60" viewBox="0 0 60 60">
    <g fill="none" fill-rule="nonzero">
        <path fill="#4FC0E8" d="M44.88 59.1c-4.476.54-9.552.912-15.12.9a123.94 123.94 0 0 1-14.64-.9c-.947 0-5.987-.096-10.055-4.164A14.216 14.216 0 0 1 .9 44.88a122.885 122.885 0 0 1-.9-15.36c.024-5.28.384-10.104.9-14.4 0-.948.096-5.988 4.164-10.056A14.215 14.215 0 0 1 15.12.9a123.458 123.458 0 0 1 29.758 0c.948 0 5.988.096 10.056 4.164A14.195 14.195 0 0 1 59.1 15.12c.528 4.296.876 9.132.9 14.424.024 5.652-.348 10.8-.9 15.336 0 7.848-6.372 14.22-14.22 14.22z"/>
        <g fill="#FFF" transform="translate(15 10.8)">
            <path d="M29.273 15.727c-.705-1.574-1.673-3.005-2.761-4.329-1.279-1.55-2.725-2.98-4.136-4.375-2.343-2.301-4.721-4.615-7.064-6.916-2.737 2.695-5.439 5.401-8.176 8.096-2.283 2.254-4.375 4.602-5.69 7.571C.634 17.598.131 19.566.06 21.557c-.108 3.183.884 6.367 2.701 8.978 2.869 4.09 7.853 6.641 12.862 6.546 5.008-.084 9.897-2.802 12.598-7.011 2.702-4.209 3.108-9.777 1.052-14.343zM15.3 29.128c-5.439 0-9.837-4.4-9.837-9.813 0-1.263.286-2.408.442-2.909.49-1.681 1.35-3.112 4.434-6.426a91.33 91.33 0 0 1 4.949-4.925 75.994 75.994 0 0 1 4.996 4.925c3.144 3.374 3.969 4.852 4.423 6.45.144.513.43 1.633.43 2.885 0 5.413-4.398 9.813-9.837 9.813z"/>
            <ellipse cx="15.287" cy="18.623" rx="6.18" ry="6.164" transform="rotate(-13.975 15.287 18.623)"/>
        </g>
    </g>
</svg>
