<svg xmlns="http://www.w3.org/2000/svg" width="60" height="60" viewBox="0 0 60 60">
    <g fill="none" fill-rule="nonzero">
        <path fill="#67246B" d="M44.88 59.1c-4.476.54-9.552.912-15.12.9a123.94 123.94 0 0 1-14.64-.9c-.947 0-5.987-.096-10.055-4.164A14.216 14.216 0 0 1 .9 44.88a122.885 122.885 0 0 1-.9-15.36c.024-5.28.384-10.104.9-14.4 0-.948.096-5.988 4.164-10.056A14.215 14.215 0 0 1 15.12.9a123.458 123.458 0 0 1 29.758 0c.948 0 5.988.096 10.056 4.164A14.195 14.195 0 0 1 59.1 15.12c.528 4.296.876 9.132.9 14.424.024 5.652-.348 10.8-.9 15.336 0 7.848-6.372 14.22-14.22 14.22z"/>
        <g fill="#FFF">
            <path d="M43.706 26.876c-.691-1.532-1.647-2.906-2.72-4.192-1.25-1.504-2.677-2.878-4.06-4.237l-6.94-6.694c-2.692 2.617-5.354 5.234-8.03 7.837-2.25 2.183-4.294 4.453-5.588 7.33-.794 1.764-1.294 3.672-1.353 5.595-.103 3.08.867 6.173 2.661 8.689 2.824 3.961 7.706 6.42 12.633 6.333 4.912-.087 9.72-2.719 12.367-6.796 2.633-4.048 3.045-9.455 1.03-13.865zm-8.309 11.35H23.941c-2.853 0-5.162-2.27-5.162-5.075 0-1.547.706-2.92 1.81-3.86.25-4.453 4-7.995 8.587-7.995a8.643 8.643 0 0 1 8.03 5.392c2.323.824 4 3.022 4 5.596-.03 3.195-2.588 5.812-5.809 5.942z"/>
            <path d="M37.265 31.734c0-1.648-1.353-2.978-3.03-2.978h-.132c-.47-2.256-2.5-3.947-4.927-3.947-2.779 0-5.029 2.212-5.029 4.944v.174a2.482 2.482 0 0 0-1.53 2.284c0 1.374 1.118 2.473 2.515 2.487h9.133c1.661 0 3-1.33 3-2.964z"/>
        </g>
    </g>
</svg>
