<svg xmlns="http://www.w3.org/2000/svg" width="60" height="60" viewBox="0 0 60 60">
    <g fill="none" fill-rule="nonzero">
        <path fill="#6CAF19" d="M44.88 59.1c-4.476.54-9.552.912-15.12.9a123.94 123.94 0 0 1-14.64-.9c-.947 0-5.987-.096-10.055-4.164A14.216 14.216 0 0 1 .9 44.88a122.885 122.885 0 0 1-.9-15.36c.024-5.28.384-10.104.9-14.4 0-.948.096-5.988 4.164-10.056A14.215 14.215 0 0 1 15.12.9a123.458 123.458 0 0 1 29.758 0c.948 0 5.988.096 10.056 4.164A14.195 14.195 0 0 1 59.1 15.12c.528 4.296.876 9.132.9 14.424.024 5.652-.348 10.8-.9 15.336 0 7.848-6.372 14.22-14.22 14.22z"/>
        <g fill="#FFF">
            <path d="M43.665 27.594c-.69-1.543-1.631-2.938-2.704-4.231-1.249-1.514-2.659-2.91-4.04-4.276l-6.89-6.758c-2.675 2.644-5.305 5.274-7.979 7.919-2.233 2.204-4.26 4.51-5.553 7.405-.794 1.778-1.279 3.702-1.352 5.656-.103 3.1.852 6.23 2.645 8.772 2.806 4.01 7.654 6.494 12.547 6.405 4.892-.088 9.653-2.747 12.283-6.86 2.63-4.115 3.04-9.58 1.043-14.032zm-4.481 4.687a15.032 15.032 0 0 1-7.508 10.475l-1.646.911-1.645-.91c-3.938-2.175-6.685-6.024-7.508-10.476l-1.16-6.391a43.386 43.386 0 0 1 5.362-3.335 44.311 44.311 0 0 1 4.951-2.204 42.658 42.658 0 0 1 5.054 2.218 43.116 43.116 0 0 1 5.275 3.262c-.397 2.16-.793 4.305-1.175 6.45z"/>
            <path d="M36.128 30.459a6.076 6.076 0 0 0-6.083-6.083 6.076 6.076 0 0 0-6.083 6.083 6.086 6.086 0 0 0 6.039 6.083v2.336s.5-.324.558-.368c.206-.147.426-.293.632-.455a17.016 17.016 0 0 0 1.337-1.131c.735-.69 1.454-1.352 2.145-2.41.529-.793 1.308-1.983 1.41-3.644.045-.205.045-.352.045-.411z"/>
        </g>
    </g>
</svg>
