<svg xmlns="http://www.w3.org/2000/svg" width="143" height="37" viewBox="0 0 143 37">
    <g fill="#67246B" fill-rule="nonzero">
        <path d="M2.946 5.984C1.35 5.984.053 4.764.053 3.233c0-1.479 1.245-2.7 2.84-2.7 1.561 0 2.894 1.17 2.894 2.7 0 1.444-1.298 2.751-2.84 2.751zM.456 9.166c0-.43.228-.705.666-.705h3.455c.403 0 .72.223.72.705V27.1c0 .516-.229.705-.667.705H1.175c-.438 0-.719-.223-.719-.653V9.166zM26.744 12.175c-.491-.052-1.508-.052-2.175.086-.228.052-.438.223-.315.516.35.79.578 1.65.578 2.614 0 4.178-3.735 7.308-8.4 7.308h-1.07c-1.192.052-2.087 1.083-2.437 2.132-.088.31.087.396.263.344 1.508-.31 3.507-.43 4.402-.43 4.664 0 9.277 1.48 9.277 5.968 0 2.304-2 4.746-4.262 5.743-.579.224-1.157.396-1.473-.052l-1.368-2.046c-.316-.395-.14-.79.439-1.135.613-.344 1.823-1.341 1.823-2.39 0-1.789-2.578-2.218-4.349-2.218-1.911 0-4.928.395-7.102.687-.842.138-1.158-.137-1.42-.481-.615-.825-.895-1.737-.895-3.267 0-1.342.982-3.13 2.438-4.041.263-.172.403-.396.087-.654-1.42-1.135-2.437-3.095-2.437-5.486 0-4.092 3.858-7.222 8.084-7.222 1.859 0 3.683.516 5.156 1.479.263.172.579.172.807 0 1.42-.997 2.7-1.445 4.261-1.445.579 0 .754.258.754.74v2.648c0 .464-.087.636-.666.602zm-10.084.206c-2.174 0-3.56 1.53-3.56 3.216 0 1.65 1.245 3.13 3.332 3.13 2.315 0 3.56-1.445 3.56-3.13 0-1.72-1.333-3.216-3.332-3.216zM45.07 27.806h-3.455c-.438 0-.719-.223-.719-.653V15.7c0-1.96-1.017-3.353-3.455-3.353-2.034 0-3.367 1.393-3.367 3.302V27.1c0 .482-.315.705-.754.705H29.9c-.438 0-.719-.223-.719-.653V9.166c0-.482.264-.705.72-.705h3.454c.439 0 .614.172.614.653 0 .052 0 .653.053.653.052.31.263.258.49 0 .983-.91 2.982-1.564 4.525-1.564 4.665 0 6.7 3.043 6.7 7.394v11.487c0 .499-.264.722-.667.722zM52.137 5.984c-1.596 0-2.893-1.22-2.893-2.751 0-1.479 1.245-2.7 2.84-2.7 1.562 0 2.894 1.17 2.894 2.7 0 1.444-1.297 2.751-2.84 2.751zm-2.49 3.182c0-.43.228-.705.666-.705h3.455c.404 0 .72.223.72.705V27.1c0 .516-.229.705-.667.705h-3.455c-.438 0-.719-.223-.719-.653V9.166zM66.342 28.064c-5.068 0-8.435-2.923-8.435-7.446V15.7c0-4.608 3.507-7.583 8.435-7.532 3.332 0 5.682 1.256 7.418 4.041.14.258.176.877-.315 1.135l-2.49 1.393c-.755.43-1.07-.051-1.333-.567a3.932 3.932 0 0 0-3.332-1.91c-2 0-3.508 1.445-3.508 3.303v5.09c0 1.874 1.508 3.215 3.455 3.215 1.28 0 2.613-.567 3.332-1.822.316-.516.614-.998 1.368-.568l2.49 1.341c.491.258.439.912.316 1.17-1.719 2.768-4.121 4.075-7.4 4.075zM81.389 21.616c0 1.65.35 2.184 1.771 2.184h.491c.526 0 .614.481.614.79v2.7c0 .602-.316.74-.807.791-.526.086-1.28.086-1.508.086-4.033 0-5.419-1.874-5.419-5.967V.67c0-.395.228-.601.579-.601h3.648c.35 0 .613.172.613.567v20.98h.018zM94.401 28.064c-5.068 0-8.295-2.785-8.295-7.308v-5.228c0-4.402 3.332-7.394 8.26-7.394 5.016 0 8.295 2.648 8.295 7.394v5.09c0 4.832-3.28 7.446-8.26 7.446zm3.42-12.415c0-2.047-1.245-3.354-3.455-3.354-2.174 0-3.42 1.393-3.42 3.354v4.918c0 1.96 1.158 3.353 3.42 3.353 2.14 0 3.455-1.307 3.455-3.353v-4.918zM121.794 27.806h-3.507c-.404 0-.614-.137-.614-.602v-.481c0-.224-.316-.224-.491-.052-.895.826-2.403 1.445-3.858 1.445-4.612 0-7.418-3.044-7.418-7.446V9.183c0-.43.263-.705.666-.705h3.455c.49 0 .754.223.754.653v11.487c0 1.875 1.333 3.354 3.42 3.354 2.034 0 3.42-1.445 3.42-3.354V9.166c0-.43.227-.705.718-.705h3.42c.438 0 .754.223.754.653v17.987c0 .447-.263.705-.719.705zM141.699 27.806h-3.332c-.439 0-.72-.258-.72-.602v-.343c0-.172-.087-.396-.49-.172-.176.086-.404.258-.667.43-.807.567-2.315.962-3.56.962-5.103 0-7.155-3.215-7.155-7.48V15.65c0-4.23 2.7-7.48 7.453-7.48 1.596 0 2.894.515 3.455.962.526.344.807.224.807-.137V.757c0-.482.263-.705.719-.705h3.42c.438 0 .753.223.753.653v26.43c.018.413-.245.671-.683.671zm-11.066-12.192v4.918c0 1.91 1.105 3.354 3.454 3.354 1.947 0 3.42-1.48 3.42-3.302v-4.935c0-1.875-1.368-3.388-3.42-3.388-2.35 0-3.454 1.479-3.454 3.353z"/>
    </g>
</svg>
