<svg xmlns="http://www.w3.org/2000/svg" width="123" height="37" viewBox="0 0 123 37">
    <g fill="#6CAF19" fill-rule="nonzero">
        <path d="M2.897 5.52C1.337 5.52.07 4.303.07 2.777.069 1.303 1.286.07 2.863.07 4.389.069 5.69 1.25 5.69 2.777c0 1.44-1.268 2.743-2.794 2.743zM.463 8.691c0-.428.223-.702.651-.702H4.51c.394 0 .702.222.702.702V26.64c0 .531-.222.703-.651.703H1.166c-.429 0-.703-.223-.703-.652v-18zM26.263 11.709c-.48-.052-1.474-.052-2.143.085-.223.052-.429.223-.309.515a6.51 6.51 0 0 1 .566 2.605c0 4.183-3.651 7.32-8.228 7.32h-1.046c-1.183.052-2.04 1.097-2.4 2.143-.086.309.086.394.257.343 1.474-.309 3.446-.429 4.32-.429 4.577 0 9.103 1.475 9.103 5.966 0 2.314-1.954 4.749-4.183 5.743-.566.223-1.131.394-1.44-.051l-1.354-2.04c-.309-.395-.137-.789.428-1.132.617-.343 1.783-1.354 1.783-2.4 0-1.783-2.52-2.228-4.268-2.228-1.869 0-4.835.394-6.978.702-.822.138-1.131-.137-1.388-.48-.617-.822-.874-1.748-.874-3.274 0-1.354.96-3.137 2.4-4.046.257-.171.394-.394.085-.651-1.388-1.131-2.4-3.086-2.4-5.486 0-4.097 3.789-7.234 7.92-7.234 1.835 0 3.617.514 5.057 1.474.258.172.566.172.789 0 1.389-.994 2.657-1.44 4.183-1.44.566 0 .737.257.737.737v2.692c.034.428-.051.6-.617.566zm-9.892.205c-2.142 0-3.48 1.526-3.48 3.223 0 1.663 1.218 3.137 3.275 3.137 2.263 0 3.48-1.44 3.48-3.137-.017-1.731-1.32-3.223-3.275-3.223zM44.246 27.343H40.85c-.428 0-.702-.223-.702-.652V15.24c0-1.954-.995-3.36-3.395-3.36-2.005 0-3.308 1.389-3.308 3.309V26.64c0 .48-.309.703-.737.703h-3.36c-.429 0-.703-.223-.703-.652v-18c0-.48.257-.702.703-.702h3.394c.428 0 .617.171.617.651 0 .051 0 .651.051.651.052.309.258.258.48 0 .96-.908 2.915-1.56 4.44-1.56 4.578 0 6.583 3.052 6.583 7.406V26.64c-.017.48-.274.703-.668.703zM51.171 5.52c-1.56 0-2.828-1.217-2.828-2.743 0-1.474 1.217-2.708 2.794-2.708 1.526 0 2.829 1.182 2.829 2.708 0 1.44-1.269 2.743-2.795 2.743zm-2.434 3.171c0-.428.223-.702.652-.702h3.394c.394 0 .703.222.703.702V26.64c0 .531-.223.703-.652.703H49.44c-.429 0-.703-.223-.703-.652v-18zM65.109 27.6c-4.972 0-8.28-2.914-8.28-7.457v-4.92c0-4.612 3.445-7.577 8.28-7.543 3.274 0 5.571 1.269 7.268 4.046.137.257.172.874-.308 1.131l-2.435 1.389c-.737.428-1.045-.052-1.303-.566a3.815 3.815 0 0 0-3.274-1.92c-1.954 0-3.446 1.44-3.446 3.309v5.091c0 1.869 1.475 3.223 3.395 3.223 1.268 0 2.571-.566 3.274-1.834.309-.532.617-.995 1.354-.566l2.435 1.354c.48.257.428.909.308 1.183-1.697 2.777-4.046 4.08-7.268 4.08zM89.726 27.343H86.33c-.308 0-.48-.172-.48-.48v-.343c0-.394-.222-.48-.617-.171-.788.617-2.091 1.268-3.925 1.268-4.44 0-7.183-2.52-7.183-6.754 0-4.046 2.794-6.789 7.457-6.789a6.59 6.59 0 0 1 3.36.909c.308.171.617.171.617-.257v-.515c0-1.748-.994-2.605-3.36-2.605-1.217 0-3.36.48-4.577.96-.429.171-.823 0-.96-.395l-.789-2.228c-.171-.394.052-.737.343-.874 1.954-.909 4.217-1.389 6.412-1.389 5.571 0 7.662 2.794 7.662 7.234V26.76c0 .411-.137.583-.565.583zm-7.852-9.754c-2.228 0-3.36 1.388-3.36 3.188 0 1.783 1.183 3.223 3.309 3.223 2.314 0 3.36-1.56 3.36-3.223-.034-1.748-1.217-3.188-3.309-3.188zM104.966 11.829c-.137.651-.343.702-.823.651-.514-.137-1.046-.223-1.44-.223-2.914 0-3.84 1.954-3.84 4.663v9.72c0 .48-.309.703-.737.703h-3.36c-.429 0-.703-.223-.703-.652v-18c0-.428.257-.702.703-.702h2.965c.395 0 .703.222.703.651v1.354c0 .343.257.48.48.172.909-1.269 2.606-2.52 4.697-2.52.48 0 1.132.051 1.56.223.618.171.652.48.532.908l-.737 3.052zM121.526 18.634h-9.412c-.617 0-.874.343-.874.737v.652c0 1.868 1.354 3.446 3.36 3.446 1.749 0 2.88-1.046 3.703-2.04.308-.343.514-.566 1.046-.223l2.142 1.354c.515.343.823.651.566 1.183-1.526 2.708-4.354 3.874-7.354 3.874-4.972 0-8.229-2.966-8.229-7.406v-4.92c0-4.525 3.36-7.628 8.143-7.628 4.697 0 8.143 2.914 8.143 7.628v2.023c-.017.789-.531 1.32-1.234 1.32zm-10.2-3.788c0 .394.171.617.737.617h5.263c.48 0 .651-.394.617-.823-.223-1.749-1.612-2.829-3.309-2.829-1.903-.017-3.137 1.372-3.308 3.035z"/>
    </g>
</svg>
