<svg xmlns="http://www.w3.org/2000/svg" width="80" height="96" viewBox="0 0 80 96">
    <path fill="#4FC0E8" fill-rule="nonzero" d="M40 64.39c9.16 0 16.585-7.425 16.585-16.585S49.16 31.22 40 31.22s-16.585 7.425-16.585 16.585S30.84 64.39 40 64.39zm28.224-36.718C61.309 20.628 39.92-.085 40.008 0c.087-.085-22.08 21.756-28.216 27.68C5.657 33.603 0 42.812 0 56.48c0 21.61 17.909 39.13 40 39.13s40-17.52 40-39.13c0-13.707-4.878-21.795-11.784-28.8l.008-.008zm-28.001 47.38C25.96 75.088 14.37 63.808 14.33 49.857c0-8.82 3.071-14.128 7.638-18.565L40.231 13.81l18.3 17.482c4.568 4.445 7.632 9.746 7.632 18.565-.02 6.708-2.764 13.133-7.63 17.86-4.866 4.726-11.453 7.365-18.31 7.337z"/>
</svg>
