<svg xmlns="http://www.w3.org/2000/svg" width="40" height="40" viewBox="0 0 40 40">
    <path fill="#FFF" fill-rule="nonzero" d="M19.858 39.718C8.89 39.718 0 30.905 0 20.034 0 9.164 8.89.351 19.858.351c10.967 0 19.857 8.812 19.857 19.683 0 10.87-8.89 19.684-19.857 19.684zm11.864-18.1c0-4.346-2.34-6.368-5.464-6.368-2.522 0-3.647 1.375-4.277 2.337v.047h-.032c.009-.015.022-.03.032-.047v-2.005h-4.748c.064 1.327 0 14.15 0 14.15h4.747V21.83c0-.424.032-.844.157-1.146.344-.847 1.124-1.72 2.435-1.72 1.719 0 2.404 1.298 2.404 3.199v7.571h4.746v-8.115zM12.268 8.76c-1.624 0-2.686 1.057-2.686 2.445 0 1.358 1.031 2.445 2.623 2.445h.031c1.656 0 2.685-1.087 2.685-2.445-.031-1.388-1.03-2.445-2.653-2.445zM9.864 29.733h4.745v-14.15H9.864v14.15z"/>
</svg>
