<svg xmlns="http://www.w3.org/2000/svg" width="40" height="40" viewBox="0 0 40 40">
    <path fill="#FFF" fill-rule="nonzero" d="M19.858 39.715C8.891 39.715 0 30.825 0 19.858 0 8.89 8.89 0 19.858 0c10.967 0 19.858 8.89 19.858 19.858 0 10.967-8.89 19.857-19.858 19.857zm12.164-25.444a9.47 9.47 0 0 1-2.727.747 4.76 4.76 0 0 0 2.088-2.626 9.502 9.502 0 0 1-3.015 1.152 4.747 4.747 0 0 0-8.088 4.33 13.474 13.474 0 0 1-9.784-4.96 4.746 4.746 0 0 0 1.469 6.337 4.713 4.713 0 0 1-2.15-.594v.06a4.75 4.75 0 0 0 3.808 4.654 4.73 4.73 0 0 1-2.144.082 4.752 4.752 0 0 0 4.434 3.296 9.524 9.524 0 0 1-5.895 2.032c-.383 0-.761-.022-1.132-.067a13.426 13.426 0 0 0 7.275 2.133c8.731 0 13.506-7.232 13.506-13.505 0-.206-.005-.411-.014-.614a9.625 9.625 0 0 0 2.369-2.457z"/>
</svg>
