<svg xmlns="http://www.w3.org/2000/svg" width="40" height="40" viewBox="0 0 40 40">
    <path fill="#FFF" fill-rule="nonzero" d="M19.953 0c11.02 0 19.954 8.934 19.954 19.953 0 11.021-8.933 19.954-19.954 19.954C8.933 39.907 0 30.974 0 19.953 0 8.934 8.933 0 19.953 0zM8.772 16.216l.974 1.342s1.377-1.093 1.864-1.012c1.257.33 2.332 5.484 2.88 7.449.546 1.966 1.215 5.94 3.91 5.94 4.36 0 11.574-10.905 11.574-14.464 0-2.339-.65-4.243-3.346-4.243-2.695 0-4.803 1.76-5.716 5.07.993-.476 2.799-.724 2.939.931.142 1.655-2.351 5.939-3.446 5.939-1.093 0-1.904-4.843-2.19-7.056-.282-2.214-.79-4.654-2.856-4.654-2.069 0-4.721 3.27-6.587 4.758z"/>
</svg>
