<svg xmlns="http://www.w3.org/2000/svg" width="50" height="50" viewBox="0 0 50 50">
    <path fill="#FFF" fill-rule="nonzero" d="M25 48.5c12.979 0 23.5-10.521 23.5-23.5S37.979 1.5 25 1.5 1.5 12.021 1.5 25 12.021 48.5 25 48.5zm-7.971-17.667l-2.405.99a2.083 2.083 0 0 0 0 3.853l7.251 2.986a8.75 8.75 0 0 0 6.663 0l7.251-2.986a2.083 2.083 0 0 0 0-3.852l-2.405-.99 2.405-.99a2.083 2.083 0 0 0 0-3.854L33.384 25l2.405-.99a2.083 2.083 0 0 0 0-3.853l-4.946-2.037a6.25 6.25 0 1 0-11.273 0l-4.946 2.037a2.083 2.083 0 0 0 0 3.853l2.405.99-2.405.99a2.083 2.083 0 0 0 0 3.853l2.405.99zm1.094.45l3.752 1.546a8.75 8.75 0 0 0 6.663 0l3.752-1.545 3.182 1.31a1.25 1.25 0 0 1 0 2.312l-7.251 2.986a7.917 7.917 0 0 1-6.029 0l-7.25-2.986a1.25 1.25 0 0 1 0-2.312l3.165-1.303a.424.424 0 0 0 .016-.007zm14.18-5.838a.418.418 0 0 0 .081.045l3.088 1.27a1.25 1.25 0 0 1 0 2.313l-7.251 2.985a7.917 7.917 0 0 1-6.029 0l-7.25-2.985a1.25 1.25 0 0 1 0-2.312l3.127-1.288a.42.42 0 0 0 .05-.024l3.756 1.546a8.75 8.75 0 0 0 6.663 0l3.765-1.55zm-12.32-6.595a6.244 6.244 0 0 0 5.224 2.817 6.244 6.244 0 0 0 5.222-2.816l5.043 2.076a1.25 1.25 0 0 1 0 2.312l-7.251 2.986a7.917 7.917 0 0 1-6.029 0l-7.25-2.986a1.25 1.25 0 0 1 0-2.312l5.012-2.064a.423.423 0 0 0 .03-.013zM25 50C11.193 50 0 38.807 0 25S11.193 0 25 0s25 11.193 25 25-11.193 25-25 25zm.207-29.167a5.417 5.417 0 1 1 0-10.833 5.417 5.417 0 0 1 0 10.833zm2.276-6.907l-2.896 3.045-1.576-1.69a.417.417 0 1 0-.61.568l1.878 2.014a.417.417 0 0 0 .606.003l3.202-3.365a.417.417 0 1 0-.604-.575z"/>
</svg>
