<svg xmlns="http://www.w3.org/2000/svg" width="50" height="50" viewBox="0 0 50 50">
    <path fill="#FFF" fill-rule="nonzero" d="M25 48.5c12.979 0 23.5-10.521 23.5-23.5S37.979 1.5 25 1.5 1.5 12.021 1.5 25 12.021 48.5 25 48.5zm0 1.5C11.193 50 0 38.807 0 25S11.193 0 25 0s25 11.193 25 25-11.193 25-25 25zm2.033-10.151c.672-.234 1.001-.886 2.144-3.988l.585-.242c2.15.922 3.305 1.345 3.782 1.345l.305-.008a.75.75 0 0 0 .509-.22l2.288-2.285.076-.08c.636-.694.49-1.256-1.086-4.657l.232-.566c3.15-1.247 3.784-1.587 3.994-2.28.048-.155.055-.252.055-.443v-2.977c0-.22-.01-.333-.076-.51-.244-.666-.91-1-3.991-2.126l-.235-.57c1.541-3.567 1.645-4.064.945-4.784l-2.12-2.114-.25-.217a.75.75 0 0 0-.488-.182h-.245c-.458 0-1.332.31-3.74 1.418l-.584-.24c-1.254-3.16-1.587-3.782-2.279-3.988a1.292 1.292 0 0 0-.43-.052h-2.98c-.192 0-.29.008-.449.058-.693.219-1.034.888-2.177 4l-.58.24c-2.143-.917-3.308-1.343-3.788-1.343l-.305.01a.75.75 0 0 0-.507.219l-2.27 2.272c-.749.718-.634 1.24.993 4.747l-.233.566c-3.138 1.242-3.755 1.569-3.98 2.24a1.288 1.288 0 0 0-.065.48v2.98c0 .216.01.328.073.503.249.692.95 1.027 4.299 2.251a.75.75 0 0 0 .656-.069l8.223-5.153a.75.75 0 0 0 .126-1.172l-1.06-1.036 7.144-1.326-.891 6.581-.915-.789a.75.75 0 0 0-1.107.142l-5.809 8.396a.75.75 0 0 0-.08.702c1.35 3.415 1.684 4.07 2.397 4.283.151.045.246.052.432.052h2.978c.208 0 .315-.01.484-.068zm-4.748-4.446l5.105-7.38 1.331 1.147a.75.75 0 0 0 1.233-.468l1.216-8.978a.75.75 0 0 0-.88-.838l-9.586 1.78a.75.75 0 0 0-.387 1.274l1.413 1.38-7.104 4.45c-2.257-.832-3.034-1.2-3.043-1.218 0-2.014-.004-3.008-.013-2.982.02-.017.854-.434 3.405-1.44a.75.75 0 0 0 .417-.411l.481-1.164a.75.75 0 0 0-.013-.603c-.85-1.826-1.251-2.778-1.381-3.261l-.03-.114 2.038-2.038c.212.023 1.493.502 3.45 1.346a.75.75 0 0 0 .584.004l1.175-.488a.75.75 0 0 0 .418-.435c.934-2.558 1.34-3.397 1.331-3.383 2.01 0 3.004-.003 2.98-.01-.007-.003.412.82 1.43 3.397a.75.75 0 0 0 .413.418l1.18.486a.75.75 0 0 0 .601-.013c2.285-1.057 3.151-1.382 3.377-1.413l2.05 2.046c-.013.01-.031.043-.052.124-.125.493-.505 1.458-1.312 3.32a.75.75 0 0 0-.005.584l.483 1.168a.75.75 0 0 0 .436.418c2.524.918 3.38 1.32 3.39 1.341v2.988c-.103.052-.98.48-3.396 1.433a.75.75 0 0 0-.419.414l-.477 1.164a.75.75 0 0 0 .014.6c.803 1.728 1.202 2.666 1.357 3.175.027.09.044.158.054.204l-2.04 2.037c-.207-.022-1.483-.502-3.444-1.347a.75.75 0 0 0-.583-.005L28.3 34.6a.75.75 0 0 0-.418.435c-.865 2.36-1.274 3.258-1.334 3.382-2.01 0-3.004.003-2.98.01.006.002-.372-.74-1.283-3.024z"/>
</svg>
