<svg xmlns="http://www.w3.org/2000/svg" width="50" height="50" viewBox="0 0 50 50">
    <path fill="#FFF" fill-rule="nonzero" d="M25 48.5c12.979 0 23.5-10.521 23.5-23.5S37.979 1.5 25 1.5 1.5 12.021 1.5 25 12.021 48.5 25 48.5zm-8.808-13.934a5.418 5.418 0 0 0 7.028-8.203 5.417 5.417 0 0 0-8.203 7.028.845.845 0 0 0-.047.043l-2.357 2.357a.833.833 0 0 0 1.179 1.179l2.357-2.357a.845.845 0 0 0 .043-.047zM25 50C11.193 50 0 38.807 0 25S11.193 0 25 0s25 11.193 25 25-11.193 25-25 25zm2.833-35a2 2 0 0 0-2 2v4.333a2 2 0 0 0 2 2h4.334a2 2 0 0 0 2-2V17a2 2 0 0 0-2-2h-4.334zm0 10a2 2 0 0 0-2 2v4.333a2 2 0 0 0 2 2h4.334a2 2 0 0 0 2-2V27a2 2 0 0 0-2-2h-4.334zm-10-10a2 2 0 0 0-2 2v4.333a2 2 0 0 0 2 2h4.334a2 2 0 0 0 2-2V17a2 2 0 0 0-2-2h-4.334zm10 1.5h4.334a.5.5 0 0 1 .5.5v4.333a.5.5 0 0 1-.5.5h-4.334a.5.5 0 0 1-.5-.5V17a.5.5 0 0 1 .5-.5zm0 10h4.334a.5.5 0 0 1 .5.5v4.333a.5.5 0 0 1-.5.5h-4.334a.5.5 0 0 1-.5-.5V27a.5.5 0 0 1 .5-.5zm-10-10h4.334a.5.5 0 0 1 .5.5v4.333a.5.5 0 0 1-.5.5h-4.334a.5.5 0 0 1-.5-.5V17a.5.5 0 0 1 .5-.5zm4.503 10.747a4.167 4.167 0 1 1-5.892 5.893 4.167 4.167 0 0 1 5.892-5.893z"/>
</svg>
