<svg xmlns="http://www.w3.org/2000/svg" width="50" height="50" viewBox="0 0 50 50">
    <path fill="#FFF" fill-rule="nonzero" d="M25 48.5c12.979 0 23.5-10.521 23.5-23.5S37.979 1.5 25 1.5 1.5 12.021 1.5 25 12.021 48.5 25 48.5zm0 1.5C11.193 50 0 38.807 0 25S11.193 0 25 0s25 11.193 25 25-11.193 25-25 25zm-6.141-26.414c-.651.65-.651 1.706 0 2.357l4.714 4.714c.65.65 1.706.65 2.357 0l4.714-4.714c.65-.65.65-1.706 0-2.357l-4.714-4.714a1.667 1.667 0 0 0-2.357 0l-4.714 4.714zm.884.884l4.714-4.714a.417.417 0 0 1 .589 0l4.714 4.714a.417.417 0 0 1 0 .59l-4.714 4.713a.417.417 0 0 1-.59 0l-4.713-4.714a.417.417 0 0 1 0-.59zm12.06-2.384l.691-.691.767.767c.21.21.478.35.77.403a1.439 1.439 0 0 0 1.674-1.17l1.239-7.148a1.45 1.45 0 0 0-1.675-1.675L28.12 13.81c-.292.05-.562.19-.771.4a1.445 1.445 0 0 0 .003 2.043l.768.768-.691.69a.625.625 0 1 0 .884.885l1.575-1.575-1.652-1.651a.195.195 0 0 1-.003-.276.189.189 0 0 1 .1-.052l7.148-1.24a.2.2 0 0 1 .23.23l-1.239 7.148a.189.189 0 0 1-.221.153.201.201 0 0 1-.107-.056l-1.651-1.65-1.575 1.574a.625.625 0 1 0 .884.884zm-13.859 5.3l-.69.69-.768-.767c-.21-.21-.478-.35-.77-.402a1.439 1.439 0 0 0-1.673 1.17l-1.24 7.147a1.45 1.45 0 0 0 1.675 1.675l7.148-1.239c.292-.05.562-.19.772-.4a1.445 1.445 0 0 0-.004-2.043l-.767-.767.69-.691a.625.625 0 1 0-.883-.884l-1.575 1.575 1.651 1.65a.195.195 0 0 1 .004.276.189.189 0 0 1-.102.053l-7.147 1.239a.2.2 0 0 1-.23-.23l1.24-7.147a.189.189 0 0 1 .22-.154c.04.007.078.027.107.056l1.651 1.651 1.575-1.575a.625.625 0 0 0-.884-.884zm4.374-9.429l-.691-.69.767-.768c.21-.21.35-.478.402-.77a1.439 1.439 0 0 0-1.17-1.673l-7.147-1.24a1.45 1.45 0 0 0-1.675 1.675l1.239 7.148c.05.293.19.562.4.772.564.564 1.478.56 2.043-.004l.767-.767.691.69a.625.625 0 1 0 .884-.883l-1.575-1.575-1.65 1.651a.195.195 0 0 1-.276.004.189.189 0 0 1-.053-.101l-1.239-7.148a.2.2 0 0 1 .23-.23l7.147 1.24a.189.189 0 0 1 .154.22.201.201 0 0 1-.056.107l-1.651 1.651 1.575 1.575a.625.625 0 0 0 .884-.884zm5.104 13.664l.69.691-.766.767c-.21.21-.35.478-.403.77a1.439 1.439 0 0 0 1.17 1.674l7.148 1.239a1.45 1.45 0 0 0 1.675-1.675l-1.239-7.148a1.439 1.439 0 0 0-.4-.771 1.445 1.445 0 0 0-2.043.003l-.768.768-.69-.691a.625.625 0 1 0-.885.884l1.575 1.575 1.651-1.652a.195.195 0 0 1 .276-.003.189.189 0 0 1 .052.101l1.24 7.147a.2.2 0 0 1-.23.23l-7.148-1.239a.189.189 0 0 1-.153-.221.201.201 0 0 1 .056-.107l1.65-1.65-1.574-1.576a.625.625 0 1 0-.884.884z"/>
</svg>
