<svg xmlns="http://www.w3.org/2000/svg" xmlns:xlink="http://www.w3.org/1999/xlink" width="1440" height="1460" viewBox="0 0 1440 1460">
    <defs>
        <linearGradient id="b" x1="50%" x2="50%" y1="47.356%" y2="0%">
            <stop offset="0%" stop-color="#4FC0E8"/>
            <stop offset="100%" stop-color="#3AA9D5"/>
        </linearGradient>
        <path id="a" d="M0 0h1440v1498H0z"/>
    </defs>
    <g fill="none" fill-rule="evenodd">
        <mask id="c" fill="#fff">
            <use xlink:href="#a"/>
        </mask>
        <use fill="url(#b)" transform="matrix(1 0 0 -1 0 1498)" xlink:href="#a"/>
        <g fill="#FFF" fill-rule="nonzero" mask="url(#c)" opacity=".1">
            <path d="M1497.783 0l-173.856 173.895c-5.486 6.222-5.19 15.637.674 21.503 5.865 5.866 15.278 6.161 21.498.674L1520 22.178V0h-22.217zM115.41 1398.846c-6.11-6.08-15.983-6.08-22.093 0L-80 1572.185v22.1h22.093l173.317-173.283a15.662 15.662 0 0 0 0-22.156zM-18.685 58.833L40 0H-5.95l-35.705 35.805c-5.67 6.448-5.365 16.205.698 22.283 6.063 6.079 15.795 6.385 22.226.7l.046.045zM381.925 12.283a16.175 16.175 0 0 0 23.116 0L417.143 0H377.15c-.142 4.59 1.586 9.036 4.774 12.283zM438.248 252.593L583.224 107.64a15.795 15.795 0 0 0-6.677-27.183 15.79 15.79 0 0 0-15.612 4.891L416.06 230.246a15.795 15.795 0 0 0 0 22.347c6.152 6.066 16.035 6.066 22.188 0z" opacity=".4"/>
            <path d="M101.789 1113.401c-6.195 6.462-6.195 16.902 0 23.363l94.29 97.832c6.223 6.44 16.295 6.44 22.518 0l35.127-36.446 35.69 37.03c6.227 6.427 16.29 6.427 22.517 0 .09-.105.169-.21.259-.304.103-.087.2-.181.293-.28l94.29-97.832c6.207-6.456 6.207-16.906 0-23.363-6.222-6.44-16.294-6.44-22.517 0l-83.561 86.7-35.69-37.019a15.759 15.759 0 0 0-3.175-2.546 15.033 15.033 0 0 0-3.558-1.612 15.04 15.04 0 0 0-3.017-.608 13.308 13.308 0 0 0-1.531-.082 13.449 13.449 0 0 0-1.531.082c-3.687.36-7.136 2.046-9.75 4.766l-35.127 36.458-83.01-86.127c-6.222-6.437-16.289-6.442-22.517-.012z" opacity=".2"/>
            <path d="M403.89 104.357L508.572 0h-44.999l-82.175 81.922c-5.82 6.243-5.648 15.957.39 21.991 6.038 6.035 15.781 6.23 22.059.444h.045zM801.15 58.247c6.286 6.147 16.442 6.147 22.728 0a15.64 15.64 0 0 0 0-22.342L787.446 0h-38.875c.004 4.191 1.7 8.21 4.716 11.171l47.864 47.076z" opacity=".4"/>
            <path d="M1041.123 84.712l-47.856 47.865c-6.26 6.284-6.26 16.448 0 22.733 6.288 6.253 16.447 6.253 22.735 0l47.879-47.876c6.254-6.288 6.254-16.446 0-22.733-6.291-6.272-16.473-6.267-22.758.011z" opacity=".3"/>
            <path d="M1412.053 176.737l-282.231 282.292c-5.686 6.314-5.44 15.973.559 21.99 5.999 6.015 15.654 6.285 21.98.613l282.231-282.248a15.977 15.977 0 0 0-6.752-27.494 15.966 15.966 0 0 0-15.786 4.948v-.101z" opacity=".6"/>
            <path d="M941.855 176.836a15.703 15.703 0 0 0 0 22.432l48.102 47.308.114.101.114.123c6.317 6.171 16.523 6.171 22.84 0l141.495-138.986c4.518-3.913 6.45-9.967 5.012-15.712-1.437-5.745-6.004-10.231-11.854-11.643-5.85-1.411-12.014.486-15.998 4.923l-130.052 127.67-36.875-36.216c-3.036-2.984-7.154-4.661-11.449-4.661s-8.413 1.677-11.449 4.66z" opacity=".4"/>
            <path d="M916.4 220.464a15.994 15.994 0 0 0-13.564-4.52 15.946 15.946 0 0 0-11.748 8.12l-91.703 91.259a15.843 15.843 0 0 0-4.6 15.58c1.449 5.64 5.881 10.04 11.552 11.468a16.02 16.02 0 0 0 15.644-4.617l83.566-83.162 82.72 82.32c6.234 6.171 16.306 6.171 22.54 0a16.312 16.312 0 0 0 2.04-2.49l137.447-136.59c5.576-6.293 5.276-15.816-.686-21.749-5.961-5.932-15.53-6.231-21.854-.682L999.357 303.009l-82.495-82.096-.462-.449z" opacity=".4"/>
            <path d="M188.15 572.504a15.707 15.707 0 0 0 22.289 0l46.94-47.349c.146-.146.268-.303.413-.46.145-.158.312-.27.457-.416 6.144-6.214 6.144-16.27 0-22.483L129.495 371.823l35.763-36.074a16 16 0 0 0 4.631-11.27 16 16 0 0 0-4.63-11.269 15.707 15.707 0 0 0-22.29 0L96.027 360.56c-6.131 6.218-6.131 16.265 0 22.483l128.755 129.973-36.633 36.95c-6.163 6.227-6.163 16.312 0 22.54z" opacity=".3"/>
            <path d="M756.229 199.489c6.386 5.408 15.945 5.065 21.912-.786 5.966-5.85 6.315-15.225.8-21.487l-47.832-46.897c-6.277-6.14-16.437-6.14-22.713 0a2.57 2.57 0 0 0-.239.256l-.26.223-270.658 265.376-36.442-35.738-.216-.189-.193-.2c-6.277-6.14-16.436-6.14-22.713 0l-47.822 46.896a15.571 15.571 0 0 0 .564 21.723c6.045 5.943 15.775 6.21 22.15.606l36.442-35.77 36.851 36.138a15.975 15.975 0 0 0 3.93 2.84c.753.384 1.535.711 2.339.98 5.796 1.914 12.198.442 16.523-3.798L719.786 163.74l36.443 35.749zM704.773 312.537L388.303 629.88l-34.582-34.662a15.977 15.977 0 0 0-15.82-4.97 16.025 16.025 0 0 0-11.724 11.754 16.073 16.073 0 0 0 4.957 15.864l45.886 46.009c6.256 6.262 16.387 6.262 22.644 0L727.428 335.23c5.588-6.354 5.288-15.969-.687-21.959-5.974-5.99-15.563-6.292-21.9-.689l-.068-.045z" opacity=".4"/>
            <path d="M381.856 583.756c6.29 6.42 16.441 6.42 22.73 0l47.858-49.196c6.265-6.455 6.265-16.904 0-23.36l-47.801-49.242c-6.289-6.42-16.44-6.42-22.73 0-6.247 6.463-6.247 16.896 0 23.36l36.481 37.48-36.48 37.482c-3.044 3.102-4.76 7.321-4.771 11.726-.01 4.405 1.685 8.633 4.713 11.75z" opacity=".3"/>
            <path d="M239.016 781.904c-6.307 6.338-6.307 16.578 0 22.917l48.283 48.263c6.432 5.67 16.165 5.365 22.23-.697 6.063-6.061 6.368-15.79.696-22.22l-48.237-48.263a16.235 16.235 0 0 0-22.972 0z" opacity=".2"/>
            <path d="M193.26 1046.606c6.269 6.43 16.415 6.43 22.683 0l47.769-49.116.08-.093.09-.093c6.253-6.447 6.253-16.881 0-23.328l-47.69-49.139c-6.282-6.45-16.456-6.45-22.738 0-6.234 6.455-6.234 16.873 0 23.328l36.405 37.428-36.598 37.686c-6.253 6.446-6.253 16.88 0 23.327z"/>
            <path d="M147.444 1073.535c-6.116 6.266-6.116 16.39 0 22.655l46.817 47.698a15.532 15.532 0 0 0 22.23 0l35.958-36.632 35.67 36.349a15.537 15.537 0 0 0 21.554-.69c5.88-5.991 6.175-15.609.676-21.964l-46.807-47.71a15.564 15.564 0 0 0-22.23 0l-.133.159c-.051.042-.1.087-.145.135l-35.635 36.349-35.68-36.349c-2.953-3.013-6.96-4.706-11.138-4.706s-8.185 1.693-11.137 4.706z" opacity=".2"/>
            <path d="M288.024 1334.66a17.634 17.634 0 0 0 23.906.136l187.048-188.247c5.463-6.367 5.117-15.898-.793-21.846a15.877 15.877 0 0 0-21.706-.8l-176.384 177.469-36.899-37.093a15.89 15.89 0 0 0-11.278-4.705 15.89 15.89 0 0 0-11.278 4.705l-47.417 47.68c-6.202 6.257-6.202 16.386 0 22.644l80.998 81.522-36.877 37.103c-5.66 6.355-5.39 16.056.613 22.084a15.878 15.878 0 0 0 21.943.561l47.372-47.69c6.174-6.911 6.15-17.404-.056-24.286l-80.165-80.684 24.828-25 36.145 36.447z"/>
            <path d="M589.62 833.236a15.782 15.782 0 0 0-22.402 0L343.19 1058.847l-36.114-36.436a15.816 15.816 0 0 0-22.458 0c-6.157 6.242-6.157 16.319 0 22.561l47.18 47.503a15.778 15.778 0 0 0 19.233 2.47 15.407 15.407 0 0 0 3.976-2.921l234.614-236.16a16.03 16.03 0 0 0 4.665-11.314 16.03 16.03 0 0 0-4.665-11.314z" opacity=".7"/>
            <path d="M219.034 836.12c-6.163-3.263-13.692-2.096-18.62 2.886l-47.217 48.04c-6.168 6.309-6.168 16.502 0 22.81a15.714 15.714 0 0 0 22.42 0l35.973-36.6 125.553 127.742a15.681 15.681 0 0 0 22.42 0l47.216-48.028c6.2-6.318 6.2-16.55 0-22.868a15.715 15.715 0 0 0-22.476 0l-35.973 36.611-125.552-127.741a15.809 15.809 0 0 0-3.744-2.852z" opacity=".4"/>
            <path d="M-41.052 1092.48c6.202 6.217 16.242 6.217 22.444 0l93.4-93.873a15.654 15.654 0 0 0 3.042-4.309c3.346-6.216 2.233-13.903-2.738-18.903l-36.034-36.204L309.208 667.69a16.034 16.034 0 0 0 4.581-15.668c-1.443-5.672-5.856-10.096-11.503-11.533a15.85 15.85 0 0 0-15.578 4.643L5.328 927.912c-6.186 6.234-6.186 16.324 0 22.557l36.169 36.352-82.549 83.056a16.012 16.012 0 0 0-4.662 11.301c0 4.24 1.677 8.306 4.662 11.301z" opacity=".6"/>
            <path d="M730.027 227.765a15.883 15.883 0 0 0-22.523 0c-6.196 6.27-6.196 16.4 0 22.67l47.432 47.745a15.894 15.894 0 0 0 22.523 0l.056-.057v-.057l234.976-236.432c6.202-6.268 6.202-16.403 0-22.67a15.894 15.894 0 0 0-22.522 0L766.164 264.14l-36.137-36.375zM663.595 273.898L478.248 459.36c-5.535 6.281-5.237 15.786.681 21.708 5.918 5.922 15.417 6.22 21.695.681L686.06 296.332a15.869 15.869 0 0 0 4.91-15.682 15.858 15.858 0 0 0-11.613-11.62 15.847 15.847 0 0 0-15.672 4.913l-.09-.045z" opacity=".4"/>
            <path d="M22.342 857.55l328.996-328.64a15.845 15.845 0 0 0 2.265-2.896c6.227-6.262 6.227-16.37 0-22.632l-82.348-82.257 84.07-83.976c6.233-6.26 6.233-16.373 0-22.632l-47.716-47.652c-6.357-5.599-15.976-5.297-21.968.689-5.993 5.986-6.295 15.594-.69 21.943l36.388 36.347-84.07 83.977c-6.264 6.268-6.264 16.42 0 22.688l82.7 82.607L-.373 834.862a16.035 16.035 0 0 0-4.87 15.806A16.055 16.055 0 0 0 6.45 862.376a16.075 16.075 0 0 0 15.835-4.825h.057z" opacity=".3"/>
            <path d="M263.742 313.206c-.09-.102-.203-.182-.293-.273l-.27-.307-36.148-36.504 36.137-36.493c4.455-3.967 6.36-10.105 4.942-15.93-1.417-5.825-5.92-10.374-11.69-11.805-5.768-1.43-11.846.492-15.774 4.991l-47.432 47.888c-6.19 6.293-6.19 16.451 0 22.744l36.711 37.073-36.148 36.493c-6.227 6.3-6.227 16.5 0 22.8a15.87 15.87 0 0 0 22.522 0l47.42-47.899a16.183 16.183 0 0 0 4.685-11.384 16.184 16.184 0 0 0-4.662-11.394z" opacity=".7"/>
            <path d="M-45.714 708.54c0 4.237 1.693 8.3 4.705 11.294l47.756 47.594c6.362 5.588 15.99 5.288 21.987-.687 5.998-5.975 6.3-15.564.69-21.902l-36.396-36.254 25.41-25.311 36.395 36.255c6.293 6.257 16.484 6.257 22.778 0l93.71-93.348c.4-.324.779-.674 1.134-1.05 6.25-6.243 6.25-16.347 0-22.59l-36.486-36.356 36.214-36.074c6.238-6.247 6.238-16.341 0-22.589-6.27-6.22-16.408-6.22-22.677 0l-47.733 47.46a15.973 15.973 0 0 0-4.712 11.322c0 4.247 1.695 8.32 4.712 11.322a16.845 16.845 0 0 0 2.086 1.74l34.525 34.38-72.1 71.82-36.43-36.288c-6.274-6.208-16.401-6.208-22.676 0l-.102.113c-.09.09-.192.158-.272.248l-47.813 47.572a15.928 15.928 0 0 0-4.705 11.328z" opacity=".6"/>
            <path d="M.077 566.81c.058.511.129 1.023.234 1.535a15.25 15.25 0 0 0 1.173 3.65 16.056 16.056 0 0 0 3.33 4.663l49.383 47.886c6.579 5.626 16.534 5.323 22.736-.692 6.202-6.016 6.514-15.671.713-22.052l-37.624-36.503 86.527-83.934a15.893 15.893 0 0 0 3.658-5.345c2.513-6.004 1.077-12.884-3.647-17.466L77.19 410.654c-4.172-4.201-10.359-5.89-16.177-4.416-5.82 1.475-10.364 5.882-11.884 11.526-1.52 5.644.221 11.644 4.553 15.69l37.636 36.503L4.872 553.87C1.36 557.27-.4 562.018.077 566.809z" opacity=".7"/>
            <path d="M800.73 160.844c.268.282.536.54.814.798l.268.234c.548.479 1.125.921 1.726 1.325.334.21.669.422 1.014.61 6.12 3.38 13.618 2.178 18.504-2.967l92.998-97.86c5.512-6.578 5.215-16.532-.678-22.733-5.893-6.2-15.351-6.513-21.602-.713l-81.825 86.103-82.214-86.513c-6.16-6.456-16.121-6.456-22.28 0-6.13 6.484-6.13 16.96 0 23.445l93.276 98.271z" opacity=".3"/>
            <path d="M1089.853 59.399a16.672 16.672 0 0 0 3.344 1.999c1.176.535 2.415.93 3.689 1.172.513.098 1.03.17 1.551.213 2.083.196 4.186.003 6.194-.57a16.292 16.292 0 0 0 6.895-3.987L1171.429 0h-46.068L1100 24.646 1074.64 0h-46.069l59.915 58.226c.434.415.89.806 1.367 1.173zM1274.731 252.333c6.448 6.413 16.864 6.413 23.312 0 6.419-6.446 6.419-16.87 0-23.315l-97.71-97.71a16.515 16.515 0 0 0-28.427 6.984 16.52 16.52 0 0 0 5.116 16.33l97.71 97.71zM1298.217 58.247c6.187-6.177 6.187-16.166 0-22.342L1262.179 0h-45.036l58.606 58.247c6.214 6.147 16.254 6.147 22.468 0z" opacity=".4"/>
            <path d="M1270.368 155.247a15.827 15.827 0 0 0 6.798 4.077c1.471.442 2.997.67 4.532.676a16.312 16.312 0 0 0 3.07-.298 15.261 15.261 0 0 0 2.968-.893 15.94 15.94 0 0 0 5.313-3.562L1435.3 11.452A16.294 16.294 0 0 0 1440 0h-38.768L1281.72 120.81l-83.62-84.518a15.928 15.928 0 0 0-21.97.697c-5.992 6.058-6.294 15.782-.689 22.208l94.927 96.05zM874.326 11.98L885.714 0h-40c.11 4.505 1.86 8.794 4.89 11.98 6.553 6.884 17.169 6.884 23.722 0zM966.54 11.98c3.03-3.186 4.78-7.475 4.889-11.98h-40l11.388 11.98c6.553 6.884 17.169 6.884 23.723 0z" opacity=".4"/>
            <path d="M452.287 787.499c-6.51-6.19-17.018-6.19-23.528 0l-37.34 35.693-37.268-35.693c-6.548-6.036-16.94-5.942-23.367.21-6.428 6.153-6.526 16.098-.22 22.366l37.28 35.637-37.28 35.67c-6.466 6.231-6.466 16.289 0 22.52 6.517 6.226 17.07 6.226 23.587 0l37.269-35.682 37.28 35.682c6.615 5.467 16.518 5.12 22.699-.795 6.18-5.915 6.542-15.393.83-21.725l-37.222-35.67 37.28-35.682c6.474-6.233 6.474-16.299 0-22.531z"/>
            <path d="M614.146 58.223c6.386 6.179 16.704 6.179 23.09 0L697.143 0h-46.284l-25.145 24.457L600.57 0h-46.283l59.86 58.223zM96.297 103.97c6.477 6.135 16.96 6.135 23.437 0l98.295-93.266c2.991-2.85 4.719-6.681 4.828-10.704h-40.546L96.297 81.672c-3.117 2.956-4.868 6.967-4.868 11.15 0 4.182 1.751 8.193 4.868 11.149z" opacity=".4"/>
            <path d="M-45.04 148.299c.36.443.74.875 1.121 1.285a15.703 15.703 0 0 0 22.411 0l46.11-46.729c5.545-6.381 5.246-16.037-.681-22.053a15.71 15.71 0 0 0-21.73-.691l-34.86 35.288-35.857-36.392A15.713 15.713 0 0 0-80 74.287v38.667l33.695 34.196c.4.407.823.79 1.266 1.149zM75.225 1256.032c-6.368-6.138-16.665-6.138-23.032 0L-80 1383.896v44.675l155.225-150.207c6.367-6.17 6.367-16.163 0-22.332z" opacity=".6"/>
            <path d="M4.79 292.452c6.378 6.254 16.68 6.254 23.057 0l47.37-46.708a16.117 16.117 0 0 0 0-22.917l-47.37-46.708c-6.376-6.254-16.68-6.254-23.056 0a15.937 15.937 0 0 0 0 22.735l35.887 35.398L4.791 269.66A15.994 15.994 0 0 0 0 281.056c0 4.275 1.723 8.375 4.79 11.396z"/>
            <path d="M28.078 383.244l223.658-219.616 177.242 174.096c6.248 6.121 16.361 6.121 22.609 0l.079-.089.08-.066 235.018-230.774a15.544 15.544 0 0 0 0-22.204c-6.248-6.121-16.361-6.121-22.609 0L440.328 304.417 263.04 130.243l-.068-.066c-6.248-6.12-16.361-6.12-22.61 0-.4.413-.777.846-1.13 1.299L5.425 361.039C.952 364.913-.96 370.905.463 376.592c1.423 5.687 5.944 10.128 11.734 11.525 5.791 1.397 11.892-.48 15.836-4.873h.045z" opacity=".4"/>
            <path d="M377.536 206.81c6.342 6.158 16.587 6.158 22.929 0L549.555 61.3a15.607 15.607 0 0 0 0-22.386c-6.336-6.171-16.592-6.171-22.928 0L389.057 173.23 256.236 43.503c-6.341-6.159-16.587-6.159-22.928 0a15.596 15.596 0 0 0 0 22.386l144.23 140.92z" opacity=".7"/>
            <path d="M212.435 84.648a15.71 15.71 0 0 0-22.311 0l-81.88 82.678-34.739-35.088c-3.874-4.53-9.931-6.492-15.693-5.085-5.76 1.408-10.26 5.95-11.653 11.768-1.395 5.817.55 11.934 5.036 15.845l45.837 46.273a15.954 15.954 0 0 0 22.567 0l92.936-93.84c6.144-6.228 6.144-16.3 0-22.528l-.1-.023z" opacity=".3"/>
            <path d="M-33.825 531.428c4.264 0 8.353-1.713 11.364-4.76L23.896 479.9c6.234-6.353 6.234-16.59 0-22.942l-46.698-47.18a15.995 15.995 0 0 0-22.038.697c-6.011 6.068-6.314 15.808-.691 22.245l35.31 35.64-23.616 23.826-35.298-35.641A15.953 15.953 0 0 0-80 451.807v39.794l34.787 35.101a15.926 15.926 0 0 0 11.388 4.726zM23.973 1240.856c6.131-6.476 6.131-16.959 0-23.435l-93.251-98.296c-2.85-3.006-6.69-4.74-10.722-4.84v40.52l81.683 86.05c6.158 6.479 16.132 6.479 22.29 0z" opacity=".6"/>
            <path d="M452.47 696.151a15.79 15.79 0 0 0-22.526 0l-35.702 36.196-35.071-35.488a15.824 15.824 0 0 0-22.581 0l-46.233 46.932c-6.19 6.32-6.19 16.523 0 22.844a15.824 15.824 0 0 0 22.581 0l34.97-35.43 34.993 35.487a15.824 15.824 0 0 0 22.581 0l.327-.377c.124-.115.259-.217.371-.343l46.278-46.932a16.29 16.29 0 0 0 4.685-11.442 16.29 16.29 0 0 0-4.674-11.447z" opacity=".7"/>
            <path d="M686.795 766.709c6.178-6.283 6.178-16.433 0-22.715L557.271 612.926l82.367-83.33c5.556-6.374 5.257-16.017-.683-22.025a15.778 15.778 0 0 0-21.772-.691l-92.608 93.678c-6.143 7.186-6.095 17.857.113 24.987l139.596 141.164a15.818 15.818 0 0 0 11.255 4.72c4.223 0 8.272-1.698 11.256-4.72z" opacity=".4"/>
            <path d="M773.89 357.318a15.774 15.774 0 0 0-20.331 1.671l-91.863 91.835c-5.77 6.958-5.367 17.149.936 23.63l34.613 34.614-81.224 81.173c-6.123 6.165-6.123 16.116 0 22.281 6.171 6.161 16.165 6.161 22.336 0l91.885-91.89c.078-.078.134-.167.212-.245l.245-.211c6.16-6.172 6.16-16.166 0-22.338l-35.738-35.729 69.983-69.987 35.727 35.74c6.171 6.16 16.165 6.16 22.336 0 .09-.089.156-.19.246-.267a5.34 5.34 0 0 0 .267-.245l91.874-91.89c6.141-6.158 6.141-16.125 0-22.282-6.157-6.142-16.124-6.142-22.28 0l-81.247 81.24-34.613-34.615a15.53 15.53 0 0 0-3.364-2.485z" opacity=".7"/>
            <path d="M686.737 858.092a15.83 15.83 0 0 0 0-22.497l-94.622-93.801c-6.271-6.201-16.422-6.201-22.693 0a15.83 15.83 0 0 0 0 22.497l83.252 82.53-225.11 223.103a15.864 15.864 0 0 0-.001 22.554c6.286 6.22 16.465 6.22 22.75 0l236.424-234.386z" opacity=".4"/>
            <path d="M543.799 690.332l-46.864-46.338c-6.4-5.58-16.084-5.28-22.117.686a15.85 15.85 0 0 0-.694 21.869l35.436 35.038-35.436 35.038a15.842 15.842 0 0 0 0 22.555l35.356 34.959-35.436 35.038c-4.512 3.934-6.44 10.021-5.005 15.798 1.435 5.777 5.996 10.287 11.839 11.706 5.842 1.42 11.998-.488 15.977-4.95l45.199-44.691a14.16 14.16 0 0 0 1.802-1.511 15.842 15.842 0 0 0 0-22.555l-35.436-35.038 35.436-35.038a15.842 15.842 0 0 0-.057-22.566z" opacity=".4"/>
            <path d="M4.623 1139.034l.57.52c.178.191.334.394.512.575l128.246 129.764-174.314 176.41c-4.412 3.937-6.298 10.028-4.895 15.808 1.404 5.78 5.864 10.293 11.576 11.713 5.713 1.42 11.732-.489 15.623-4.953l184.998-187.187c6.07-6.807 5.974-17.186-.223-23.876l-128.559-130.08 126.908-128.387c6.358-6.733 6.834-17.178 1.115-24.475l-44.35-44.875a15.67 15.67 0 0 0-21.917.392c-6.014 6.07-6.21 15.865-.443 22.175l33.534 33.93-128.38 129.934c-6.136 6.241-6.136 16.326 0 22.567v.045z" opacity=".6"/>
            <path d="M72.356 59.005l12.602-12.594.362-.329L131.43 0H85.922L49.625 36.276c-5.508 6.375-5.159 15.917.8 21.873 5.96 5.955 15.507 6.304 21.885.8l.046.056zM326.179 51.68l6.878 6.907c6.312 5.842 16.133 5.669 22.234-.392 6.1-6.06 6.299-15.84.449-22.141l-6.901-6.873L319.639 0h-45.353l51.825 51.658.068.023z" opacity=".4"/>
            <path d="M1321.64 363.898l-190.446 185.639c-4.518 3.884-6.45 9.892-5.012 15.594 1.437 5.703 6.005 10.155 11.855 11.556 5.85 1.4 12.014-.482 15.998-4.886l190.491-185.594c5.651-6.246 5.347-15.698-.694-21.587-6.042-5.889-15.738-6.185-22.146-.677l-.046-.045z" opacity=".3"/>
            <path d="M1041.322 364.583l-36.164 35.913-35.747-35.487c-6.234-6.174-16.326-6.174-22.56 0L817.737 493.14l-35.758-35.5a16.06 16.06 0 0 0-15.67-4.57c-5.672 1.44-10.097 5.844-11.534 11.479a15.795 15.795 0 0 0 4.644 15.544l47.05 46.709c6.237 6.167 16.323 6.167 22.56 0l.293-.314.327-.29 128.482-127.472 35.747 35.488c6.234 6.173 16.326 6.173 22.56 0 .068-.068.124-.146.203-.213l.215-.202 47.06-46.72a15.798 15.798 0 0 0 0-22.396c-6.217-6.206-16.32-6.25-22.594-.101zM1056.49 456.833a15.95 15.95 0 0 0-27.457 6.748 15.962 15.962 0 0 0 4.94 15.777l46.959 46.975a15.95 15.95 0 0 0 27.151-6.948 15.962 15.962 0 0 0-4.635-15.633l-46.958-46.92z" opacity=".4"/>
            <path d="M711.703 790.365c-5.774 6.382-5.463 16.04.71 22.057 6.174 6.017 16.083 6.32 22.632.692l48.69-47.444c6.449-6.37 6.449-16.607 0-22.976l-86.678-84.469 85.032-82.875c5.775-6.383 5.464-16.04-.71-22.058-6.173-6.017-16.082-6.32-22.631-.692l-96.762 94.262a15.563 15.563 0 0 0-2.556 3.208 15.72 15.72 0 0 0-1.61 3.594c-.3.996-.503 2.016-.607 3.049 0 .511-.07 1.023-.07 1.546 0 .524 0 1.024.07 1.547.364 3.726 2.052 7.21 4.773 9.85l86.76 84.56-37.043 36.149z" opacity=".7"/>
            <path d="M713.225 903.913c6.206 6.211 16.243 6.211 22.449 0l139.739-140.361c6.073-6.107 6.217-15.958.325-22.241a17.587 17.587 0 0 0-1.773-2.143l-34.873-35.042 128.246-128.857c5.662-6.316 5.418-15.98-.557-22-5.975-6.018-15.591-6.288-21.891-.614L805.34 692.825l-.19.191c-6.207 6.248-6.207 16.366 0 22.614a16.324 16.324 0 0 0 2.244 1.838l34.458 34.625L713.225 881.31c-6.205 6.243-6.205 16.358 0 22.602z" opacity=".4"/>
            <path d="M1176.15 338.14c6.325 6.29 16.542 6.29 22.865 0l47.696-47.696c6.29-6.324 6.29-16.54 0-22.865-6.321-6.296-16.543-6.296-22.865 0l-47.684 47.685c-6.307 6.319-6.312 16.55-.011 22.876z" opacity=".3"/>
            <path d="M1206.47 221.866c-6.503-6.298-17.028-6.298-23.53 0l-96.791 93.985c-.454.356-.886.737-1.294 1.142-6.473 6.32-6.473 16.529 0 22.848l.059.057 37.295 36.317-37.284 36.214c-6.486 6.314-6.486 16.534 0 22.847 6.503 6.299 17.028 6.299 23.53 0l49.167-47.637c6.473-6.32 6.473-16.529 0-22.848l-.06-.057-37.224-36.145 86.226-83.726c6.486-6.314 6.486-16.534 0-22.848l-.094-.149z"/>
            <path d="M1319.69 11.683c.136.145.25.303.387.449 6.305 6.681 16.5 6.681 22.806 0L1354.286 0h-45.715l10.617 11.295.501.388z" opacity=".4"/>
            <path d="M1483.244 336.472c4.533-3.925 6.47-9.998 5.029-15.76-1.442-5.764-6.025-10.264-11.894-11.68-5.869-1.416-12.053.487-16.05 4.938l-95.592 93.867a15.729 15.729 0 0 0 0 22.502L1520 582.857v-45.105l-120.867-118.686 84.11-82.594z" opacity=".6"/>
            <path d="M1343.92 456.018c-6.242-6.12-16.319-6.12-22.561 0L1144.492 630.5 969.115 457.443c-6.779-6.143-17.18-6.191-24.017-.112L758.28 641.69a15.623 15.623 0 0 0 .687 21.587c5.967 5.888 15.546 6.185 21.876.677L957.056 490.16l176.121 173.804c6.233 6.143 16.33 6.143 22.563 0l188.124-185.627a15.649 15.649 0 0 0 .057-22.32z" opacity=".3"/>
            <path d="M1388.218 343.723l97.598-97.569a16.58 16.58 0 0 0-7.008-28.532 16.572 16.572 0 0 0-16.386 5.135l-97.586 97.603c-6.448 6.466-6.448 16.932 0 23.398 6.473 6.432 16.928 6.416 23.382-.035zM1394.186 507.587a16.096 16.096 0 0 0-22.79 0l-46.706 46.765c-6.253 6.295-6.253 16.467 0 22.762l46.706 46.766c6.29 6.255 16.443 6.255 22.733 0 .295-.296.557-.604.818-.91l34.407-34.452 35.315 35.362c6.378 5.63 16.03 5.328 22.042-.693 6.013-6.02 6.316-15.684.692-22.07l-46.706-46.765c-6.282-6.274-16.45-6.274-22.733 0-.068 0-.113.125-.17.182l-.193.17-34.907 34.952-23.87-23.9 35.361-35.407c6.254-6.295 6.254-16.467 0-22.762z" opacity=".6"/>
            <path d="M1298.106 604.646c-6.351-6.195-16.63-6.195-22.982 0l-47.216 46.168-.138.146-.138.124c-3.057 2.986-4.775 7.039-4.775 11.264 0 4.226 1.718 8.278 4.775 11.264l35.737 34.944-35.622 34.831a16.134 16.134 0 0 0-.069 22.9l47.113 46.224c6.359 6.176 16.623 6.176 22.982 0a15.695 15.695 0 0 0 0-22.528l-35.806-35.113 35.92-35.123c3.058-2.986 4.776-7.039 4.776-11.264 0-4.226-1.718-8.278-4.775-11.264-.219-.214-.449-.405-.678-.607l-35.094-34.303 35.99-35.191a15.661 15.661 0 0 0 0-22.472z" opacity=".2"/>
            <path d="M1195.39 697.128c-6.15-6.15-16.087-6.15-22.238 0l-34.546 34.725-126.635-127.221a15.733 15.733 0 0 0-4.448-3.13 16.46 16.46 0 0 0-2.224-.86 15.689 15.689 0 0 0-15.566 3.99l-93.712 94.195c-6.123 6.18-6.123 16.173 0 22.353l34.703 34.87-34.602 34.781c-5.502 6.271-5.206 15.761.676 21.673a15.697 15.697 0 0 0 21.562.68l45.688-45.924c6.126-6.295 6.081-16.37-.1-22.61l-34.536-34.725 71.418-71.764 126.59 127.3a15.65 15.65 0 0 0 5.215 3.476c.94.383 1.916.675 2.913.871.993.192 2.002.289 3.013.291a15.78 15.78 0 0 0 4.448-.66 15.65 15.65 0 0 0 6.671-3.978l45.688-45.924a15.878 15.878 0 0 0 4.632-11.2 15.879 15.879 0 0 0-4.61-11.209zM1109.618 787.53c-6.236-6.23-16.31-6.23-22.547 0l-81.978 82.35-35.038-35.18c-6.23-6.242-16.315-6.242-22.546 0-6.202 6.263-6.202 16.382 0 22.645l46.322 46.525c.761.771 1.6 1.462 2.502 2.06.293.193.598.352.89.522.154.102.312.197.474.283.366.189.742.355 1.128.498l.35.17c.247.102.506.181.766.272.259.09.462.17.699.237l.259.068a15.904 15.904 0 0 0 15.58-4.11l81.956-82.327 35.026 35.18c6.325 5.602 15.897 5.3 21.86-.69 5.964-5.989 6.264-15.603.686-21.956l-46.39-46.548z" opacity=".4"/>
            <path d="M1112.81 878.403a16.193 16.193 0 0 0-22.319.707c-6.088 6.15-6.395 16.019-.7 22.541l47.248 47.833a16.196 16.196 0 0 0 23.02 0l47.293-47.763c5.695-6.522 5.388-16.392-.7-22.541a16.193 16.193 0 0 0-22.32-.707l-35.772 36.116-35.75-36.186zM1273.382 1256.23c-6.414 6.43-6.414 16.84 0 23.27l47.802 47.807c6.527 5.757 16.405 5.447 22.56-.707 6.153-6.155 6.463-16.034.707-22.562l-47.802-47.808c-6.435-6.402-16.832-6.402-23.267 0z" opacity=".4"/>
            <path d="M916.14 1157.205l-44.773-44.774c-6.114-5.392-15.366-5.101-21.13.663-5.764 5.764-6.055 15.016-.663 21.13l44.773 44.774c6.115 5.391 15.366 5.1 21.13-.663 5.765-5.764 6.055-15.016.663-21.13z" opacity=".2"/>
            <path d="M1082.919 1470.426c6.114 5.392 15.366 5.101 21.13-.663 5.764-5.764 6.054-15.016.663-21.13l-44.774-44.773c-6.114-5.392-15.366-5.102-21.13.662-5.764 5.764-6.054 15.016-.663 21.13l44.774 44.774z"/>
            <path d="M863.816 1234.286a16.206 16.206 0 0 0 14.954-9.997 16.154 16.154 0 0 0-3.517-17.618l-46.891-46.907a16.224 16.224 0 0 0-16.022-5.01 16.191 16.191 0 0 0-11.872 11.85 16.158 16.158 0 0 0 5.02 15.991l46.89 46.953a16.152 16.152 0 0 0 11.438 4.738z" opacity=".4"/>
            <path d="M779.938 1209.574c-6.114-5.392-15.366-5.101-21.13.663-5.764 5.764-6.054 15.016-.663 21.13l44.774 44.773c6.114 5.392 15.366 5.102 21.13-.662 5.764-5.764 6.054-15.016.663-21.13l-44.774-44.774z"/>
            <path d="M963.727 1138.619l128.292-129.43 35.23 35.543a16.45 16.45 0 0 0 22.914.281l34.66-34.969 34.628 35.003a15.707 15.707 0 0 0 21.633-.685c5.902-5.954 6.199-15.51.679-21.825l-45.84-46.234a15.72 15.72 0 0 0-22.31 0l-34.807 35.103-35.074-35.385a17.324 17.324 0 0 0-23.594.09L941.37 1116.053c-5.785 6.28-5.613 16.05.388 22.119a15.708 15.708 0 0 0 21.923.447h.045zM964.81 1041.075c.101-.101.191-.215.281-.316.383-.317.754-.656 1.126-1.007l91.518-91.959a16.075 16.075 0 0 0 4.634-15.7c-1.434-5.69-5.849-10.138-11.51-11.593a15.9 15.9 0 0 0-15.635 4.617l-81.591 81.984-35.016-35.173c-6.226-6.223-16.285-6.223-22.511 0a16.065 16.065 0 0 0-4.677 11.338c0 4.253 1.682 8.332 4.677 11.338l46.249 46.471c6.22 6.186 16.235 6.186 22.455 0z" opacity=".4"/>
            <path d="M916.162 1069.705l-45.556-46.615c-.211-.215-.433-.408-.643-.601-.211-.193-.377-.454-.588-.67a15.48 15.48 0 0 0-22.174 0L616.75 1257.583c-4.387 3.957-6.261 10.08-4.866 15.892 1.395 5.81 5.829 10.348 11.508 11.776 5.68 1.427 11.664-.491 15.531-4.98l219.3-224.383 35.677 36.507c6.221 5.613 15.635 5.31 21.5-.69 5.864-6.001 6.16-15.634.674-22h.089z" opacity=".3"/>
            <path d="M993.345 812.44c6.368 6.27 16.65 6.27 23.018 0l47.291-46.866.08-.091.093-.08a16.082 16.082 0 0 0 0-22.812l-47.291-46.867c-6.437-5.898-16.427-5.698-22.618.453a16.058 16.058 0 0 0-.4 22.416l35.747 35.438-35.92 35.54a16.082 16.082 0 0 0 0 22.87z"/>
            <path d="M1061.331 1230.085l130.46-128.694 35.204 34.727a16.124 16.124 0 0 0 11.357 4.65 15.781 15.781 0 0 0 1.624-.09 16.096 16.096 0 0 0 10.016-4.582l140.271-138.295a15.718 15.718 0 0 0-.69-21.723c-6.008-5.926-15.65-6.224-22.022-.682l-129.018 127.205-35.363-34.885c-6.276-6.176-16.436-6.176-22.712 0-.216.213-.409.437-.613.661l-141.283 139.258a15.72 15.72 0 0 0 .451 22.015c6.124 6.026 15.982 6.199 22.318.39v.045z" opacity=".2"/>
            <path d="M1016.034 1189.589l93.55-93.557c6.269-6.294 6.269-16.47 0-22.764-6.295-6.262-16.466-6.262-22.761 0l-93.55 93.558c-6.269 6.293-6.269 16.47 0 22.763 6.295 6.262 16.466 6.262 22.761 0z" opacity=".3"/>
            <path d="M1016.359 1377.531l185.393-185.468c5.535-6.28 5.237-15.783-.68-21.704-5.919-5.92-15.417-6.218-21.694-.68L993.94 1355.102a15.864 15.864 0 0 0 6.702 27.297 15.848 15.848 0 0 0 15.672-4.912l.045.044z" opacity=".2"/>
            <path d="M1388.648 879.137c-6.19-6.468-16.191-6.468-22.381 0l-82.184 86.34-34.881-36.646c-6.28-5.817-15.78-5.503-21.7.716s-6.218 16.2-.681 22.797l44.762 47.026c.388.525.806 1.024 1.254 1.493 6.19 6.468 16.19 6.468 22.38 0l82.263-86.421 34.769 36.527c3.904 4.65 9.944 6.639 15.676 5.16 5.733-1.48 10.208-6.182 11.617-12.204 1.408-6.022-.484-12.368-4.912-16.47l-45.982-48.318z" opacity=".6"/>
            <path d="M685.777 1021.814c-6.3-6.228-16.498-6.228-22.798 0l-46.837 46.418a15.895 15.895 0 0 0 0 22.594s.068.056.09.09l.092.102 46.837 46.418c3.977 4.47 10.13 6.38 15.968 4.958 5.84-1.421 10.398-5.94 11.833-11.726a15.92 15.92 0 0 0-5.003-15.825l-35.598-35.28 35.416-35.1a15.924 15.924 0 0 0 4.741-11.324c0-4.25-1.706-8.324-4.741-11.325z" opacity=".2"/>
            <path d="M587.875 1307.493c-6.232-6.181-16.319-6.181-22.55 0l-46.005 45.67-.372.38c-6.216 6.197-6.216 16.228 0 22.425.966.96 2.054 1.789 3.236 2.467l91.715 91.215c6.232 6.181 16.32 6.181 22.551 0l.35-.37c.112-.124.248-.225.372-.337l95.977-95.452a15.824 15.824 0 0 0-.686-21.744c-5.964-5.93-15.538-6.23-21.865-.682l-85.423 84.88-71.95-71.57 34.65-34.457c6.216-6.197 6.216-16.228 0-22.425z" opacity=".3"/>
            <path d="M713.212 1092.502c6.203 6.188 16.243 6.188 22.446 0l140.367-140.365c5.553-6.297 5.254-15.827-.683-21.764-5.937-5.938-15.466-6.237-21.763-.683l-140.367 140.32c-6.187 6.203-6.187 16.244 0 22.447v.045z" opacity=".4"/>
            <path d="M735.683 1001.094L864.27 872.621l80.712 80.675c6.303 5.555 15.841 5.256 21.783-.683 5.943-5.94 6.242-15.473.684-21.774l-91.71-91.678-.168-.146-.09-.1c-6.216-6.172-16.25-6.172-22.467 0L713.216 978.592c-6.193 6.206-6.193 16.25 0 22.456 6.196 6.203 16.246 6.223 22.467.045z" opacity=".4"/>
            <path d="M1360.934 788.22l-80.954 82.1-82.046-83.208a15.63 15.63 0 0 0-21.895.449c-5.994 6.093-6.165 15.901-.388 22.206l92.608 93.919a16.642 16.642 0 0 0 23.04.497l92.018-93.309c4.353-3.957 6.196-10.028 4.79-15.782-1.405-5.754-5.828-10.252-11.499-11.691-5.67-1.44-11.661.414-15.574 4.819h-.1z" opacity=".3"/>
            <path d="M1464.287 976.073l-139.648 140.837c-6.185 6.584-6.185 16.896 0 23.48l94.15 94.929a15.807 15.807 0 0 0 22.457 0c6.19-6.257 6.19-16.385 0-22.643l-83.27-83.97L1486.8 998.819c6.172-6.265 6.172-16.378 0-22.643a15.84 15.84 0 0 0-22.513-.102zM1486.778 1256.14a15.774 15.774 0 0 0-22.487 0l-93.693 95.053a16.277 16.277 0 0 0-4.672 11.433c0 4.289 1.68 8.401 4.672 11.432a16.259 16.259 0 0 0 2.586 2.122l33.067 33.528-82.269 83.444c-5.563 6.4-5.263 16.082.684 22.115a15.77 15.77 0 0 0 21.804.694l93.68-95.02c3.33-3.336 5.036-7.995 4.659-12.728-.378-4.732-2.8-9.052-6.615-11.802l-33.607-34.087 82.18-83.342c6.211-6.31 6.216-16.527.01-22.843z" opacity=".6"/>
            <path d="M1154.093 1425.4l83.464-83.52 72 72.05-83.464 83.509a16.162 16.162 0 0 0 6.828 27.808 16.143 16.143 0 0 0 15.964-5.004l94.882-94.934.069-.068a16.161 16.161 0 0 0 0-22.861c-.42-.404-.861-.785-1.322-1.14l-92.307-92.357c-.353-.46-.734-.898-1.14-1.311-6.298-6.286-16.493-6.286-22.792 0l-94.962 95.002a16.173 16.173 0 0 0 6.76 27.951 16.154 16.154 0 0 0 16.032-5.147l-.012.023z" opacity=".4"/>
            <path d="M1410.33 1114.49a15.9 15.9 0 0 0-4.616 11.187c0 .515 0 1.019.078 1.522.078.503.122 1.007.211 1.51a15.76 15.76 0 0 0 4.327 8.19l92.222 92.755a15.655 15.655 0 0 0 11.69 4.62v-37.701l-70.424-70.896 70.468-70.884v-37.635a15.665 15.665 0 0 0-11.812 4.62l-92.144 92.712zM1479.395 808.959c5.482-6.221 5.187-15.635-.674-21.5-5.86-5.865-15.268-6.16-21.485-.675l-46.923 46.944a15.624 15.624 0 0 0-3.956 6.652 15.864 15.864 0 0 0-.565 2.96c-.053.501-.08 1.004-.078 1.508-.002.504.024 1.007.078 1.508.34 3.63 1.94 7.027 4.52 9.601L1514.287 960v-44.548l-70.656-70.715 35.765-35.778z" opacity=".6"/>
            <path d="M1367.556 1278.091c6.263 5.806 16.005 5.634 22.058-.39 6.052-6.022 6.249-15.741.445-22.004l-91.156-90.965-.1-.112c-6.209-6.16-16.24-6.16-22.447 0l-186.666 186.163c-5.554 6.282-5.255 15.79.682 21.713 5.937 5.923 15.467 6.221 21.764.68l175.41-174.852 80.01 79.767z"/>
            <path d="M96.108 1515.393c6.233 6.143 16.32 6.143 22.553 0l93.833-92.71a15.68 15.68 0 0 0 0-22.287l-47.046-46.478c-3.934-4.408-10.02-6.292-15.797-4.89-5.776 1.402-10.286 5.859-11.705 11.567-1.42 5.708.487 11.722 4.949 15.61l35.735 35.323-82.522 81.545a15.684 15.684 0 0 0-4.68 11.16c0 4.186 1.684 8.2 4.68 11.16zM406.687 1493.283c-.174-.174-.37-.324-.556-.498-.185-.173-.324-.381-.498-.555l-46.169-46.136c-.22-.22-.451-.417-.683-.613-.231-.197-.394-.463-.613-.683-6.414-6.397-16.8-6.397-23.212 0l-49.527 49.491a16.397 16.397 0 0 0-4.937 16.172 16.41 16.41 0 0 0 11.978 11.94 16.424 16.424 0 0 0 16.17-4.974l37.927-37.9 25.32 25.325-37.927 37.888a16.386 16.386 0 0 0-5.081 16.206 16.399 16.399 0 0 0 12.017 12.009 16.412 16.412 0 0 0 16.218-5.078l49.527-49.491c6.365-6.38 6.386-16.698.046-23.103z" opacity=".3"/>
            <path d="M494.85 1494.517l-130.133-129.27 179.823-178.631a15.943 15.943 0 0 0-.692-21.924c-6.02-5.98-15.684-6.281-22.07-.688l-189.315 187.97c-.217.204-.399.441-.604.656a15.965 15.965 0 0 0-6.117 11.635 15.94 15.94 0 0 0 4.706 12.265l130.178 129.293-83.868 83.312a15.902 15.902 0 0 0-4.7 10.865h39.379l83.413-82.871a15.956 15.956 0 0 0 0-22.612zM1252.64 1401.587c-6.169-6.19-16.286-6.339-22.64-.333l-133.508 126.807-131.277-128.458c-3.95-4.384-10.06-6.258-15.858-4.863-5.799 1.394-10.326 5.826-11.75 11.503-1.425 5.676.49 11.657 4.968 15.523l142.088 139.096c.035.043.077.08.124.11 6.168 6.19 16.285 6.34 22.64.333l144.895-137.577a15.48 15.48 0 0 0 .317-22.141z" opacity=".4"/>
            <path d="M941.746 1326.718a16.144 16.144 0 0 0 11.402 4.71c4.277 0 8.38-1.694 11.402-4.71l47.895-47.736c6.264-6.268 6.264-16.405 0-22.673h-.057l-46.735-46.58c-6.381-5.608-16.039-5.306-22.055.69-6.017 5.997-6.32 15.622-.692 21.983l35.452 35.334-36.51 36.389c-6.233 6.233-6.28 16.304-.102 22.593z" opacity=".2"/>
            <path d="M920.525 1256.112c-6.223-6.245-16.296-6.245-22.519 0l-46.017 46.292c-.576.43-1.121.9-1.633 1.405-6.189 6.268-6.189 16.385 0 22.653l36.03 36.246-33.52 33.72a16.46 16.46 0 0 0-2.499 2.06c-6.195 6.266-6.195 16.39 0 22.654l47.425 47.709a15.897 15.897 0 0 0 15.773 4.97c5.768-1.425 10.271-5.955 11.688-11.757a16.109 16.109 0 0 0-4.942-15.867l-35.906-36.12 34.274-34.48a16.198 16.198 0 0 0 6.616-13.801 16.178 16.178 0 0 0-7.81-13.156l-33.204-33.3 36.244-36.473a16.087 16.087 0 0 0 4.707-11.377c0-4.272-1.694-8.367-4.707-11.378zM823.928 1350.738l-92.94-94.597a15.66 15.66 0 0 0-22.395 0 15.547 15.547 0 0 0-1.523 1.824l-91.675 93.308c-5.54 6.395-5.242 16.072.681 22.101a15.666 15.666 0 0 0 21.714.694l82.112-83.576 70.355 71.711-35.933 36.585c-6.173 6.3-6.173 16.495 0 22.794l47.153 48.005a15.693 15.693 0 0 0 22.395 0c6.155-6.307 6.155-16.487 0-22.794l-35.944-36.574 35.944-36.585a16.306 16.306 0 0 0 4.7-11.436 16.31 16.31 0 0 0-4.644-11.46z" opacity=".4"/>
            <path d="M729.221 1443.747c-6.212-6.203-16.268-6.203-22.48 0l-80.176 80.259-165.23-165.401 175.346-175.527.113-.135.135-.124c6.196-6.219 6.196-16.285 0-22.504l-78.423-78.582 129.33-129.53c5.56-6.313 5.261-15.867-.685-21.819-5.945-5.952-15.49-6.252-21.796-.684l-141.176 141.22a15.92 15.92 0 0 0 3.686 25.294l75.23 75.308-175.604 175.775c-6.178 6.226-6.178 16.277 0 22.504l187.71 187.904c6.218 6.19 16.263 6.19 22.48 0l80.289-80.203 82.728 82.813a15.917 15.917 0 0 0 15.745 4.938 15.936 15.936 0 0 0 11.668-11.68 15.954 15.954 0 0 0-4.933-15.761l-93.957-94.065z" opacity=".4"/>
            <path d="M1440.85 644.856c-6.506-6.475-17.02-6.475-23.526 0l-37.371 37.294-37.277-37.294c-6.6-5.823-16.588-5.51-22.81.716-6.223 6.225-6.537 16.217-.717 22.82l37.278 37.341-37.278 37.293c-6.485 6.505-6.485 17.033 0 23.537 6.502 6.488 17.025 6.488 23.527 0l37.277-37.235 37.277 37.282c6.6 5.823 16.588 5.51 22.81-.716 6.223-6.225 6.536-16.217.716-22.82l-37.265-37.294 37.265-37.293a16.667 16.667 0 0 0 .094-23.63z" opacity=".6"/>
        </g>
    </g>
</svg>
