<svg xmlns="http://www.w3.org/2000/svg" xmlns:xlink="http://www.w3.org/1999/xlink" width="1440" height="1340" viewBox="0 0 1440 1340">
    <defs>
        <linearGradient id="b" x1="0%" y1="0%" y2="100%">
            <stop offset="0%" stop-color="#4FC0E8"/>
            <stop offset="100%" stop-color="#43B0DB"/>
        </linearGradient>
        <path id="a" d="M0 0h1440v1290c-240 33.333-480 50-720 50s-480-16.667-720-50V0z"/>
    </defs>
    <g fill="none" fill-rule="evenodd">
        <mask id="c" fill="#fff">
            <use xlink:href="#a"/>
        </mask>
        <use fill="url(#b)" xlink:href="#a"/>
        <g fill="#FFF" fill-rule="nonzero" mask="url(#c)" opacity=".1">
            <path d="M0 0v20.571L20.571 0zM1420.005 0l-156.47 156.505c-4.938 5.6-4.672 14.074.606 19.353 5.278 5.28 13.75 5.545 19.349.607L1440 19.96V0h-19.995zM175.869 1258.961c-5.5-5.472-14.385-5.472-19.884 0L0 1414.966v19.891h19.883l155.986-155.955a14.095 14.095 0 0 0 0-19.94zM55.184 52.95L108 0H66.644L34.511 32.225c-5.104 5.803-4.83 14.584.628 20.054 5.456 5.47 14.215 5.746 20.003.63l.042.04zM415.732 11.055a14.558 14.558 0 0 0 20.805 0L447.43 0h-35.993c-.128 4.131 1.427 8.132 4.296 11.055zM466.423 227.334L596.901 96.876a14.216 14.216 0 0 0-6.009-24.465 14.211 14.211 0 0 0-14.05 4.403L446.454 207.22a14.215 14.215 0 0 0 0 20.113c5.537 5.46 14.432 5.46 19.97 0z" opacity=".4"/>
            <path d="M51.94 286.855l-31.313-31.78 31.804-32.288c5.52-5.635 5.52-14.738 0-20.372l-.26-.234c-.08-.092-.151-.184-.231-.265L0 149.143v40.835l22.263 22.602L0 235.183v39.775l21.771 22.104L0 319.165V360l51.94-52.732c5.547-5.64 5.547-14.774 0-20.413z" opacity=".6"/>
            <path d="M163.61 1002.061c-5.575 5.816-5.575 15.211 0 21.027l84.862 88.048c5.6 5.796 14.665 5.796 20.265 0l31.614-32.801 32.121 33.327c5.605 5.784 14.66 5.784 20.266 0 .08-.095.152-.19.233-.274.092-.078.18-.163.263-.252l84.862-88.048c5.586-5.81 5.586-15.216 0-21.027-5.6-5.796-14.665-5.796-20.265 0l-75.206 78.03-32.12-33.317a14.183 14.183 0 0 0-2.858-2.292 13.53 13.53 0 0 0-3.202-1.45 13.536 13.536 0 0 0-2.716-.547 11.978 11.978 0 0 0-1.378-.074c-.46-.002-.92.023-1.378.074-3.317.323-6.422 1.84-8.775 4.289l-31.614 32.812-74.709-77.514c-5.6-5.793-14.66-5.798-20.265-.01z" opacity=".2"/>
            <path d="M435.502 93.922L529.714 0h-40.5l-73.957 73.73c-5.238 5.619-5.083 14.36.352 19.792 5.434 5.43 14.203 5.607 19.852.4h.04zM793.035 52.423c5.658 5.531 14.798 5.531 20.455 0a14.077 14.077 0 0 0 0-20.109L780.7 0h-34.987a14.106 14.106 0 0 0 4.245 10.054l43.076 42.369z" opacity=".4"/>
            <path d="M1009.011 76.24l-43.07 43.079c-5.635 5.656-5.635 14.803 0 20.46 5.658 5.628 14.801 5.628 20.46 0l43.092-43.089c5.629-5.658 5.629-14.8 0-20.46-5.662-5.644-14.826-5.64-20.482.01z" opacity=".3"/>
            <path d="M1342.848 159.063L1088.84 413.126c-5.116 5.682-4.895 14.376.504 19.79 5.399 5.415 14.089 5.657 19.781.553l254.01-254.023a14.38 14.38 0 0 0-6.078-24.745 14.369 14.369 0 0 0-14.208 4.453v-.091z" opacity=".6"/>
            <path d="M919.67 159.152a14.133 14.133 0 0 0 0 20.189l43.291 42.577.103.091.103.111c5.685 5.554 14.87 5.554 20.556 0l127.345-125.088c4.066-3.521 5.804-8.97 4.511-14.14-1.293-5.171-5.404-9.208-10.669-10.479-5.265-1.27-10.812.437-14.398 4.43L973.465 191.748l-33.188-32.595a14.7 14.7 0 0 0-10.303-4.194 14.7 14.7 0 0 0-10.304 4.194z" opacity=".4"/>
            <path d="M896.76 198.418a14.395 14.395 0 0 0-12.208-4.068 14.351 14.351 0 0 0-10.573 7.308l-82.533 82.133a14.258 14.258 0 0 0-4.14 14.022 14.338 14.338 0 0 0 10.397 10.32 14.417 14.417 0 0 0 14.08-4.155l75.21-74.845 74.448 74.088c5.61 5.554 14.675 5.554 20.285 0a14.68 14.68 0 0 0 1.836-2.24l123.703-122.933a14.253 14.253 0 0 0-.617-19.573c-5.366-5.34-13.978-5.608-19.67-.614L971.422 272.708l-74.245-73.887-.416-.403z" opacity=".4"/>
            <path d="M241.334 515.254a14.136 14.136 0 0 0 20.06 0l42.248-42.614c.13-.132.24-.273.371-.415.13-.142.28-.243.411-.374 5.53-5.592 5.53-14.643 0-20.235L188.545 334.641l32.187-32.467a14.4 14.4 0 0 0 4.168-10.142 14.4 14.4 0 0 0-4.168-10.143 14.136 14.136 0 0 0-20.06 0l-42.247 42.614c-5.519 5.596-5.519 14.638 0 20.235l115.879 116.975-32.97 33.256c-5.546 5.604-5.546 14.68 0 20.285z" opacity=".3"/>
            <path d="M752.606 179.54c5.747 4.867 14.351 4.559 19.72-.707 5.37-5.266 5.685-13.703.722-19.339l-43.05-42.207c-5.65-5.526-14.793-5.526-20.442 0a2.312 2.312 0 0 0-.214.23l-.235.201-243.592 238.839-32.798-32.164-.194-.17-.174-.181c-5.649-5.526-14.793-5.526-20.441 0l-43.04 42.207a14.014 14.014 0 0 0 .507 19.55c5.44 5.349 14.198 5.589 19.934.546l32.799-32.194 33.166 32.525a14.378 14.378 0 0 0 3.537 2.556c.678.345 1.382.64 2.105.882 5.217 1.722 10.978.398 14.871-3.418l244.02-239.33 32.799 32.174zM706.296 281.283l-284.824 285.61-31.123-31.197a14.38 14.38 0 0 0-14.239-4.473 14.422 14.422 0 0 0-10.55 10.58 14.465 14.465 0 0 0 4.46 14.276l41.298 41.409c5.63 5.635 14.749 5.635 20.38 0l294.988-295.78c5.029-5.72 4.758-14.373-.619-19.764s-14.007-5.663-19.71-.62l-.061-.04z" opacity=".4"/>
            <path d="M415.67 525.38c5.66 5.779 14.797 5.779 20.458 0l43.071-44.276c5.64-5.81 5.64-15.214 0-21.024l-43.02-44.318c-5.66-5.778-14.797-5.778-20.457 0-5.622 5.817-5.622 15.207 0 21.024l32.833 33.733-32.833 33.733c-2.739 2.792-4.284 6.589-4.293 10.553-.01 3.965 1.516 7.77 4.242 10.576z" opacity=".3"/>
            <path d="M287.114 703.713c-5.676 5.705-5.676 14.921 0 20.626l43.455 43.437c5.789 5.102 14.549 4.828 20.006-.628 5.458-5.455 5.733-14.211.628-19.998l-43.414-43.437a14.612 14.612 0 0 0-20.675 0z" opacity=".2"/>
            <path d="M245.935 941.945c5.641 5.788 14.772 5.788 20.414 0l42.992-44.204.071-.084.082-.084c5.627-5.802 5.627-15.193 0-20.994l-42.92-44.225c-5.655-5.805-14.812-5.805-20.466 0-5.61 5.808-5.61 15.185 0 20.994l32.765 33.686-32.938 33.917c-5.628 5.802-5.628 15.193 0 20.994z"/>
            <path d="M204.7 966.182c-5.505 5.639-5.505 14.75 0 20.389l42.135 42.928a13.978 13.978 0 0 0 20.008 0l32.362-32.968 32.101 32.713a13.983 13.983 0 0 0 19.4-.62c5.291-5.393 5.558-14.048.608-19.768l-42.126-42.94a14.008 14.008 0 0 0-20.007 0l-.12.144c-.046.038-.09.078-.13.122l-32.072 32.714-32.112-32.714a14.032 14.032 0 0 0-10.024-4.236c-3.76 0-7.366 1.524-10.024 4.236z" opacity=".2"/>
            <path d="M331.222 1201.194a15.87 15.87 0 0 0 21.515.122l168.344-169.422c4.916-5.73 4.604-14.308-.715-19.662a14.29 14.29 0 0 0-19.535-.719l-158.745 159.722-33.21-33.383a14.3 14.3 0 0 0-10.15-4.235 14.3 14.3 0 0 0-10.15 4.235l-42.675 42.91c-5.582 5.632-5.582 14.749 0 20.38l72.898 73.37-33.19 33.394c-5.093 5.72-4.85 14.45.552 19.875a14.29 14.29 0 0 0 19.749.505l42.635-42.921c5.557-6.22 5.535-15.664-.05-21.858l-72.15-72.616 22.346-22.5 32.53 32.803z"/>
            <path d="M602.659 749.912a14.204 14.204 0 0 0-20.163 0l-201.625 203.05-32.502-32.792a14.234 14.234 0 0 0-20.213 0c-5.541 5.618-5.541 14.687 0 20.305l42.462 42.752a14.2 14.2 0 0 0 17.31 2.224 13.867 13.867 0 0 0 3.579-2.63l211.152-212.543a14.427 14.427 0 0 0 4.198-10.183c0-3.821-1.51-7.485-4.198-10.183z" opacity=".7"/>
            <path d="M269.13 752.508c-5.546-2.936-12.322-1.886-16.757 2.597l-42.495 43.236c-5.551 5.678-5.551 14.852 0 20.53a14.143 14.143 0 0 0 20.178 0l32.375-32.94 112.997 114.968a14.113 14.113 0 0 0 20.178 0l42.495-43.226c5.58-5.687 5.58-14.895 0-20.581a14.143 14.143 0 0 0-20.228 0l-32.376 32.95L272.5 755.074a14.228 14.228 0 0 0-3.37-2.566z" opacity=".4"/>
            <path d="M35.053 983.231c5.582 5.597 14.618 5.597 20.2 0l84.06-84.485a14.089 14.089 0 0 0 2.737-3.878c3.012-5.594 2.01-12.513-2.464-17.012l-32.43-32.584L350.287 600.92a14.43 14.43 0 0 0 4.123-14.101 14.347 14.347 0 0 0-10.353-10.38 14.265 14.265 0 0 0-14.02 4.18L76.796 835.12c-5.568 5.611-5.568 14.692 0 20.302l32.551 32.716-74.294 74.751a14.41 14.41 0 0 0-4.196 10.171 14.41 14.41 0 0 0 4.196 10.171z" opacity=".6"/>
            <path d="M729.024 204.988a14.295 14.295 0 0 0-20.27 0c-5.577 5.643-5.577 14.76 0 20.404l42.689 42.97a14.305 14.305 0 0 0 20.27 0l.05-.051v-.051l211.48-212.79c5.581-5.64 5.581-14.762 0-20.403a14.305 14.305 0 0 0-20.271 0L761.547 237.726l-32.523-32.738zM669.236 246.509L502.424 413.424c-4.982 5.653-4.714 14.208.612 19.537 5.326 5.33 13.876 5.598 19.525.613L689.454 266.7a14.282 14.282 0 0 0-6.033-24.572 14.262 14.262 0 0 0-14.105 4.422l-.08-.04z" opacity=".4"/>
            <path d="M92.108 771.796l296.096-295.777a14.26 14.26 0 0 0 2.039-2.607c5.604-5.636 5.604-14.733 0-20.369l-74.113-74.03 75.663-75.579c5.61-5.633 5.61-14.735 0-20.369l-42.945-42.886c-5.72-5.04-14.378-4.768-19.771.62-5.394 5.387-5.665 14.034-.62 19.749l32.748 32.712-75.663 75.579c-5.638 5.641-5.638 14.778 0 20.42l74.43 74.346-288.307 287.77a14.432 14.432 0 0 0-4.383 14.226 14.45 14.45 0 0 0 10.523 10.538 14.468 14.468 0 0 0 14.252-4.343h.05z" opacity=".3"/>
            <path d="M309.368 281.886c-.081-.092-.183-.164-.264-.246l-.243-.276-32.533-32.854 32.523-32.844c4.01-3.57 5.724-9.094 4.448-14.337-1.275-5.243-5.329-9.336-10.52-10.624a14.276 14.276 0 0 0-14.198 4.492l-42.689 43.099c-5.57 5.663-5.57 14.806 0 20.47l33.04 33.365-32.533 32.843c-5.604 5.67-5.604 14.851 0 20.521a14.282 14.282 0 0 0 20.27 0l42.679-43.109a14.565 14.565 0 0 0 4.216-10.246 14.565 14.565 0 0 0-4.196-10.254z" opacity=".7"/>
            <path d="M30.857 637.685c0 3.814 1.525 7.472 4.235 10.165l42.98 42.835c5.726 5.03 14.39 4.759 19.789-.618a14.363 14.363 0 0 0 .62-19.712l-32.756-32.629 22.868-22.78 32.756 32.63c5.665 5.631 14.837 5.631 20.5 0l84.34-84.013c.36-.292.7-.607 1.02-.946 5.626-5.618 5.626-14.711 0-20.33l-32.837-32.72 32.592-32.467c5.615-5.623 5.615-14.707 0-20.33-5.642-5.598-14.766-5.598-20.408 0l-42.96 42.713a14.376 14.376 0 0 0-4.241 10.19c0 3.823 1.525 7.49 4.24 10.19a15.16 15.16 0 0 0 1.878 1.566l31.072 30.942-64.89 64.639-32.786-32.66c-5.647-5.587-14.762-5.587-20.409 0l-.091.102c-.082.081-.174.142-.245.223L35.092 627.49a14.335 14.335 0 0 0-4.235 10.195z" opacity=".6"/>
            <path d="M72.07 510.129c.052.46.115.92.21 1.381a13.726 13.726 0 0 0 1.055 3.286 14.45 14.45 0 0 0 2.997 4.196l44.445 43.097c5.921 5.064 14.88 4.792 20.462-.622 5.582-5.414 5.863-14.104.642-19.847l-33.861-32.852 77.874-75.541a14.304 14.304 0 0 0 3.292-4.81c2.262-5.404.97-11.596-3.282-15.72l-44.434-43.108c-3.755-3.782-9.323-5.302-14.56-3.975-5.237 1.327-9.326 5.294-10.695 10.374-1.368 5.079.2 10.48 4.098 14.12l33.872 32.854-77.8 75.52c-3.162 3.061-4.745 7.334-4.316 11.647z" opacity=".7"/>
            <path d="M792.658 144.76c.24.253.481.485.732.717l.24.211c.494.432 1.013.83 1.554 1.193.301.19.602.38.913.548 5.508 3.043 12.256 1.961 16.653-2.67l83.699-88.074c4.96-5.92 4.694-14.878-.61-20.459-5.304-5.58-13.817-5.862-19.443-.642l-73.642 77.493-73.993-77.862c-5.544-5.81-14.509-5.81-20.052 0-5.517 5.836-5.517 15.265 0 21.1l83.949 88.445z" opacity=".3"/>
            <path d="M1052.868 53.459a15.005 15.005 0 0 0 3.01 1.799c1.058.482 2.173.836 3.32 1.055.46.089.927.152 1.395.191 1.875.177 3.768.003 5.575-.512a14.662 14.662 0 0 0 6.205-3.588L1126.286 0h-41.461L1062 22.182 1039.175 0h-41.46l53.922 52.404c.39.373.801.725 1.231 1.055zM1219.258 227.1c5.803 5.772 15.178 5.772 20.98 0 5.778-5.802 5.778-15.183 0-20.984l-87.938-87.939a14.863 14.863 0 0 0-25.585 6.286 14.867 14.867 0 0 0 4.604 14.697l87.94 87.94zM1240.395 52.423a14.19 14.19 0 0 0 0-20.109L1207.961 0h-40.532l52.745 52.423c5.593 5.531 14.629 5.531 20.221 0z" opacity=".4"/>
            <path d="M1215.332 139.723a14.244 14.244 0 0 0 6.117 3.669c1.324.397 2.698.602 4.079.608a14.681 14.681 0 0 0 2.763-.268c.915-.176 1.81-.446 2.671-.804a14.346 14.346 0 0 0 4.782-3.205L1363.77 10.307A14.665 14.665 0 0 0 1368 0h-34.892l-107.56 108.73-75.258-76.067a14.335 14.335 0 0 0-19.773.627c-5.393 5.452-5.665 14.204-.62 19.987l85.435 86.446zM858.894 10.781L869.143 0h-36c.098 4.054 1.673 7.914 4.4 10.781 5.898 6.197 15.453 6.197 21.35 0zM941.886 10.781c2.726-2.867 4.302-6.727 4.4-10.781h-36l10.249 10.781c5.898 6.197 15.452 6.197 21.35 0z" opacity=".4"/>
            <path d="M479.059 708.749c-5.86-5.57-15.317-5.57-21.176 0l-33.605 32.124-33.542-32.124c-5.893-5.432-15.245-5.348-21.03.19-5.786 5.537-5.874 14.488-.198 20.128l33.552 32.073-33.552 32.104c-5.82 5.608-5.82 14.66 0 20.268 5.865 5.603 15.363 5.603 21.228 0l33.542-32.114 33.552 32.114c5.954 4.92 14.866 4.608 20.429-.715 5.562-5.324 5.888-13.855.747-19.553l-33.5-32.104 33.553-32.113c5.826-5.61 5.826-14.67 0-20.278z"/>
            <path d="M624.732 52.401c5.747 5.56 15.033 5.56 20.78 0L699.43 0h-41.656l-22.63 22.011L612.513 0h-41.656l53.875 52.401zM158.668 93.574c5.829 5.52 15.264 5.52 21.093 0l88.465-83.94c2.692-2.566 4.247-6.013 4.345-9.634H236.08l-77.412 73.505c-2.806 2.66-4.382 6.27-4.382 10.034 0 3.765 1.576 7.375 4.382 10.035z" opacity=".4"/>
            <path d="M31.465 133.469c.323.399.665.788 1.008 1.156a14.132 14.132 0 0 0 20.17 0l41.5-42.055c4.99-5.743 4.72-14.434-.614-19.848a14.138 14.138 0 0 0-19.556-.623l-31.375 31.76-32.271-32.752A14.142 14.142 0 0 0 0 66.859v34.8l30.325 30.776c.36.366.741.711 1.14 1.034zM10.892 1342.52L0 1332v36c4.087.002 8.007-1.57 10.892-4.366 2.904-2.797 4.537-6.595 4.537-10.557 0-3.961-1.633-7.76-4.537-10.557zM139.702 1130.429c-5.73-5.524-14.998-5.524-20.728 0L0 1245.506v40.208l139.702-135.187c5.73-5.552 5.73-14.546 0-20.098z" opacity=".6"/>
            <path d="M76.312 263.207c5.739 5.629 15.011 5.629 20.75 0l42.634-42.037a14.505 14.505 0 0 0 0-20.625l-42.633-42.038c-5.74-5.629-15.012-5.629-20.751 0a14.344 14.344 0 0 0 0 20.461l32.299 31.858-32.3 31.869A14.395 14.395 0 0 0 72 252.95c0 3.847 1.551 7.537 4.312 10.256z"/>
            <path d="M97.27 344.92l201.293-197.655L458.08 303.952c5.623 5.509 14.725 5.509 20.348 0l.071-.08.072-.06L690.087 96.116a13.99 13.99 0 0 0 0-19.985c-5.623-5.508-14.724-5.508-20.348 0L468.295 273.976 308.737 117.219l-.062-.06c-5.623-5.509-14.724-5.509-20.347 0-.36.372-.7.762-1.018 1.17L76.882 324.934c-4.025 3.486-5.746 8.88-4.465 13.998 1.28 5.118 5.35 9.115 10.56 10.372 5.212 1.257 10.704-.432 14.253-4.385h.04z" opacity=".4"/>
            <path d="M411.783 186.129c5.707 5.542 14.928 5.542 20.635 0L566.6 55.169a14.046 14.046 0 0 0 0-20.147c-5.703-5.553-14.933-5.553-20.636 0L422.152 155.907 302.612 39.153c-5.708-5.543-14.929-5.543-20.636 0a14.037 14.037 0 0 0 0 20.147L411.783 186.13z" opacity=".7"/>
            <path d="M263.191 76.183a14.14 14.14 0 0 0-20.08 0l-73.692 74.41-31.264-31.578a14.154 14.154 0 0 0-14.124-4.577c-5.185 1.267-9.233 5.355-10.488 10.59-1.255 5.236.494 10.741 4.532 14.262l41.254 41.645a14.358 14.358 0 0 0 20.31 0l83.642-84.456c5.53-5.606 5.53-14.67 0-20.275l-.09-.02z" opacity=".3"/>
            <path d="M52.395 563.282c5.569-5.755 5.569-15.053 0-20.808L0 488.571v41.71l21.962 22.576L0 575.434v41.709l52.385-53.85.01-.011zM41.557 478.286c3.838-.001 7.518-1.543 10.228-4.285l41.721-42.09c5.611-5.718 5.611-14.931 0-20.649L51.478 368.8a14.396 14.396 0 0 0-19.834.628c-5.41 5.46-5.683 14.227-.622 20.02l31.78 32.076-21.255 21.443-31.769-32.076A14.358 14.358 0 0 0 0 406.627v35.814l31.309 31.591a14.333 14.333 0 0 0 10.248 4.254zM52.381 1130.506a14.31 14.31 0 0 0-10.143-4.22 14.31 14.31 0 0 0-10.144 4.22L0 1162.712v40.717l52.381-52.58c5.587-5.621 5.587-14.721 0-20.343zM93.575 1116.77c5.519-5.828 5.519-15.262 0-21.09L9.65 1007.211c-2.565-2.705-6.021-4.265-9.65-4.355v36.467l73.515 77.446c5.542 5.83 14.519 5.83 20.06 0zM10.718 919.25C7.87 916.932 4.041 915.567 0 915.43v30.857l10.718-8.654c6.28-5.078 6.28-13.304 0-18.382zM52.336 813.512a14.305 14.305 0 0 0 0-20.27L20.68 761.7l31.656-31.48a14.321 14.321 0 0 0 4.235-10.16c0-3.812-1.523-7.467-4.235-10.161-.102-.102-.224-.193-.336-.294-.112-.101-.194-.233-.296-.335L9.825 667.625A14.45 14.45 0 0 0 0 663.429v35.057l21.699 21.578L0 741.632v40.146l31.911 31.734c5.643 5.603 14.783 5.603 20.425 0z" opacity=".6"/>
            <path d="M479.222 626.536a14.212 14.212 0 0 0-20.272 0l-32.132 32.576-31.564-31.939a14.242 14.242 0 0 0-20.323 0l-41.61 42.239c-5.571 5.688-5.571 14.87 0 20.56a14.242 14.242 0 0 0 20.324 0l31.473-31.888 31.493 31.938a14.242 14.242 0 0 0 20.323 0l.294-.339c.111-.103.233-.195.334-.308l41.65-42.239a14.66 14.66 0 0 0 4.217-10.298 14.66 14.66 0 0 0-4.207-10.302z" opacity=".7"/>
            <path d="M690.116 690.038c5.56-5.654 5.56-14.79 0-20.444l-116.572-117.96 74.13-74.998c5-5.736 4.731-14.415-.614-19.822a14.2 14.2 0 0 0-19.596-.622l-83.346 84.31c-5.529 6.468-5.486 16.072.1 22.488l125.637 127.048a14.237 14.237 0 0 0 10.13 4.248c3.8 0 7.445-1.528 10.13-4.248z" opacity=".4"/>
            <path d="M768.501 321.586a14.197 14.197 0 0 0-18.298 1.504l-82.676 82.651c-5.194 6.263-4.831 15.435.842 21.267l31.151 31.153-73.101 73.056c-5.511 5.548-5.511 14.505 0 20.053 5.554 5.545 14.549 5.545 20.103 0l82.696-82.7c.07-.071.12-.151.19-.221l.221-.191c5.544-5.554 5.544-14.55 0-20.104l-32.164-32.156 62.985-62.988 32.154 32.166c5.554 5.545 14.549 5.545 20.103 0 .08-.08.14-.17.22-.24.08-.07.16-.141.24-.221l82.687-82.701c5.528-5.542 5.528-14.512 0-20.054-5.541-5.528-14.51-5.528-20.052 0l-73.122 73.116-31.151-31.154a13.977 13.977 0 0 0-3.028-2.236z" opacity=".7"/>
            <path d="M690.063 772.283a14.247 14.247 0 0 0 0-20.247l-85.16-84.422c-5.643-5.58-14.78-5.58-20.424 0a14.247 14.247 0 0 0 0 20.248l74.927 74.277-202.6 200.793a14.278 14.278 0 0 0 0 20.298c5.658 5.598 14.82 5.598 20.476 0l212.781-210.947z" opacity=".4"/>
            <path d="M561.419 621.3l-42.178-41.705c-5.76-5.022-14.475-4.752-19.905.617a14.265 14.265 0 0 0-.624 19.682l31.892 31.534-31.892 31.535a14.258 14.258 0 0 0 0 20.299l31.82 31.463-31.892 31.534c-4.061 3.541-5.797 9.02-4.505 14.218 1.291 5.2 5.397 9.259 10.655 10.536 5.258 1.277 10.798-.44 14.38-4.455l40.678-40.222c.578-.408 1.12-.863 1.622-1.36a14.258 14.258 0 0 0 0-20.299l-31.892-31.534 31.892-31.535a14.258 14.258 0 0 0-.051-20.309z" opacity=".4"/>
            <path d="M76.161 1025.131l.512.467c.16.173.301.356.462.518l115.421 116.787-156.883 158.77c-3.97 3.543-5.668 9.024-4.405 14.227 1.263 5.202 5.277 9.263 10.419 10.541 5.14 1.278 10.558-.44 14.06-4.457l166.498-168.468c5.464-6.127 5.377-15.468-.2-21.49l-115.704-117.07 114.218-115.55c5.721-6.059 6.15-15.46 1.003-22.026l-39.916-40.388a14.103 14.103 0 0 0-19.725.353c-5.412 5.463-5.588 14.278-.398 19.957l30.18 30.538-115.542 116.94c-5.522 5.617-5.522 14.693 0 20.31v.041zM10.767 1116.731c6.216-5.909 6.216-15.456 0-21.365L0 1085.143v36c4.051-.124 7.9-1.701 10.767-4.412zM52.376 900.93c5.594-5.625 5.594-14.736 0-20.362L0 828v40.706l32.091 32.225c5.604 5.616 14.68 5.616 20.285 0z" opacity=".6"/>
            <path d="M137.12 53.105l11.342-11.335.326-.296L190.286 0h-40.957l-32.666 32.648c-4.958 5.738-4.643 14.326.72 19.686 5.363 5.36 13.956 5.674 19.696.72l.041.05zM365.56 46.513l6.191 6.215c5.681 5.258 14.52 5.102 20.01-.352 5.491-5.455 5.67-14.257.405-19.928l-6.211-6.185L359.675 0h-40.818L365.5 46.492l.06.02z" opacity=".4"/>
            <path d="M1429.26 267.705l10.74 10.01V236.57l-10.74 10.02c-6.251 5.833-6.251 15.281 0 21.114z" opacity=".6"/>
            <path d="M1261.476 327.509l-171.401 167.074c-4.066 3.496-5.805 8.903-4.511 14.035 1.293 5.132 5.404 9.14 10.67 10.4 5.264 1.261 10.812-.433 14.398-4.397l171.442-167.035c5.085-5.621 4.812-14.128-.626-19.428-5.437-5.3-14.164-5.567-19.93-.61l-.042-.04z" opacity=".3"/>
            <path d="M1009.19 328.125l-32.548 32.322-32.172-31.94c-5.611-5.556-14.693-5.556-20.304 0l-116.202 115.32-32.183-31.95a14.453 14.453 0 0 0-14.103-4.114c-5.105 1.297-9.088 5.26-10.38 10.332a14.215 14.215 0 0 0 4.179 13.99l42.345 42.038c5.613 5.55 14.69 5.55 20.304 0l.264-.283.294-.262 115.634-114.724 32.172 31.94c5.611 5.555 14.693 5.555 20.304 0 .061-.061.112-.132.183-.192l.193-.182 42.355-42.047a14.218 14.218 0 0 0 0-20.158c-5.596-5.585-14.688-5.625-20.335-.09zM1022.841 411.15a14.354 14.354 0 0 0-24.712 6.073 14.366 14.366 0 0 0 4.447 14.199l42.263 42.278a14.354 14.354 0 0 0 24.436-6.253c1.29-5.1-.31-10.499-4.171-14.07l-42.263-42.227z" opacity=".4"/>
            <path d="M712.533 711.328c-5.197 5.744-4.917 14.436.64 19.852 5.555 5.415 14.474 5.688 20.367.623l43.822-42.7a14.457 14.457 0 0 0 0-20.679l-78.011-76.021 76.53-74.588c5.197-5.744 4.917-14.437-.64-19.852-5.556-5.415-14.474-5.688-20.368-.623l-87.085 84.836c-.894.86-1.667 1.83-2.3 2.887a14.148 14.148 0 0 0-1.996 5.978c0 .46-.063.922-.063 1.393 0 .47 0 .92.063 1.392a14.296 14.296 0 0 0 4.296 8.865l78.084 76.103-33.339 32.534z" opacity=".7"/>
            <path d="M713.903 813.521c5.585 5.59 14.618 5.59 20.203 0l125.766-126.324c5.466-5.496 5.595-14.362.293-20.017a15.828 15.828 0 0 0-1.597-1.929l-31.385-31.538 115.421-115.971c5.096-5.685 4.876-14.382-.501-19.8a14.274 14.274 0 0 0-19.702-.552L796.807 623.542l-.172.173c-5.586 5.623-5.586 14.729 0 20.352.624.61 1.3 1.164 2.02 1.654l31.013 31.163L713.903 793.18c-5.585 5.619-5.585 14.722 0 20.341z" opacity=".4"/>
            <path d="M1130.536 304.326c5.691 5.66 14.887 5.66 20.578 0l42.926-42.926c5.661-5.692 5.661-14.887 0-20.579-5.69-5.666-14.89-5.666-20.578 0l-42.916 42.916c-5.676 5.688-5.681 14.896-.01 20.589z" opacity=".3"/>
            <path d="M1157.823 199.68c-5.852-5.668-15.325-5.668-21.177 0l-87.112 84.586c-.408.32-.797.664-1.165 1.028-5.825 5.687-5.825 14.876 0 20.563l.053.051 33.566 32.685-33.555 32.593c-5.838 5.682-5.838 14.88 0 20.563 5.852 5.668 15.325 5.668 21.177 0l44.25-42.874c5.825-5.687 5.825-14.876 0-20.563l-.054-.052-33.502-32.53 77.604-75.354c5.837-5.682 5.837-14.88 0-20.563l-.085-.133z"/>
            <path d="M1387.584 117.325c-5.54 5.608-5.54 14.66 0 20.267L1440 190.286v-40.544l-32.256-32.427a14.25 14.25 0 0 0-20.16.01zM1387.621 391.827a14.243 14.243 0 0 0 20.146 0L1440 359.432v-40.575l-52.379 52.642a14.402 14.402 0 0 0-4.192 10.164c0 3.813 1.508 7.47 4.192 10.164zM1429.146 71.304c-6.1 5.855-6.1 15.322 0 21.177L1440 102.857v-36c-4.078.05-7.973 1.624-10.854 4.384v.063z" opacity=".6"/>
            <path d="M1259.72 10.515c.123.13.226.273.35.404 5.674 6.013 14.85 6.013 20.525 0L1290.857 0h-41.143l9.555 10.165.451.35z" opacity=".4"/>
            <path d="M1387.612 1321.794c.374.376.77.73 1.187 1.059.331.4.673.799 1.055 1.178l40.093 39.825A14.254 14.254 0 0 0 1440 1368v-34.173l-22.188-22.039 22.188-22.04v-40.034l-52.418 52.068a14.093 14.093 0 0 0 .03 20.012zM1406.92 302.825c4.08-3.533 5.823-8.998 4.525-14.185-1.297-5.187-5.422-9.237-10.704-10.511-5.282-1.274-10.848.438-14.445 4.444l-86.032 84.48a14.156 14.156 0 0 0 0 20.252L1440 524.571v-40.594l-108.78-106.818 75.7-74.334z" opacity=".6"/>
            <path d="M1281.529 410.416c-5.619-5.507-14.688-5.507-20.306 0l-159.18 157.035-157.84-155.753c-6.1-5.528-15.462-5.571-21.615-.1L754.453 577.52a14.06 14.06 0 0 0 .618 19.428c5.37 5.3 13.992 5.567 19.688.61L933.35 441.144l158.51 156.424c5.609 5.529 14.697 5.529 20.306 0l169.312-167.064a14.084 14.084 0 0 0 .05-20.088z" opacity=".3"/>
            <path d="M1321.396 309.35l87.838-87.811a14.921 14.921 0 0 0-6.307-25.68 14.915 14.915 0 0 0-14.747 4.622l-87.827 87.843c-5.804 5.82-5.804 15.239 0 21.058 5.825 5.789 15.235 5.775 21.043-.032zM1387.619 648.956a14.212 14.212 0 0 0 20.146 0L1440 616.554V576l-52.381 52.654a14.376 14.376 0 0 0-4.19 10.151c0 3.809 1.507 7.461 4.19 10.151zM1423.819 436.514l11.038 10.915v-35.991c-6.126-.213-11.76 3.291-14.198 8.831-2.438 5.54-1.185 11.985 3.16 16.245zM1423.826 688.596l11.031 10.833v-35.995c-6.148-.16-11.775 3.371-14.205 8.914-2.43 5.543-1.173 11.98 3.174 16.248zM1326.767 456.828a14.486 14.486 0 0 0-20.511 0l-42.035 42.089c-5.628 5.666-5.628 14.82 0 20.486l42.035 42.089c5.66 5.63 14.799 5.63 20.46 0 .266-.267.501-.543.736-.82l30.966-31.006 31.785 31.826c5.74 5.068 14.425 4.795 19.837-.623 5.411-5.419 5.684-14.116.622-19.863l-42.034-42.09c-5.654-5.646-14.806-5.646-20.46 0-.061 0-.102.113-.154.165l-.173.153-31.416 31.457-21.483-21.51 31.825-31.867c5.628-5.666 5.628-14.82 0-20.486z" opacity=".6"/>
            <path d="M1240.295 544.181c-5.715-5.575-14.967-5.575-20.683 0l-42.495 41.552-.124.131-.124.112c-2.752 2.687-4.298 6.334-4.298 10.137 0 3.803 1.546 7.45 4.298 10.138l32.163 31.45-32.06 31.348a14.52 14.52 0 0 0-.062 20.609l42.402 41.602c5.723 5.558 14.96 5.558 20.683 0a14.125 14.125 0 0 0 0-20.275l-32.225-31.602 32.329-31.61c2.751-2.688 4.297-6.335 4.297-10.138s-1.546-7.45-4.297-10.138c-.197-.192-.403-.364-.61-.546l-31.584-30.873 32.39-31.672a14.095 14.095 0 0 0 0-20.225z" opacity=".2"/>
            <path d="M1147.851 627.415a14.139 14.139 0 0 0-20.014 0l-31.092 31.253-113.971-114.5a14.16 14.16 0 0 0-4.003-2.816 14.814 14.814 0 0 0-2.002-.774 14.12 14.12 0 0 0-14.01 3.59l-84.34 84.776c-5.511 5.562-5.511 14.556 0 20.118l31.233 31.383-31.143 31.303c-4.951 5.644-4.684 14.185.61 19.506a14.127 14.127 0 0 0 19.405.612l41.119-41.332c5.513-5.665 5.473-14.733-.09-20.349l-31.082-31.252 64.276-64.588 113.93 114.57a14.085 14.085 0 0 0 4.694 3.128c.847.345 1.725.608 2.622.785.894.172 1.802.26 2.712.261a14.202 14.202 0 0 0 4.003-.593 14.086 14.086 0 0 0 6.004-3.581l41.12-41.332a14.29 14.29 0 0 0 4.168-10.08 14.29 14.29 0 0 0-4.149-10.088zM1070.656 708.777c-5.612-5.607-14.68-5.607-20.292 0l-73.78 74.114-31.534-31.661c-5.608-5.618-14.684-5.618-20.292 0-5.582 5.637-5.582 14.744 0 20.38l41.69 41.873c.685.694 1.44 1.316 2.252 1.855.264.173.538.316.802.469.137.092.28.177.426.254.328.17.667.32 1.014.449l.315.153c.223.091.456.163.69.244.233.082.416.153.629.214l.233.061a14.313 14.313 0 0 0 14.022-3.699l73.76-74.094 31.524 31.661a14.331 14.331 0 0 0 19.674-.62c5.367-5.39 5.637-14.043.617-19.76l-41.75-41.893z" opacity=".4"/>
            <path d="M1073.53 790.563a14.574 14.574 0 0 0-20.088.636c-5.48 5.534-5.755 14.417-.63 20.287l42.523 43.05a14.576 14.576 0 0 0 20.717 0l42.565-42.987c5.125-5.87 4.85-14.753-.63-20.287a14.574 14.574 0 0 0-20.088-.637l-32.195 32.505-32.174-32.567zM1218.043 1130.607c-5.772 5.787-5.772 15.155 0 20.943l43.022 43.027c5.875 5.18 14.765 4.902 20.304-.637 5.538-5.54 5.817-14.43.637-20.306l-43.022-43.027c-5.792-5.762-15.149-5.762-20.94 0z" opacity=".4"/>
            <path d="M896.526 1041.484l-40.296-40.296c-5.503-4.852-13.83-4.591-19.017.596-5.188 5.188-5.449 13.515-.597 19.018l40.297 40.296c5.502 4.852 13.83 4.591 19.017-.597 5.188-5.187 5.449-13.514.596-19.017z" opacity=".2"/>
            <path d="M1046.627 1323.384c5.503 4.852 13.83 4.59 19.017-.597 5.188-5.188 5.449-13.514.597-19.017l-40.297-40.296c-5.502-4.853-13.829-4.592-19.017.596-5.187 5.188-5.449 13.515-.596 19.017l40.296 40.297z"/>
            <path d="M849.434 1110.857a14.586 14.586 0 0 0 13.46-8.996 14.539 14.539 0 0 0-3.167-15.857l-42.202-42.217a14.602 14.602 0 0 0-14.419-4.51 14.572 14.572 0 0 0-10.684 10.666 14.542 14.542 0 0 0 4.517 14.393l42.202 42.257a14.537 14.537 0 0 0 10.293 4.264z" opacity=".4"/>
            <path d="M773.944 1088.616c-5.502-4.852-13.829-4.59-19.017.597-5.187 5.188-5.449 13.514-.596 19.017l40.296 40.296c5.503 4.853 13.83 4.592 19.017-.596 5.188-5.188 5.449-13.515.597-19.017l-40.297-40.297z"/>
            <path d="M939.354 1024.757l115.463-116.487 31.707 31.988a14.805 14.805 0 0 0 20.622.254l31.195-31.472 31.165 31.502a14.136 14.136 0 0 0 19.47-.616c5.311-5.358 5.578-13.959.61-19.642l-41.255-41.612a14.148 14.148 0 0 0-20.08 0l-31.326 31.594-31.566-31.847a15.591 15.591 0 0 0-21.235.081l-124.89 125.948c-5.206 5.652-5.052 14.444.349 19.907a14.137 14.137 0 0 0 19.731.402h.04zM940.329 936.968c.09-.092.172-.194.253-.285.344-.285.679-.59 1.013-.906l82.367-82.763a14.468 14.468 0 0 0 4.17-14.13 14.39 14.39 0 0 0-10.358-10.434 14.31 14.31 0 0 0-14.072 4.155l-73.432 73.786-31.515-31.656c-5.603-5.6-14.656-5.6-20.26 0a14.458 14.458 0 0 0-4.21 10.204c0 3.828 1.515 7.5 4.21 10.204l41.624 41.825a14.315 14.315 0 0 0 20.21 0z" opacity=".4"/>
            <path d="M896.546 962.734l-41.001-41.953c-.19-.194-.39-.367-.579-.541-.19-.174-.339-.408-.529-.602a13.932 13.932 0 0 0-19.956 0l-207.407 212.185c-3.948 3.562-5.635 9.073-4.38 14.303 1.256 5.23 5.247 9.314 10.358 10.599 5.111 1.284 10.497-.442 13.978-4.481L844.4 950.298l32.11 32.856c5.598 5.052 14.07 4.78 19.349-.62 5.278-5.402 5.544-14.07.607-19.8h.08z" opacity=".3"/>
            <path d="M966.01 731.197c5.732 5.642 14.985 5.642 20.717 0l42.562-42.18.072-.083.083-.072a14.474 14.474 0 0 0 0-20.53l-42.562-42.18c-5.793-5.309-14.784-5.129-20.356.407a14.452 14.452 0 0 0-.36 20.174l32.172 31.895-32.328 31.987a14.474 14.474 0 0 0 0 20.582z"/>
            <path d="M1027.198 1107.076l117.414-115.824 31.684 31.255a14.512 14.512 0 0 0 10.22 4.184c.489-.002.977-.029 1.462-.08a14.486 14.486 0 0 0 9.015-4.125l126.244-124.465a14.146 14.146 0 0 0-.622-19.55c-5.406-5.334-14.084-5.603-19.82-.614L1186.68 992.34l-31.827-31.396c-5.649-5.559-14.792-5.559-20.441 0-.194.191-.368.393-.552.594l-127.154 125.333a14.148 14.148 0 0 0 .406 19.813c5.511 5.424 14.383 5.579 20.086.351v.04z" opacity=".2"/>
            <path d="M986.43 1070.63l84.196-84.202c5.641-5.663 5.641-14.823 0-20.487-5.666-5.636-14.82-5.636-20.485 0l-84.196 84.202c-5.641 5.664-5.641 14.823 0 20.487 5.666 5.636 14.82 5.636 20.486 0z" opacity=".3"/>
            <path d="M986.723 1239.778l166.854-166.921c4.981-5.652 4.713-14.205-.613-19.533-5.326-5.329-13.875-5.597-19.524-.613l-166.894 166.88a14.278 14.278 0 0 0 6.032 24.568 14.263 14.263 0 0 0 14.104-4.421l.04.04z" opacity=".2"/>
            <path d="M1321.783 791.223c-5.57-5.821-14.572-5.821-20.143 0l-73.965 77.706-31.393-32.98c-5.651-5.236-14.203-4.954-19.53.643-5.328 5.597-5.597 14.58-.613 20.518l40.286 42.323c.349.472.725.921 1.128 1.344 5.57 5.821 14.572 5.821 20.143 0l74.036-77.78 31.292 32.875c3.514 4.186 8.95 5.975 14.109 4.644 5.159-1.332 9.187-5.564 10.454-10.984 1.268-5.42-.435-11.13-4.42-14.822l-41.384-43.487z" opacity=".6"/>
            <path d="M689.199 919.632c-5.67-5.605-14.848-5.605-20.518 0l-42.154 41.777a14.306 14.306 0 0 0 0 20.334s.062.051.083.082l.082.091 42.153 41.777c3.58 4.022 9.116 5.741 14.371 4.462 5.256-1.28 9.359-5.346 10.65-10.554a14.328 14.328 0 0 0-4.503-14.242l-32.038-31.752 31.874-31.59a14.332 14.332 0 0 0 4.267-10.192c0-3.824-1.535-7.492-4.267-10.193z" opacity=".2"/>
            <path d="M601.088 1176.744c-5.61-5.563-14.688-5.563-20.296 0l-41.404 41.102-.335.343a14.233 14.233 0 0 0 0 20.183c.87.863 1.849 1.61 2.913 2.22l82.543 82.093c5.609 5.563 14.687 5.563 20.296 0l.315-.333c.101-.111.223-.202.335-.303l86.38-85.908a14.241 14.241 0 0 0-.618-19.568c-5.368-5.338-13.985-5.607-19.679-.614l-76.88 76.391-64.755-64.413 31.185-31.01a14.233 14.233 0 0 0 0-20.183z" opacity=".3"/>
            <path d="M713.89 983.252c5.583 5.569 14.62 5.569 20.202 0l126.33-126.328c4.998-5.668 4.729-14.245-.614-19.589-5.343-5.343-13.92-5.612-19.587-.614L713.89 963.009c-5.569 5.583-5.569 14.62 0 20.202v.04z" opacity=".4"/>
            <path d="M734.115 900.985l115.73-115.626 72.64 72.607c5.672 5 14.257 4.731 19.605-.615 5.348-5.345 5.617-13.925.615-19.595l-82.539-82.51-.151-.132-.081-.091c-5.595-5.554-14.626-5.554-20.22 0l-125.82 125.71c-5.573 5.586-5.573 14.626 0 20.211 5.577 5.583 14.622 5.6 20.22.04z" opacity=".4"/>
            <path d="M1296.84 709.398l-72.858 73.89-73.841-74.887a14.067 14.067 0 0 0-19.706.404c-5.394 5.484-5.548 14.311-.349 19.985l83.347 84.527a14.978 14.978 0 0 0 20.737.447l82.816-83.977c3.917-3.561 5.576-9.025 4.31-14.204-1.264-5.18-5.245-9.227-10.348-10.522-5.104-1.296-10.496.372-14.017 4.337h-.09z" opacity=".3"/>
            <path d="M1389.858 878.466l-125.683 126.753c-5.567 5.926-5.567 15.206 0 21.132l84.735 85.436a14.227 14.227 0 0 0 20.211 0c5.572-5.631 5.572-14.747 0-20.378l-74.942-75.573 115.94-116.9c5.555-5.639 5.555-14.74 0-20.378a14.257 14.257 0 0 0-20.26-.092zM1387.672 1235.228c5.613 5.6 14.684 5.6 20.298 0l32.03-32.125v-40.817l-52.37 52.523a14.445 14.445 0 0 0-4.201 10.218c.007 3.83 1.534 7.5 4.243 10.201z" opacity=".6"/>
            <path d="M1410.1 1130.525a14.196 14.196 0 0 0-20.238 0l-84.324 85.549a14.65 14.65 0 0 0-4.205 10.29 14.65 14.65 0 0 0 4.205 10.289c.71.715 1.49 1.355 2.328 1.909l29.76 30.175-74.042 75.1c-5.007 5.76-4.737 14.474.616 19.903a14.193 14.193 0 0 0 19.623.625l84.313-85.518a14.58 14.58 0 0 0 4.192-11.455c-.34-4.259-2.52-8.147-5.953-10.622l-30.246-30.679 73.96-75.007c5.591-5.678 5.596-14.875.01-20.559z" opacity=".6"/>
            <path d="M1110.684 1282.86l75.117-75.168 64.8 64.845-75.117 75.158a14.546 14.546 0 0 0 6.145 25.028 14.528 14.528 0 0 0 14.367-4.504l85.395-85.44.061-.062a14.545 14.545 0 0 0 0-20.575 14.359 14.359 0 0 0-1.19-1.026l-83.076-83.121c-.317-.414-.66-.809-1.026-1.18-5.668-5.658-14.844-5.658-20.512 0l-85.466 85.501a14.556 14.556 0 0 0 6.084 25.157 14.539 14.539 0 0 0 14.428-4.633l-.01.02z" opacity=".4"/>
            <path d="M1423.83 1028.021l11.027 10.836v-35.994c-6.146-.167-11.775 3.363-14.205 8.908-2.43 5.544-1.172 11.983 3.178 16.25z" opacity=".6"/>
            <path d="M1341.297 1003.04a14.31 14.31 0 0 0-4.154 10.07c0 .463 0 .916.07 1.37.07.452.11.905.19 1.358a14.183 14.183 0 0 0 3.894 7.37l83 83.481a14.09 14.09 0 0 0 10.52 4.158v-33.931l-63.381-63.806 63.421-63.796v-33.872a14.099 14.099 0 0 0-10.63 4.159l-82.93 83.44zM1403.456 728.063c4.934-5.6 4.668-14.072-.607-19.35-5.275-5.279-13.742-5.544-19.337-.607l-42.23 42.249a14.062 14.062 0 0 0-3.56 5.987c-.254.87-.425 1.762-.51 2.664-.047.45-.07.904-.069 1.357-.002.454.021.907.07 1.357a14.064 14.064 0 0 0 4.068 8.642L1434.857 864v-40.094l-63.59-63.643 32.189-32.2zM1429.166 771.556L1440 781.714v-41.143l-10.834 10.159c-6.126 5.754-6.126 15.072 0 20.826z" opacity=".6"/>
            <path d="M1302.8 1150.282c5.637 5.225 14.405 5.07 19.852-.35 5.447-5.421 5.625-14.168.401-19.804l-82.04-81.869-.09-.1c-5.588-5.545-14.615-5.545-20.203 0l-168 167.545c-4.997 5.655-4.728 14.211.615 19.542 5.343 5.33 13.92 5.6 19.588.613l157.868-157.368 72.01 71.791z"/>
            <path d="M158.497 1363.853c5.61 5.53 14.689 5.53 20.298 0l84.45-83.439a14.112 14.112 0 0 0 0-20.057l-42.342-41.83c-3.54-3.968-9.018-5.664-14.217-4.402-5.199 1.262-9.258 5.273-10.535 10.41-1.277 5.137.44 10.55 4.454 14.05l32.162 31.79-74.27 73.39a14.116 14.116 0 0 0-4.211 10.045c0 3.767 1.515 7.38 4.211 10.043zM438.018 1343.955c-.156-.157-.333-.292-.5-.448-.167-.156-.292-.344-.448-.5l-41.552-41.523c-.198-.198-.407-.375-.615-.552-.208-.177-.354-.416-.552-.614-5.772-5.757-15.12-5.757-20.891 0l-44.574 44.542a14.758 14.758 0 0 0-4.443 14.555 14.77 14.77 0 0 0 10.78 10.746 14.781 14.781 0 0 0 14.554-4.477l34.134-34.11 22.787 22.793-34.134 34.099a14.747 14.747 0 0 0-4.573 14.585 14.759 14.759 0 0 0 10.816 10.808 14.77 14.77 0 0 0 14.596-4.57l44.574-44.542c5.729-5.742 5.747-15.028.041-20.792z" opacity=".3"/>
            <path d="M517.365 1345.065l-117.12-116.343 161.841-160.768a14.349 14.349 0 0 0-.623-19.731c-5.418-5.382-14.116-5.654-19.863-.619l-170.384 169.173c-.194.183-.358.397-.543.59a14.369 14.369 0 0 0-5.505 10.471 14.345 14.345 0 0 0 4.235 11.04l117.16 116.363-75.48 74.98c-2.62 2.601-4.134 6.102-4.231 9.779h35.441l75.072-74.584a14.36 14.36 0 0 0 0-20.35zM1199.375 1261.428c-5.55-5.57-14.657-5.705-20.376-.3l-120.156 114.126-118.15-115.611c-3.554-3.946-9.053-5.632-14.272-4.377-5.218 1.255-9.293 5.244-10.575 10.352-1.282 5.11.44 10.492 4.471 13.972l127.88 125.186c.032.038.07.072.111.1 5.551 5.57 14.657 5.704 20.376.299l130.406-123.82a13.932 13.932 0 0 0 .285-19.927z" opacity=".4"/>
            <path d="M919.571 1194.046a14.53 14.53 0 0 0 10.262 4.24 14.53 14.53 0 0 0 10.262-4.24l43.105-42.963c5.638-5.64 5.638-14.763 0-20.405h-.05l-42.062-41.921c-5.744-5.049-14.435-4.777-19.85.62a14.422 14.422 0 0 0-.623 19.784l31.907 31.802-32.859 32.75c-5.61 5.61-5.651 14.673-.092 20.333z" opacity=".2"/>
            <path d="M900.473 1130.5a14.289 14.289 0 0 0-20.267 0l-41.416 41.664a14.21 14.21 0 0 0-1.47 1.264c-5.57 5.641-5.57 14.747 0 20.388l32.428 32.621-30.168 30.348a14.814 14.814 0 0 0-2.25 1.855c-5.575 5.639-5.575 14.75 0 20.388l42.683 42.938a14.307 14.307 0 0 0 14.196 4.474c5.19-1.283 9.244-5.36 10.519-10.582a14.498 14.498 0 0 0-4.448-14.28l-32.316-32.51 30.847-31.03a14.578 14.578 0 0 0 5.954-12.422 14.56 14.56 0 0 0-7.028-11.84l-29.884-29.97 32.62-32.825a14.478 14.478 0 0 0 4.235-10.24c0-3.845-1.524-7.53-4.235-10.24zM813.535 1215.664l-83.646-85.137a14.094 14.094 0 0 0-20.156 0c-.497.51-.955 1.06-1.37 1.641l-82.508 83.978c-4.986 5.755-4.718 14.465.613 19.89a14.1 14.1 0 0 0 19.543.625l73.901-75.218 63.32 64.54-32.34 32.926c-5.557 5.67-5.557 14.846 0 20.515l42.437 43.205a14.124 14.124 0 0 0 20.156 0c5.54-5.677 5.54-14.84 0-20.515l-32.35-32.917 32.35-32.926a14.676 14.676 0 0 0 4.23-10.293 14.678 14.678 0 0 0-4.18-10.314z" opacity=".4"/>
            <path d="M728.3 1299.372c-5.592-5.582-14.642-5.582-20.233 0l-72.158 72.233-148.708-148.86 157.812-157.975.101-.122.122-.11c5.577-5.598 5.577-14.657 0-20.254l-70.58-70.724 116.396-116.577c5.005-5.682 4.736-14.28-.616-19.637-5.351-5.357-13.94-5.627-19.617-.616L543.761 963.828a14.328 14.328 0 0 0 3.318 22.765l67.707 67.777-158.044 158.197c-5.56 5.604-5.56 14.65 0 20.253l168.94 169.114c5.595 5.572 14.636 5.572 20.231 0l72.26-72.182 74.455 74.532a14.326 14.326 0 0 0 14.171 4.444 14.342 14.342 0 0 0 10.501-10.512 14.358 14.358 0 0 0-4.44-14.186l-84.56-84.658zM946.964 1341.268c-5.85-5.5-15.321-5.5-21.172 0l-33.549 31.609-33.548-31.609c-5.85-5.5-15.322-5.5-21.173 0-5.836 5.515-5.836 14.44 0 19.955l33.549 31.619-33.549 31.609c-2.918 2.751-4.5 6.517-4.372 10.406h35.772l23.364-22.02 23.364 22.02h35.771c.129-3.889-1.453-7.655-4.372-10.406l-33.548-31.61 33.548-31.618c5.813-5.536 5.775-14.462-.085-19.955z" opacity=".4"/>
            <path d="M1368.765 580.37c-5.856-5.827-15.317-5.827-21.173 0l-33.634 33.565-33.55-33.564c-5.94-5.24-14.93-4.959-20.53.644-5.6 5.603-5.882 14.595-.643 20.538l33.549 33.607-33.55 33.564c-5.836 5.853-5.836 15.329 0 21.182 5.852 5.84 15.323 5.84 21.174 0l33.55-33.51 33.549 33.553c5.94 5.24 14.93 4.958 20.53-.645 5.6-5.602 5.882-14.595.644-20.538l-33.54-33.564 33.54-33.564a15 15 0 0 0 .084-21.267z" opacity=".6"/>
        </g>
    </g>
</svg>
