<svg xmlns="http://www.w3.org/2000/svg" xmlns:xlink="http://www.w3.org/1999/xlink" width="775" height="621" viewBox="0 0 775 621">
    <defs>
        <path id="a" d="M723.113 137.66c-34.602-42.5-81.603-76.07-140.99-100.707C522.737 12.32 457.858 0 387.507 0 335.03 0 284.862 7.274 237.003 21.825c-47.86 14.55-89.088 34.217-123.687 58.996-34.605 24.782-62.133 54.245-82.607 88.387C10.235 203.352 0 239.156 0 276.615c0 43.22 13.042 83.717 39.137 121.464 26.096 37.742 61.77 69.442 107.04 95.087 0 52.53-52.35 123.806-48.46 126.97 3.89 3.167 169.99-19.943 227.075-70.377 21.619 2.304 42.523 3.46 62.706 3.46 70.35 0 135.226-12.32 194.617-36.964 59.392-24.633 106.388-58.205 140.984-100.697C757.701 373.076 775 326.75 775 276.614c.002-50.138-17.296-96.461-51.887-138.954z"/>
    </defs>
    <g fill="none" fill-rule="evenodd">
        <mask id="b" fill="#fff">
            <use xlink:href="#a"/>
        </mask>
        <use fill="#4FC0E8" fill-rule="nonzero" xlink:href="#a"/>
        <g fill="#FFF" fill-rule="nonzero" mask="url(#b)" opacity=".15">
            <path d="M743.78-56l-79.974 79.992a7.23 7.23 0 0 0 .31 9.891 7.225 7.225 0 0 0 9.89.31L754-45.798V-56h-10.22zM110.888 585.098a7.203 7.203 0 0 0-10.162 0L21 664.833V675h10.163l79.725-79.71a7.204 7.204 0 0 0 0-10.192zM258.263 59.92l66.292-66.281a7.222 7.222 0 0 0-3.053-12.43 7.22 7.22 0 0 0-7.139 2.237L248.118 49.7a7.222 7.222 0 0 0 0 10.219 7.225 7.225 0 0 0 10.145 0z" opacity=".4"/>
            <path d="M47.626 89.883L31.574 73.756 47.878 57.37a7.355 7.355 0 0 0 0-10.338l-.134-.119c-.041-.046-.077-.093-.118-.134L21 20v20.722l11.412 11.47L21 63.661v20.183l11.16 11.217L21 106.278V127l26.626-26.759a7.355 7.355 0 0 0 0-10.358z" opacity=".6"/>
            <path d="M104.129 454.205c-2.839 2.95-2.839 7.716 0 10.666l43.202 44.662a7.137 7.137 0 0 0 10.317 0l16.095-16.639 16.352 16.905a7.146 7.146 0 0 0 10.317 0c.041-.048.077-.096.119-.138.047-.04.091-.083.134-.128l43.202-44.662c2.844-2.948 2.844-7.719 0-10.666a7.137 7.137 0 0 0-10.317 0l-38.286 39.58-16.353-16.9a7.216 7.216 0 0 0-1.454-1.162 6.9 6.9 0 0 0-1.63-.736 6.913 6.913 0 0 0-1.383-.277 6.12 6.12 0 0 0-.701-.038c-.235 0-.469.012-.702.038a7.172 7.172 0 0 0-4.467 2.175l-16.095 16.644-38.033-39.319a7.141 7.141 0 0 0-10.317-.005z" opacity=".2"/>
            <path d="M533.648-16.82L512.113 5.316c-2.817 2.906-2.817 7.607 0 10.514a7.116 7.116 0 0 0 10.23 0L543.89-6.312c2.815-2.908 2.815-7.606 0-10.514a7.11 7.11 0 0 0-10.24.005z" opacity=".3"/>
            <path d="M704.195 25.432L574.882 154.773a7.326 7.326 0 0 0 .256 10.075 7.32 7.32 0 0 0 10.07.282L714.523 35.809a7.32 7.32 0 0 0-3.093-12.597 7.315 7.315 0 0 0-7.234 2.267v-.047z" opacity=".6"/>
            <path d="M489.157 25.625a7.271 7.271 0 0 0 0 10.337l22.016 21.802.052.046.052.057c2.891 2.844 7.563 2.844 10.454 0l64.76-64.05a7.274 7.274 0 0 0 2.295-7.24c-.658-2.648-2.748-4.715-5.426-5.365a7.458 7.458 0 0 0-7.322 2.268l-59.524 58.835-16.877-16.69a7.449 7.449 0 0 0-5.24-2.148c-1.966 0-3.85.773-5.24 2.148z" opacity=".4"/>
            <path d="M477.969 45.597a7.306 7.306 0 0 0-11.601 1.66l-42.03 42.054a7.326 7.326 0 0 0 3.185 12.465c2.6.658 5.35-.158 7.17-2.128l38.302-38.323 37.913 37.935a7.321 7.321 0 0 0 10.331 0c.349-.35.662-.735.935-1.147l62.996-62.946a7.327 7.327 0 0 0-.314-10.022 7.316 7.316 0 0 0-10.016-.314L515.99 83.636l-37.81-37.832-.212-.207z" opacity=".2"/>
            <path d="M144.572 205.876a7.27 7.27 0 0 0 10.272 0l21.632-21.685c.067-.067.123-.14.19-.211.067-.072.144-.124.21-.19a7.303 7.303 0 0 0 0-10.297l-59.334-59.525 16.481-16.521a7.304 7.304 0 0 0 0-10.323 7.27 7.27 0 0 0-10.272 0L102.12 108.81a7.313 7.313 0 0 0 0 10.297l59.335 59.525-16.882 16.922a7.318 7.318 0 0 0 0 10.323z" opacity=".3"/>
            <path d="M402.826 34.71c2.92 2.472 7.29 2.315 10.018-.358a7.112 7.112 0 0 0 .366-9.819L391.34 3.104c-2.87-2.805-7.514-2.805-10.384 0a1.174 1.174 0 0 0-.109.117l-.12.102-123.74 121.262-16.661-16.33-.099-.087-.088-.091c-2.87-2.806-7.515-2.806-10.384 0l-21.864 21.429a7.113 7.113 0 0 0 .258 9.926c2.764 2.716 7.212 2.837 10.126.277l16.661-16.345 16.848 16.513c.528.52 1.134.958 1.797 1.298.344.175.702.325 1.07.448 2.65.874 5.576.202 7.554-1.736L386.165 18.376l16.66 16.335z" opacity=".2"/>
            <path d="M378.846 86.818L234.539 232.267l-15.768-15.887a7.262 7.262 0 0 0-7.214-2.278 7.326 7.326 0 0 0-5.346 5.387 7.39 7.39 0 0 0 2.26 7.27l20.924 21.088a7.267 7.267 0 0 0 10.325 0L389.176 97.22c2.548-2.913 2.41-7.32-.313-10.065a7.256 7.256 0 0 0-9.987-.316l-.03-.02z" opacity=".4"/>
            <path d="M232.18 210.802a7.384 7.384 0 0 0 10.513 0l22.134-22.46c2.897-2.946 2.897-7.716 0-10.663l-22.108-22.48a7.384 7.384 0 0 0-10.513 0c-2.889 2.95-2.889 7.713 0 10.663l16.873 17.111-16.873 17.111a7.621 7.621 0 0 0-2.206 5.354 7.622 7.622 0 0 0 2.18 5.364z" opacity=".3"/>
            <path d="M167.129 302.142a7.31 7.31 0 0 0 0 10.313l21.727 21.719a7.312 7.312 0 0 0 10.003-.314 7.304 7.304 0 0 0 .314-10l-21.707-21.718a7.306 7.306 0 0 0-10.337 0z" opacity=".2"/>
            <path d="M146.11 422.798c2.82 2.936 7.387 2.936 10.207 0l21.496-22.422.036-.043.04-.042c2.814-2.943 2.814-7.707 0-10.65l-21.46-22.433c-2.827-2.944-7.405-2.944-10.232 0-2.805 2.947-2.805 7.703 0 10.65l16.382 17.087-16.469 17.204c-2.813 2.943-2.813 7.706 0 10.65z"/>
            <path d="M125.114 435.234a7.203 7.203 0 0 0 0 10.194l21.575 21.464a7.278 7.278 0 0 0 10.244 0l16.57-16.484 16.438 16.357a7.284 7.284 0 0 0 9.933-.31 7.197 7.197 0 0 0 .312-9.884l-21.57-21.47a7.294 7.294 0 0 0-10.245 0l-.061.072a.726.726 0 0 0-.067.06l-16.422 16.358-16.442-16.357a7.271 7.271 0 0 0-5.133-2.118 7.271 7.271 0 0 0-5.132 2.118z" opacity=".2"/>
            <path d="M189.567 555.386a8.078 8.078 0 0 0 10.954.062l85.702-86.28a7.395 7.395 0 0 0-.364-10.013 7.273 7.273 0 0 0-9.945-.366l-80.816 81.34-16.906-17a7.279 7.279 0 0 0-5.168-2.157 7.279 7.279 0 0 0-5.167 2.156l-21.726 21.853c-2.841 2.868-2.841 7.51 0 10.379l37.112 37.364-16.896 17.006a7.395 7.395 0 0 0 .28 10.121 7.273 7.273 0 0 0 10.054.258l21.706-21.858a8.345 8.345 0 0 0-.026-11.132l-36.73-36.98 11.375-11.458 16.561 16.705z"/>
            <path d="M327.863 326.136a7.233 7.233 0 0 0-10.265 0L214.952 429.462l-16.546-16.688a7.249 7.249 0 0 0-10.29 0c-2.821 2.86-2.821 7.474 0 10.333l21.617 21.755a7.231 7.231 0 0 0 8.812 1.132 7.06 7.06 0 0 0 1.822-1.338L327.863 336.5a7.34 7.34 0 0 0 2.137-5.182 7.34 7.34 0 0 0-2.137-5.182z" opacity=".7"/>
            <path d="M158.168 327.845c-2.814-1.503-6.25-.966-8.5 1.33l-21.556 22.139c-2.816 2.907-2.816 7.604 0 10.512a7.127 7.127 0 0 0 10.235 0l16.423-16.867 57.317 58.868a7.112 7.112 0 0 0 10.235 0l21.556-22.133c2.83-2.912 2.83-7.627 0-10.539a7.127 7.127 0 0 0-10.261 0l-16.423 16.872-57.317-58.868a7.225 7.225 0 0 0-1.71-1.314z" opacity=".4"/>
            <path d="M39.137 443.868a7.27 7.27 0 0 0 10.287 0l42.808-42.917a7.157 7.157 0 0 0 1.394-1.97 7.32 7.32 0 0 0-1.255-8.642l-16.515-16.553L199.673 249.66a7.319 7.319 0 0 0 2.1-7.163 7.297 7.297 0 0 0-5.273-5.272 7.276 7.276 0 0 0-7.14 2.122L60.395 368.63a7.315 7.315 0 0 0 0 10.313l16.577 16.619-37.835 37.972a7.311 7.311 0 0 0 0 10.334z" opacity=".6"/>
            <path d="M391.449 48.61a7.28 7.28 0 0 0-10.32 0c-2.839 2.87-2.839 7.51 0 10.382l21.733 21.866a7.285 7.285 0 0 0 10.32 0l.025-.026v-.026L520.869-27.475c2.841-2.87 2.841-7.512 0-10.383a7.285 7.285 0 0 0-10.32 0L408.006 65.268 391.449 48.61zM361.31 69.429l-84.503 84.555a7.235 7.235 0 0 0 .31 9.898 7.224 7.224 0 0 0 9.891.31l84.544-84.535a7.235 7.235 0 0 0-3.056-12.448 7.225 7.225 0 0 0-7.145 2.24l-.04-.02z" opacity=".4"/>
            <path d="M68.888 335.577l151.133-150.08c.397-.399.746-.843 1.04-1.322a7.297 7.297 0 0 0 0-10.336l-37.828-37.563 38.62-38.35a7.291 7.291 0 0 0 0-10.335l-21.92-21.76a7.412 7.412 0 0 0-10.092.314 7.285 7.285 0 0 0-.316 10.02l16.715 16.6-38.62 38.348a7.297 7.297 0 0 0 0 10.361l37.99 37.724L58.455 325.216a7.296 7.296 0 0 0-2.237 7.218 7.354 7.354 0 0 0 5.37 5.346 7.412 7.412 0 0 0 7.275-2.203h.026z" opacity=".3"/>
            <path d="M177.827 87.539c-.04-.047-.091-.083-.132-.125l-.122-.14-16.266-16.692 16.261-16.687c2.005-1.814 2.862-4.62 2.224-7.284-.637-2.664-2.664-4.744-5.26-5.398-2.596-.654-5.33.225-7.099 2.282L146.09 65.392c-2.785 2.878-2.785 7.523 0 10.4l16.52 16.952-16.267 16.686c-2.802 2.881-2.802 7.546 0 10.426a7.062 7.062 0 0 0 10.135 0l21.34-21.902a7.461 7.461 0 0 0 2.108-5.205 7.462 7.462 0 0 0-2.098-5.21z" opacity=".7"/>
            <path d="M37 268.198c0 1.94.775 3.802 2.154 5.173l21.857 21.797a7.37 7.37 0 0 0 10.063-.315 7.312 7.312 0 0 0 .316-10.03l-16.658-16.604 11.63-11.592 16.658 16.604a7.396 7.396 0 0 0 10.425 0l42.89-42.751c.184-.149.357-.309.52-.481a7.308 7.308 0 0 0 0-10.346l-16.7-16.65 16.575-16.521a7.318 7.318 0 0 0 0-10.345 7.37 7.37 0 0 0-10.379 0l-21.847 21.735a7.318 7.318 0 0 0-2.157 5.185c0 1.946.776 3.811 2.157 5.186.296.29.615.557.954.796l15.802 15.746-33 32.892-16.673-16.62a7.38 7.38 0 0 0-10.378 0l-.047.052c-.042.042-.088.073-.125.114L39.154 263.01A7.297 7.297 0 0 0 37 268.198z" opacity=".6"/>
            <path d="M58.035 202.732c.027.234.059.469.107.703.107.576.287 1.137.535 1.67a7.348 7.348 0 0 0 1.52 2.134l22.545 21.917c3.003 2.576 7.548 2.437 10.38-.316a7.228 7.228 0 0 0 .325-10.093L76.271 202.04l39.501-38.416a7.275 7.275 0 0 0 1.67-2.446c1.148-2.748.492-5.897-1.664-7.995l-22.54-21.922c-1.904-1.923-4.728-2.696-7.385-2.021-2.656.675-4.73 2.692-5.425 5.275-.694 2.583.1 5.33 2.079 7.181l17.181 16.708-39.464 38.405a7.252 7.252 0 0 0-2.189 5.923z" opacity=".7"/>
            <path d="M423.623 17.777c.122.128.244.246.37.364l.122.107c.25.218.514.42.788.604.152.097.304.193.462.279 2.79 1.543 6.209.995 8.436-1.354l42.4-44.676c2.513-3.003 2.378-7.547-.309-10.378-2.687-2.83-7-2.973-9.85-.325L428.738 1.706 391.254-37.79c-2.808-2.948-7.35-2.948-10.158 0-2.795 2.96-2.795 7.743 0 10.703l42.527 44.863z" opacity=".2"/>
            <path d="M641.16 58.804a7.545 7.545 0 0 0 10.642 0 7.542 7.542 0 0 0 0-10.644L607.195 3.554a7.54 7.54 0 1 0-10.642 10.643l44.607 44.607zM639.312 15.802a7.235 7.235 0 0 0 3.113 1.885c.674.205 1.373.31 2.076.313a7.4 7.4 0 0 0 1.406-.138 7.296 7.296 0 0 0 3.793-2.06l65.147-66.505A7.575 7.575 0 0 0 717-56h-17.755L644.51-.125l-38.296-39.09a7.243 7.243 0 0 0-10.062.322c-2.744 2.802-2.882 7.3-.315 10.272l43.474 44.423z" opacity=".4"/>
            <path d="M263.783 304.105c-2.972-2.807-7.769-2.807-10.74 0l-17.047 16.183-17.014-16.183c-2.99-2.737-7.733-2.695-10.668.095-2.934 2.79-2.979 7.3-.1 10.14l17.02 16.159-17.02 16.173c-2.952 2.825-2.952 7.386 0 10.21 2.975 2.824 7.793 2.824 10.768 0l17.014-16.178 17.02 16.179c3.02 2.479 7.54 2.322 10.362-.36 2.821-2.683 2.986-6.98.378-9.85l-16.992-16.174 17.02-16.179c2.955-2.825 2.955-7.39 0-10.215z"/>
            <path d="M36.778 13.23c.162.206.334.406.506.595 2.795 2.9 7.32 2.9 10.114 0l20.81-21.612c2.503-2.95 2.368-7.417-.307-10.2-2.675-2.781-6.969-2.921-9.807-.319L42.362-1.986l-16.183-16.83C24.809-20.245 22.939-21.033 21-21v17.883L36.207 12.7c.18.188.372.365.571.53zM92.792 519.105c-2.945-2.807-7.708-2.807-10.653 0L21 577.572V598l71.792-68.684c2.944-2.82 2.944-7.39 0-10.211z" opacity=".6"/>
            <path d="M60.216 77.873c2.949 2.836 7.714 2.836 10.663 0l21.909-21.178a7.207 7.207 0 0 0 0-10.39L70.879 25.127c-2.949-2.836-7.714-2.836-10.663 0a7.127 7.127 0 0 0 0 10.308l16.598 16.05-16.598 16.054A7.182 7.182 0 0 0 58 72.706c0 1.939.797 3.797 2.216 5.167z"/>
            <path d="M70.873 119.566l102.54-100.353 81.261 79.553c2.864 2.797 7.501 2.797 10.366 0l.036-.04.036-.031L372.862-6.756a7.086 7.086 0 0 0 0-10.146c-2.865-2.797-7.502-2.797-10.366 0L259.877 83.546l-81.28-79.588-.032-.03c-2.864-2.797-7.5-2.797-10.365 0a7.35 7.35 0 0 0-.518.594L60.487 109.419c-2.05 1.77-2.927 4.508-2.275 7.107.652 2.599 2.725 4.628 5.38 5.266 2.655.639 5.452-.22 7.26-2.226h.021z" opacity=".4"/>
            <path d="M230.145 38.888c2.9 2.816 7.588 2.816 10.489 0l68.202-66.536a7.134 7.134 0 0 0 0-10.236c-2.899-2.821-7.59-2.821-10.489 0l-62.931 61.418-60.761-59.32c-2.901-2.815-7.588-2.815-10.489 0a7.13 7.13 0 0 0 0 10.237l65.979 64.437z" opacity=".7"/>
            <path d="M154.83-16.893c-2.843-2.81-7.438-2.81-10.281 0l-37.734 37.487L90.807 4.685a7.318 7.318 0 0 0-7.232-2.305 7.266 7.266 0 0 0-5.37 5.335 7.214 7.214 0 0 0 2.32 7.185l21.124 20.98c2.883 2.827 7.517 2.827 10.4 0l42.828-42.548a7.203 7.203 0 0 0 0-10.214l-.047-.01z" opacity=".3"/>
            <path d="M47.86 231.351c2.854-2.954 2.854-7.727 0-10.681L21 193v21.41L32.258 226 21 237.59V259l26.854-27.643.005-.006zM41.84 186c1.924 0 3.77-.777 5.128-2.159l20.922-21.204c2.813-2.88 2.813-7.522 0-10.403l-21.075-21.392a7.195 7.195 0 0 0-9.947.317c-2.713 2.75-2.85 7.167-.312 10.085l15.936 16.16-10.658 10.803-15.93-16.16A7.184 7.184 0 0 0 21 149.9v18.043l15.7 15.915A7.17 7.17 0 0 0 41.84 186zM47.852 519.134a7.388 7.388 0 0 0-5.2-2.134c-1.95 0-3.821.768-5.2 2.134L21 535.415V556l26.852-26.582a7.23 7.23 0 0 0 0-10.284zM67.924 512.782c2.768-2.956 2.768-7.742 0-10.698L25.84 457.209c-1.286-1.372-3.02-2.164-4.839-2.209v18.498l36.865 39.284c2.779 2.957 7.28 2.957 10.06 0zM26.558 411.982c-1.478-1.203-3.462-1.91-5.558-1.982v16l5.558-4.487c3.256-2.633 3.256-6.898 0-9.531zM47.829 358.848a7.319 7.319 0 0 0 0-10.38L31.6 332.319 47.829 316.2A7.329 7.329 0 0 0 50 310.997a7.329 7.329 0 0 0-2.171-5.203c-.052-.051-.115-.098-.173-.15-.057-.052-.099-.12-.151-.171l-21.468-21.324A7.412 7.412 0 0 0 21 282v17.951L32.123 311 21 322.043V342.6l16.359 16.25c2.892 2.868 7.577 2.868 10.47 0z" opacity=".6"/>
            <path d="M265.846 263.184a7.259 7.259 0 0 0-10.38 0l-16.453 16.74-16.162-16.412a7.274 7.274 0 0 0-10.406 0l-21.305 21.706c-2.853 2.923-2.853 7.642 0 10.565a7.274 7.274 0 0 0 10.406 0l16.115-16.387 16.126 16.413a7.274 7.274 0 0 0 10.406 0l.15-.174c.058-.053.12-.1.172-.159l21.326-21.706a7.548 7.548 0 0 0 2.159-5.292 7.548 7.548 0 0 0-2.154-5.294z" opacity=".7"/>
            <path d="M371.865 294.838a7.404 7.404 0 0 0 0-10.403l-59.69-60.026 37.958-38.163a7.399 7.399 0 0 0-.314-10.087 7.304 7.304 0 0 0-10.034-.317l-42.677 42.903a8.737 8.737 0 0 0 .052 11.443l64.33 64.65a7.312 7.312 0 0 0 5.188 2.162 7.312 7.312 0 0 0 5.187-2.162z" opacity=".4"/>
            <path d="M412.236 107.275a7.208 7.208 0 0 0-9.29.763l-41.976 41.963a8.084 8.084 0 0 0 .427 10.798l15.816 15.817-37.114 37.091a7.224 7.224 0 0 0 0 10.182 7.223 7.223 0 0 0 10.206 0L392.29 181.9c.036-.036.061-.076.097-.112l.112-.097a7.224 7.224 0 0 0 0-10.207l-16.33-16.326 31.978-31.98 16.325 16.331a7.223 7.223 0 0 0 10.207 0c.04-.04.071-.086.112-.122.04-.036.081-.071.122-.112l41.981-41.989a7.209 7.209 0 0 0 0-10.181 7.208 7.208 0 0 0-10.18 0l-37.126 37.122-15.816-15.817a7.096 7.096 0 0 0-1.537-1.135z" opacity=".7"/>
            <path d="M371.851 337.435a7.26 7.26 0 0 0 0-10.311l-43.334-42.992c-2.872-2.843-7.521-2.843-10.394 0a7.26 7.26 0 0 0 0 10.31l38.128 37.827-103.096 102.256a7.275 7.275 0 0 0 0 10.337c2.879 2.85 7.54 2.85 10.42 0L371.85 337.435z" opacity=".4"/>
            <path d="M307.793 259.948l-21.675-21.127c-2.96-2.544-7.439-2.407-10.229.313a7.152 7.152 0 0 0-.32 9.97l16.388 15.975-16.389 15.974a7.15 7.15 0 0 0 0 10.283l16.352 15.94-16.389 15.974c-2.087 1.794-2.979 4.569-2.315 7.202.664 2.634 2.774 4.69 5.476 5.337 2.702.647 5.549-.222 7.389-2.256l20.905-20.376a7.15 7.15 0 0 0 .833-10.972l-16.39-15.975 16.39-15.974a7.15 7.15 0 0 0-.026-10.288z" opacity=".4"/>
            <path d="M59.95 465.994l.26.238c.08.088.152.182.233.265l58.47 59.61-79.473 81.039c-2.012 1.808-2.872 4.606-2.232 7.261.64 2.655 2.674 4.728 5.278 5.38 2.604.653 5.349-.224 7.122-2.274l84.345-85.99c2.768-3.126 2.724-7.894-.102-10.968L75.24 460.8l57.86-58.978c2.898-3.093 3.115-7.891.508-11.243l-20.22-20.615a7.106 7.106 0 0 0-9.993.18c-2.741 2.79-2.83 7.289-.201 10.187l15.288 15.587-58.531 59.688c-2.797 2.867-2.797 7.5 0 10.367v.02zM26.583 511.794c3.223-2.954 3.223-7.728 0-10.682L21 496v18c2.1-.062 4.097-.85 5.583-2.206zM47.85 401.87a7.234 7.234 0 0 0 0-10.294L21 365v20.579l16.45 16.292c2.874 2.839 7.526 2.839 10.4 0zM748.43 79.891L754 85V64l-5.57 5.114c-3.24 2.977-3.24 7.8 0 10.777z" opacity=".6"/>
            <path d="M662.674 110.777l-87.166 84.637c-2.068 1.77-2.952 4.51-2.294 7.11.658 2.6 2.748 4.63 5.426 5.268 2.677.639 5.499-.22 7.322-2.227l87.187-84.617c2.586-2.847 2.447-7.157-.318-9.842-2.765-2.684-7.204-2.82-10.136-.308l-.021-.02z" opacity=".3"/>
            <path d="M535.515 111.112l-16.57 16.55-16.378-16.354a7.326 7.326 0 0 0-10.337 0l-59.158 59.048-16.383-16.36a7.33 7.33 0 0 0-7.18-2.106 7.318 7.318 0 0 0-5.285 5.29 7.306 7.306 0 0 0 2.128 7.164l21.557 21.524a7.331 7.331 0 0 0 10.337 0l.134-.144.15-.134 58.868-58.743 16.379 16.354a7.326 7.326 0 0 0 10.337 0c.03-.031.056-.068.093-.098l.098-.093 21.562-21.53a7.31 7.31 0 0 0 0-10.322 7.342 7.342 0 0 0-10.352-.046zM541.563 153.432a7.177 7.177 0 0 0-12.356 3.036 7.183 7.183 0 0 0 2.224 7.1l21.131 21.139a7.177 7.177 0 0 0 12.218-3.126 7.183 7.183 0 0 0-2.085-7.036l-21.132-21.113z" opacity=".4"/>
            <path d="M383.908 306.736a7.263 7.263 0 0 0 .324 10.102c2.819 2.756 7.342 2.894 10.332.317l22.228-21.728a7.373 7.373 0 0 0 0-10.523l-39.57-38.685 38.819-37.955a7.263 7.263 0 0 0-.324-10.102c-2.819-2.756-7.343-2.894-10.332-.317l-44.174 43.17a7.124 7.124 0 0 0-1.167 1.47 7.21 7.21 0 0 0-1.012 3.041c0 .235-.032.47-.032.709 0 .24 0 .469.032.708a7.284 7.284 0 0 0 2.18 4.512l39.607 38.726-16.91 16.555z" opacity=".7"/>
            <path d="M384.125 358.865a7.216 7.216 0 0 0 10.248 0l63.794-64.332c2.772-2.8 2.838-7.314.148-10.194a8.054 8.054 0 0 0-.81-.982l-15.92-16.061 58.547-59.06c2.586-2.895 2.474-7.324-.254-10.083a7.22 7.22 0 0 0-9.994-.281l-63.707 64.244-.087.088c-2.833 2.863-2.833 7.5 0 10.364.317.311.66.593 1.025.843l15.73 15.87-58.72 59.224c-2.833 2.862-2.833 7.498 0 10.36z" opacity=".4"/>
            <path d="M596.184 98.818a7.498 7.498 0 0 0 10.575 0l22.06-22.06a7.498 7.498 0 0 0 0-10.574 7.492 7.492 0 0 0-10.576 0L596.19 88.238a7.492 7.492 0 0 0-.005 10.58z" opacity=".3"/>
            <path d="M609.736 45.162c-2.968-2.883-7.773-2.883-10.742 0l-44.187 43.016a6.797 6.797 0 0 0-.59.523 7.276 7.276 0 0 0 0 10.457l.026.026 17.026 16.622-17.02 16.575a7.266 7.266 0 0 0 0 10.457c2.968 2.883 7.773 2.883 10.742 0l22.445-21.803a7.276 7.276 0 0 0 0-10.458l-.027-.026-16.994-16.543 39.364-38.32a7.266 7.266 0 0 0 0-10.458l-.043-.068z" opacity=".2"/>
            <path d="M727.13 3.114a7.225 7.225 0 0 0 0 10.246L754 40V19.503L737.465 3.109c-2.861-2.814-7.477-2.812-10.335.005zM727.15 143.89c2.857 2.813 7.47 2.813 10.326 0L754 127.513V107l-26.85 26.613a7.23 7.23 0 0 0-2.15 5.139 7.23 7.23 0 0 0 2.15 5.138zM727.145 616.562c.191.191.394.37.608.537.17.203.345.405.54.598l20.553 20.2A7.347 7.347 0 0 0 754 640v-17.334l-11.374-11.18L754 600.308V580l-26.87 26.411a7.096 7.096 0 0 0 .015 10.151z" opacity=".6"/>
            <path d="M737 97.715c2.097-1.789 2.993-4.556 2.326-7.183-.667-2.626-2.786-4.677-5.5-5.322-2.715-.645-5.575.222-7.424 2.25l-44.21 42.778a7.095 7.095 0 0 0 0 10.255L754 210v-20.556l-55.9-54.089 38.9-37.64z" opacity=".6"/>
            <path d="M673.871 153.092c-2.857-2.79-7.469-2.79-10.326 0l-80.95 79.55-80.27-78.9c-3.102-2.8-7.862-2.823-10.992-.05l-85.504 84.052a7.103 7.103 0 0 0 .314 9.842c2.731 2.684 7.115 2.82 10.012.308l80.651-79.236 80.61 79.241c2.852 2.801 7.474 2.801 10.326 0l86.104-84.63a7.115 7.115 0 0 0 .025-10.177z" opacity=".3"/>
            <path d="M692.882 100.786l44.556-44.542a7.569 7.569 0 0 0-3.2-13.025 7.566 7.566 0 0 0-7.48 2.344l-44.55 44.558a7.563 7.563 0 0 0 0 10.681 7.56 7.56 0 0 0 10.674-.016zM727.148 273.883c2.854 2.823 7.474 2.823 10.328 0L754 257.503V237l-26.852 26.62A7.217 7.217 0 0 0 725 268.75c0 1.926.773 3.772 2.148 5.132zM746.276 165.543L752 171v-17.995c-3.177-.107-6.098 1.645-7.362 4.415-1.264 2.77-.614 5.993 1.638 8.123zM746.28 294.584L752 300v-17.997c-3.188-.08-6.106 1.685-7.366 4.457-1.26 2.771-.608 5.99 1.646 8.124zM696.187 176.144a7.48 7.48 0 0 0-5.251-2.144 7.48 7.48 0 0 0-5.251 2.144l-21.523 21.204a7.24 7.24 0 0 0 0 10.32l21.523 21.205c2.898 2.836 7.577 2.836 10.476 0 .136-.134.257-.274.377-.413l15.856-15.62 16.275 16.033c2.939 2.553 7.386 2.416 10.157-.314a7.234 7.234 0 0 0 .319-10.007l-21.524-21.204c-2.895-2.845-7.58-2.845-10.476 0-.031 0-.052.057-.078.083l-.09.077-16.086 15.848-11-10.837 16.296-16.054a7.24 7.24 0 0 0 0-10.32z" opacity=".6"/>
            <path d="M651.862 220.118c-2.858-2.824-7.484-2.824-10.342 0l-21.247 21.05-.062.066-.062.056a7.225 7.225 0 0 0-2.149 5.136c0 1.926.773 3.774 2.149 5.135l16.081 15.932-16.03 15.88a7.424 7.424 0 0 0-.03 10.44l21.2 21.075c2.862 2.816 7.48 2.816 10.342 0a7.221 7.221 0 0 0 0-10.27l-16.113-16.01 16.165-16.013a7.225 7.225 0 0 0 2.149-5.135 7.225 7.225 0 0 0-2.15-5.136c-.098-.097-.201-.184-.304-.277l-15.792-15.64 16.195-16.043a7.206 7.206 0 0 0 0-10.246z" opacity=".2"/>
            <path d="M604.894 262.283a7.19 7.19 0 0 0-10.162 0l-15.786 15.832-57.865-58.003a7.19 7.19 0 0 0-2.032-1.427 7.532 7.532 0 0 0-1.016-.392 7.18 7.18 0 0 0-7.113 1.819l-42.821 42.945a7.235 7.235 0 0 0 0 10.191l15.857 15.899-15.812 15.857a7.236 7.236 0 0 0 .31 9.881 7.184 7.184 0 0 0 9.852.31l20.877-20.938a7.353 7.353 0 0 0-.046-10.308l-15.78-15.832 32.633-32.719 57.845 58.04a7.152 7.152 0 0 0 2.383 1.584c.43.175.876.308 1.33.397.455.087.916.132 1.378.133a7.226 7.226 0 0 0 2.032-.3 7.155 7.155 0 0 0 3.049-1.815l20.877-20.938a7.231 7.231 0 0 0 .01-10.216zM566.03 304.118a7.294 7.294 0 0 0-10.28 0l-37.376 37.339-15.974-15.951a7.284 7.284 0 0 0-10.28 0 7.274 7.274 0 0 0 0 10.268l21.12 21.094c.347.35.73.663 1.14.935.135.087.273.159.407.236.07.046.142.09.216.128.166.086.338.161.514.226l.16.077c.112.046.23.082.349.123.118.041.21.077.318.108l.118.031a7.278 7.278 0 0 0 7.104-1.864l37.365-37.328 15.97 15.951a7.289 7.289 0 0 0 9.966-.312 7.269 7.269 0 0 0 .313-9.955l-21.15-21.106z" opacity=".4"/>
            <path d="M567.286 346.853a7.382 7.382 0 0 0-10.12.318 7.425 7.425 0 0 0-.318 10.143l21.423 21.525a7.383 7.383 0 0 0 10.437 0l21.444-21.493a7.425 7.425 0 0 0-.318-10.144 7.382 7.382 0 0 0-10.12-.318l-16.22 16.252-16.208-16.283zM641.225 519.22a7.62 7.62 0 0 0 0 10.763l22.108 22.111a7.626 7.626 0 0 0 10.761-10.762l-22.108-22.111a7.629 7.629 0 0 0-10.761 0z" opacity=".4"/>
            <path d="M478.182 474.914l-21.096-21.096a7.275 7.275 0 0 0-10.268 10.268l21.096 21.096a7.275 7.275 0 0 0 10.268-10.268z" opacity=".2"/>
            <path d="M554.914 618.182a7.275 7.275 0 0 0 10.268-10.268l-21.096-21.096a7.275 7.275 0 0 0-10.268 10.268l21.096 21.096z"/>
            <path d="M453.515 510a7.495 7.495 0 0 0 6.916-4.623 7.471 7.471 0 0 0-1.627-8.149l-21.687-21.695a7.504 7.504 0 0 0-7.41-2.317 7.488 7.488 0 0 0-5.49 5.48 7.473 7.473 0 0 0 2.321 7.397l21.687 21.716a7.47 7.47 0 0 0 5.29 2.191z" opacity=".4"/>
            <path d="M416.086 497.818a7.275 7.275 0 0 0-10.268 10.268l21.096 21.096a7.275 7.275 0 0 0 10.268-10.268l-21.096-21.096z"/>
            <path d="M499.147 466.047L557.77 406.4l16.098 16.38a7.471 7.471 0 0 0 10.47.13l15.838-16.116L616 422.925a7.134 7.134 0 0 0 9.885-.315c2.697-2.743 2.833-7.147.31-10.057l-20.946-21.307a7.14 7.14 0 0 0-10.195 0l-15.904 16.177-16.027-16.306a7.867 7.867 0 0 0-10.781.041l-63.41 64.49c-2.642 2.894-2.564 7.396.178 10.193a7.134 7.134 0 0 0 10.018.206h.02zM499.816 419.897c.047-.046.089-.098.13-.144.176-.143.348-.297.519-.456l42.175-41.695a7.214 7.214 0 0 0 2.135-7.119c-.66-2.58-2.695-4.597-5.304-5.256a7.404 7.404 0 0 0-7.205 2.093l-37.6 37.172-16.137-15.947c-2.869-2.822-7.504-2.822-10.374 0a7.225 7.225 0 0 0-2.155 5.14c0 1.929.775 3.778 2.155 5.141l21.314 21.07c2.866 2.805 7.481 2.805 10.347 0z" opacity=".4"/>
            <path d="M477.246 434.072l-20.816-21.348c-.097-.099-.198-.187-.294-.276-.097-.088-.173-.207-.269-.306a7.062 7.062 0 0 0-10.132 0L340.431 520.116c-2.004 1.812-2.861 4.617-2.224 7.278.638 2.661 2.664 4.74 5.26 5.393 2.594.654 5.329-.225 7.096-2.28l100.208-102.763 16.302 16.72a7.05 7.05 0 0 0 9.824-.317c2.68-2.748 2.815-7.16.309-10.075h.04z" opacity=".3"/>
            <path d="M512.148 315.868a7.357 7.357 0 0 0 10.358 0l21.281-21.25.037-.041.04-.036a7.33 7.33 0 0 0 0-10.344l-21.28-21.25a7.347 7.347 0 0 0-10.178.206 7.32 7.32 0 0 0-.18 10.163l16.086 16.069-16.164 16.114a7.33 7.33 0 0 0 0 10.37z"/>
            <path d="M544.396 507.082l59.794-58.751 16.135 15.854a7.405 7.405 0 0 0 5.95 2.081 7.39 7.39 0 0 0 4.59-2.092l64.291-63.134a7.155 7.155 0 0 0-.316-9.917c-2.754-2.706-7.173-2.842-10.093-.312l-59.133 58.072-16.209-15.926c-2.876-2.82-7.533-2.82-10.41 0-.098.098-.187.2-.28.302l-64.755 63.574a7.156 7.156 0 0 0 .207 10.05c2.807 2.752 7.325 2.83 10.229.179v.02z" opacity=".2"/>
            <path d="M522.452 487.87l42.417-42.42a7.313 7.313 0 0 0 0-10.32 7.317 7.317 0 0 0-10.32 0l-42.418 42.42a7.313 7.313 0 0 0 0 10.32 7.317 7.317 0 0 0 10.32 0z" opacity=".3"/>
            <path d="M522.669 574.572l84.524-84.559a7.233 7.233 0 0 0-.31-9.895 7.225 7.225 0 0 0-9.89-.31l-84.546 84.538a7.233 7.233 0 0 0 3.056 12.445 7.225 7.225 0 0 0 7.145-2.24l.02.02z" opacity=".2"/>
            <path d="M693.588 347.215c-2.823-2.953-7.382-2.953-10.204 0l-37.47 39.415-15.903-16.729c-2.863-2.655-7.195-2.512-9.893.327-2.7 2.839-2.835 7.396-.31 10.407l20.407 21.469c.177.24.368.467.572.681 2.822 2.953 7.382 2.953 10.204 0l37.505-39.453 15.852 16.675c1.78 2.124 4.533 3.031 7.147 2.356 2.613-.675 4.654-2.822 5.296-5.571.642-2.75-.22-5.646-2.24-7.519l-20.963-22.058z" opacity=".6"/>
            <path d="M372.386 412.118c-2.914-2.824-7.63-2.824-10.544 0l-21.662 21.046a7.108 7.108 0 0 0 .042 10.286l.042.046 21.662 21.046c1.84 2.027 4.685 2.893 7.386 2.248 2.7-.644 4.809-2.693 5.472-5.317.663-2.623-.228-5.388-2.314-7.175l-16.464-15.996 16.38-15.914a7.15 7.15 0 0 0 2.193-5.135 7.15 7.15 0 0 0-2.193-5.135z" opacity=".2"/>
            <path d="M326.681 543.136a7.301 7.301 0 0 0-10.321 0l-21.056 21.046-.17.176a7.323 7.323 0 0 0 0 10.334c.442.442.94.824 1.481 1.137l41.977 42.035a7.301 7.301 0 0 0 10.322 0l.16-.171c.051-.057.113-.103.17-.155l43.928-43.988a7.328 7.328 0 0 0-.314-10.02 7.306 7.306 0 0 0-10.007-.314l-39.098 39.115-32.93-32.982 15.858-15.878a7.323 7.323 0 0 0 0-10.335z" opacity=".3"/>
            <path d="M384.138 444.861a7.323 7.323 0 0 0 10.344 0l64.686-64.684a7.33 7.33 0 0 0-10.344-10.345l-64.686 64.664a7.324 7.324 0 0 0 0 10.345v.02z" opacity=".4"/>
            <path d="M394.377 403.87l58.703-59.204 36.847 37.178a7.22 7.22 0 0 0 9.945-.315c2.712-2.737 2.849-7.13.312-10.034l-41.868-42.248-.077-.067-.04-.047a7.231 7.231 0 0 0-10.257 0l-63.822 64.369c-2.827 2.86-2.827 7.488 0 10.348a7.216 7.216 0 0 0 10.257.02z" opacity=".4"/>
            <path d="M680.4 304.431l-36.91 37.225-37.406-37.727a7.154 7.154 0 0 0-9.982.204c-2.733 2.762-2.81 7.21-.177 10.068l42.222 42.584a7.618 7.618 0 0 0 10.505.225l41.953-42.307a7.303 7.303 0 0 0 2.184-7.156 7.234 7.234 0 0 0-5.243-5.3 7.165 7.165 0 0 0-7.1 2.184h-.046z" opacity=".3"/>
            <path d="M728.492 391.127l-64.354 64.5a7.83 7.83 0 0 0 0 10.754l43.387 43.475a7.317 7.317 0 0 0 10.35 0 7.352 7.352 0 0 0 0-10.37L679.5 461.03l59.366-59.486a7.368 7.368 0 0 0 0-10.37 7.332 7.332 0 0 0-10.375-.047z" opacity=".2"/>
            <path d="M727.175 572.876c2.878 2.832 7.528 2.832 10.405 0l16.42-16.24V536l-26.846 26.554a7.252 7.252 0 0 0-2.154 5.165 7.252 7.252 0 0 0 2.175 5.157z" opacity=".6"/>
            <path d="M738.857 519.157a7.3 7.3 0 0 0-10.363 0l-43.177 43.533a7.43 7.43 0 0 0-2.153 5.236 7.43 7.43 0 0 0 2.153 5.236c.363.364.763.69 1.192.971l15.239 15.356-37.913 38.215c-2.563 2.93-2.425 7.366.315 10.128a7.3 7.3 0 0 0 10.048.318l43.171-43.517a7.392 7.392 0 0 0 2.147-5.829 7.372 7.372 0 0 0-3.048-5.405l-15.487-15.611 37.87-38.17c2.863-2.889 2.865-7.568.006-10.46z" opacity=".6"/>
            <path d="M585.989 597.087l38.2-38.226 32.954 32.976-38.2 38.222a7.397 7.397 0 0 0 3.125 12.727 7.388 7.388 0 0 0 7.306-2.29l43.427-43.45.032-.032a7.397 7.397 0 0 0 0-10.463 7.303 7.303 0 0 0-.606-.522l-42.248-42.271a6.475 6.475 0 0 0-.521-.6 7.383 7.383 0 0 0-10.432 0l-43.464 43.481a7.402 7.402 0 0 0 3.095 12.794 7.394 7.394 0 0 0 7.337-2.356l-.005.01z" opacity=".4"/>
            <path d="M746.282 467.582L752 473v-17.997c-3.187-.083-6.106 1.681-7.366 4.454-1.26 2.772-.607 5.992 1.648 8.125z" opacity=".6"/>
            <path d="M704.083 454.383a7.287 7.287 0 0 0-2.083 5.1c0 .235 0 .464.035.694.035.23.055.459.096.688a7.209 7.209 0 0 0 1.952 3.734l41.621 42.29a7.027 7.027 0 0 0 5.276 2.106v-17.19l-31.783-32.322L751 427.166v-17.159a7.032 7.032 0 0 0-5.33 2.107l-41.587 42.269zM735.253 313.935c2.475-2.845 2.341-7.15-.304-9.83a7.016 7.016 0 0 0-9.697-.31l-21.177 21.466a7.164 7.164 0 0 0-2.04 4.395c-.024.23-.036.46-.035.69 0 .23.01.46.035.69a7.185 7.185 0 0 0 2.04 4.39L751 383v-20.37l-31.888-32.335 16.141-16.36zM748.382 336.815L754 342v-21l-5.618 5.185c-3.176 2.937-3.176 7.693 0 10.63z" opacity=".6"/>
            <path d="M683.786 528.84a7.291 7.291 0 0 0 10.08-.177 7.21 7.21 0 0 0 .203-10.033l-41.653-41.472-.047-.051a7.296 7.296 0 0 0-10.256 0l-85.297 84.875a7.21 7.21 0 0 0 .312 9.9 7.291 7.291 0 0 0 9.945.31l80.153-79.72 36.56 36.368z"/>
            <path d="M102.122 638.877a7.218 7.218 0 0 0 10.226 0l42.544-42.724a7.31 7.31 0 0 0 0-10.27l-21.33-21.419a7.226 7.226 0 0 0-7.163-2.254 7.26 7.26 0 0 0-5.308 5.33 7.296 7.296 0 0 0 2.244 7.194l16.203 16.279-37.416 37.578a7.287 7.287 0 0 0-2.122 5.143c0 1.929.763 3.779 2.122 5.143zM243.835 627.325c-.079-.08-.169-.148-.253-.227-.085-.08-.148-.175-.228-.254l-21.077-21.062c-.1-.1-.206-.19-.312-.28-.105-.09-.18-.211-.28-.312a7.503 7.503 0 0 0-10.597 0l-22.61 22.594a7.486 7.486 0 0 0 3.215 12.834 7.498 7.498 0 0 0 7.382-2.27l17.314-17.303 11.56 11.561-17.315 17.297a7.48 7.48 0 0 0 3.166 12.88 7.492 7.492 0 0 0 7.404-2.317l22.61-22.594a7.48 7.48 0 0 0 .021-10.547z" opacity=".3"/>
            <path d="M283.412 628.574l-59.56-59.347 82.303-82.008a7.336 7.336 0 0 0-.317-10.065 7.4 7.4 0 0 0-10.101-.316l-86.648 86.296c-.1.093-.183.202-.276.3a7.33 7.33 0 0 0-.646 10.972l59.581 59.358-38.386 38.248a7.31 7.31 0 0 0-2.15 4.988h18.023l38.177-38.045a7.341 7.341 0 0 0 0-10.381zM630.945 586.365c-2.814-2.853-7.43-2.921-10.33-.154l-60.912 58.437-59.895-59.198a7.37 7.37 0 0 0-7.235-2.24c-2.646.642-4.712 2.684-5.361 5.3a7.187 7.187 0 0 0 2.266 7.154l64.828 64.1c.016.02.035.037.057.05 2.814 2.853 7.43 2.922 10.33.154l66.108-63.4a7.184 7.184 0 0 0 .144-10.203z" opacity=".4"/>
            <path d="M489.129 550.864a7.543 7.543 0 0 0 5.273 2.136 7.543 7.543 0 0 0 5.274-2.136l22.151-21.644a7.166 7.166 0 0 0 0-10.28h-.026l-21.615-21.12c-2.951-2.543-7.418-2.406-10.2.313a7.163 7.163 0 0 0-.32 9.967l16.396 16.021-16.886 16.5a7.17 7.17 0 0 0-.047 10.243z" opacity=".2"/>
            <path d="M479.6 519.144a7.397 7.397 0 0 0-10.415 0l-21.283 21.187a7.282 7.282 0 0 0-.755.643 7.333 7.333 0 0 0 0 10.368l16.664 16.59-15.503 15.433a7.328 7.328 0 0 0-1.156 11.312l21.934 21.835a7.4 7.4 0 0 0 7.295 2.276 7.363 7.363 0 0 0 5.406-5.382 7.326 7.326 0 0 0-2.286-7.262l-16.607-16.532 15.852-15.78a7.386 7.386 0 0 0 3.06-6.318 7.393 7.393 0 0 0-3.612-6.021l-15.357-15.242 16.763-16.693a7.324 7.324 0 0 0 2.177-5.207c0-1.955-.784-3.83-2.177-5.207zM434.883 562.453l-42.373-43.296a7.12 7.12 0 0 0-10.905.834l-41.797 42.707c-2.526 2.927-2.39 7.356.31 10.116a7.123 7.123 0 0 0 9.9.317l37.437-38.252 32.077 32.822-16.383 16.744c-2.815 2.883-2.815 7.55 0 10.433l21.498 21.972a7.135 7.135 0 0 0 10.21 0c2.807-2.887 2.807-7.547 0-10.433l-16.387-16.74 16.388-16.744a7.478 7.478 0 0 0 2.142-5.235 7.48 7.48 0 0 0-2.117-5.245z" opacity=".4"/>
            <path d="M390.698 605.162a7.232 7.232 0 0 0-10.25 0l-36.56 36.743-75.343-75.722 79.956-80.359.051-.062.062-.056a7.32 7.32 0 0 0 0-10.303l-35.76-35.976 58.972-59.3a7.326 7.326 0 0 0-.312-9.99 7.236 7.236 0 0 0-9.938-.312L297.2 434.477a7.306 7.306 0 0 0 1.681 11.58l34.304 34.477-80.073 80.472a7.336 7.336 0 0 0 0 10.302l85.593 86.025a7.242 7.242 0 0 0 10.25 0l36.611-36.718 37.723 37.913a7.24 7.24 0 0 0 7.18 2.261 7.281 7.281 0 0 0 5.32-5.347 7.322 7.322 0 0 0-2.25-7.216l-42.842-43.064z" opacity=".4"/>
            <path d="M717.78 239.217a7.612 7.612 0 0 0-10.74 0l-17.062 17.025-17.017-17.025a7.607 7.607 0 0 0-10.414.327 7.615 7.615 0 0 0-.327 10.418l17.018 17.047-17.018 17.025a7.61 7.61 0 0 0 0 10.745 7.602 7.602 0 0 0 10.74 0l17.018-16.999 17.018 17.02a7.607 7.607 0 0 0 10.414-.327 7.615 7.615 0 0 0 .327-10.418l-17.013-17.025 17.013-17.025a7.609 7.609 0 0 0 .042-10.788z" opacity=".1"/>
        </g>
    </g>
</svg>
