<svg xmlns="http://www.w3.org/2000/svg" width="1435" height="1435" viewBox="0 0 1435 1435">
  <metadata><?xpacket begin="﻿" id="W5M0MpCehiHzreSzNTczkc9d"?>
<x:xmpmeta xmlns:x="adobe:ns:meta/" x:xmptk="Adobe XMP Core 5.6-c138 79.159824, 2016/09/14-01:09:01        ">
   <rdf:RDF xmlns:rdf="http://www.w3.org/1999/02/22-rdf-syntax-ns#">
      <rdf:Description rdf:about=""/>
   </rdf:RDF>
</x:xmpmeta>
                                                                                                    
                                                                                                    
                                                                                                    
                                                                                                    
                                                                                                    
                                                                                                    
                                                                                                    
                                                                                                    
                                                                                                    
                                                                                                    
                                                                                                    
                                                                                                    
                                                                                                    
                                                                                                    
                                                                                                    
                                                                                                    
                                                                                                    
                                                                                                    
                                                                                                    
                                                                                                    
                           
<?xpacket end="w"?></metadata>
<defs>
    <style>
      .cls-1, .cls-2, .cls-3 {
        fill: #fff;
        fill-rule: evenodd;
      }

      .cls-1 {
        opacity: 0.3;
      }

      .cls-2 {
        opacity: 0.5;
      }

      .cls-3 {
        opacity: 0.7;
      }
    </style>
  </defs>
  <path id="Shape_1_copy_8" data-name="Shape 1 copy 8" class="cls-1" d="M23.984-.01H0.012L0.05,24,23.984-.01m84.023,0H66.737L34.669,32.465A14.9,14.9,0,0,0,35.3,52.673a14.458,14.458,0,0,0,19.963.634L55.3,53.349,108.007-.008M446.969,0L437.1,9.755a14.765,14.765,0,0,1-10.4,4.258,14.769,14.769,0,0,1-10.4-4.258A14.509,14.509,0,0,1,412.017,0h34.952ZM427.992,997.731a14.036,14.036,0,0,0-10.132,4.349l-75.2,78.02-32.119-33.31a13.978,13.978,0,0,0-2.857-2.29,13.986,13.986,0,0,0-5.918-2,11.826,11.826,0,0,0-1.33-.07h-0.094a11.862,11.862,0,0,0-1.332.07,14.043,14.043,0,0,0-8.775,4.29l-31.613,32.81-74.707-77.51a13.989,13.989,0,0,0-20.265-.01,15.3,15.3,0,0,0,0,21.02l84.86,88.05a13.976,13.976,0,0,0,20.265,0l31.613-32.8,32.12,33.32a14,14,0,0,0,20.265,0c0.081-.09.152-0.18,0.233-0.27a3.455,3.455,0,0,0,.264-0.25l84.859-88.05a15.278,15.278,0,0,0,0-21.02,14.038,14.038,0,0,0-10.133-4.349m107-997.739H493.6l-73.76,73.962a14.3,14.3,0,0,0,20.15,20.256h0.041L534.991-.008m278.8,51.826a14.6,14.6,0,0,1-20.455,0L750.26,9.123A14.265,14.265,0,0,1,746.066,0h35.95L813.79,31.555A14.265,14.265,0,0,1,813.79,51.818Zm205.48,20.234a14.458,14.458,0,0,0-10.25,4.241l-43.066,43.077a14.467,14.467,0,0,0,20.46,20.458L1029.5,96.741a14.46,14.46,0,0,0-10.23-24.689m334.36,82.282a14.367,14.367,0,0,0-10.78,4.868v-0.091l-254,254.055a14.382,14.382,0,0,0,20.28,20.341l254-254.014a14.374,14.374,0,0,0-9.5-25.159M1101.45,72.052a14.685,14.685,0,0,0-10.93,4.843l-117.042,114.9L940.291,159.2a14.75,14.75,0,0,0-20.606,0,14.131,14.131,0,0,0,0,20.187l43.29,42.576,0.1,0.091,0.1,0.111a14.763,14.763,0,0,0,20.555,0L1111.08,97.083a14.165,14.165,0,0,0,4.51-14.14,14.455,14.455,0,0,0-10.67-10.478,14.808,14.808,0,0,0-3.47-.413m-4.96,82.282a14.362,14.362,0,0,0-9.5,3.575L971.434,272.752l-74.243-73.884-0.416-.4a14.39,14.39,0,0,0-22.78,3.24l-82.53,82.13a14.276,14.276,0,0,0,6.256,24.341,14.42,14.42,0,0,0,14.08-4.155l75.207-74.842,74.446,74.085a14.433,14.433,0,0,0,20.286,0,14.67,14.67,0,0,0,1.836-2.241L1107.27,178.1a14.3,14.3,0,0,0-10.78-23.762M210.737,277.758a14.117,14.117,0,0,0-10.029,4.175l-42.246,42.612a14.433,14.433,0,0,0,0,20.234L274.337,461.75,241.369,495a14.444,14.444,0,0,0,0,20.285,14.137,14.137,0,0,0,20.059,0l42.246-42.612c0.131-.132.241-0.274,0.372-0.415s0.28-.243.411-0.375a14.415,14.415,0,0,0,0-20.234L188.581,334.682l32.186-32.465a14.423,14.423,0,0,0,0-20.284,14.117,14.117,0,0,0-10.03-4.175M719.8,113.193a14.58,14.58,0,0,0-10.221,4.144l-0.214.231-0.236.2L465.544,356.6l-32.8-32.162-0.194-.171-0.174-.18a14.676,14.676,0,0,0-20.441,0l-43.038,42.2a14.013,14.013,0,0,0,.507,19.55,14.7,14.7,0,0,0,19.934.546l32.8-32.193L455.3,386.715a14.356,14.356,0,0,0,3.536,2.557,15.288,15.288,0,0,0,2.105.881,14.71,14.71,0,0,0,14.871-3.417L719.828,147.415l32.8,32.173a14.7,14.7,0,0,0,19.719-.708,14.011,14.011,0,0,0,.722-19.338l-43.048-42.2a14.58,14.58,0,0,0-10.221-4.144m-3.9,164.565a14.336,14.336,0,0,0-9.523,3.61l-0.061-.041L421.5,566.925,390.379,535.73a14.421,14.421,0,1,0-20.328,20.383l41.3,41.407a14.4,14.4,0,0,0,20.379,0l294.98-295.77A14.44,14.44,0,0,0,715.9,277.758M421.979,407.468a14.27,14.27,0,0,0-10.228,4.333,15.211,15.211,0,0,0,0,21.023l32.833,33.731-32.833,33.732a15.209,15.209,0,0,0-.051,21.128,14.236,14.236,0,0,0,20.456,0l43.071-44.275a15.176,15.176,0,0,0,0-21.022L432.207,411.8a14.268,14.268,0,0,0-10.228-4.333M297.485,699.457a14.6,14.6,0,0,0-10.338,24.909L330.6,767.8a14.616,14.616,0,0,0,20.633-20.625l-43.412-43.436a14.611,14.611,0,0,0-10.337-4.284m1.732,262.276a14.013,14.013,0,0,0-10,4.2l-0.12.142-0.131.124-32.07,32.711L224.782,966.2a13.975,13.975,0,0,0-20.047,0,14.65,14.65,0,0,0,0,20.387l42.134,42.922a13.967,13.967,0,0,0,20.007,0l32.361-32.962,32.1,32.712a13.984,13.984,0,0,0,19.4-.62,14.647,14.647,0,0,0,.609-19.77l-42.124-42.935a14.015,14.015,0,0,0-10-4.2M592.6,745.741a14.178,14.178,0,0,0-10.081,4.2L380.9,952.981,348.4,920.19a14.232,14.232,0,0,0-20.212,0,14.478,14.478,0,0,0,0,20.3l42.461,42.751a14.2,14.2,0,0,0,17.309,2.224,13.857,13.857,0,0,0,3.578-2.63L602.683,770.3a14.449,14.449,0,0,0,0-20.366,14.182,14.182,0,0,0-10.081-4.2m-330.066,5.143a14.232,14.232,0,0,0-10.129,4.248l-42.494,43.234a14.735,14.735,0,0,0,0,20.529,14.143,14.143,0,0,0,20.177,0l32.375-32.939L375.459,900.919a14.113,14.113,0,0,0,20.177,0L438.13,857.7a14.746,14.746,0,0,0,0-20.581,14.143,14.143,0,0,0-20.228,0l-32.375,32.95L272.534,755.1a13.717,13.717,0,0,0-10-4.217M973.12,30.911a14.281,14.281,0,0,0-10.135,4.21L761.566,237.771l-32.522-32.736a14.294,14.294,0,0,0-20.269,0,14.532,14.532,0,0,0,0,20.4l42.687,42.968a14.3,14.3,0,0,0,20.27,0l0.051-.051V268.3L983.255,55.523a14.522,14.522,0,0,0,0-20.4,14.279,14.279,0,0,0-10.135-4.21M339.326,236.617a14.431,14.431,0,0,0-10.837,23.975L361.236,293.3l-75.66,75.576a14.438,14.438,0,0,0,0,20.419L360,463.642,71.7,751.4A14.448,14.448,0,1,0,92.1,771.821h0.051L388.234,476.056a14.242,14.242,0,0,0,2.039-2.607,14.44,14.44,0,0,0,0-20.368l-74.111-74.028,75.66-75.576a14.429,14.429,0,0,0,0-20.368l-42.943-42.885a14.412,14.412,0,0,0-9.553-3.607m-39.94-46.284a14.3,14.3,0,0,0-10.772,4.911l-42.687,43.1a14.624,14.624,0,0,0,0,20.469l33.039,33.364-32.533,32.842a14.624,14.624,0,0,0,0,20.52,14.28,14.28,0,0,0,20.27,0l42.677-43.107a14.594,14.594,0,0,0,.021-20.5c-0.082-.091-0.183-0.163-0.264-0.245l-0.243-.277-32.533-32.852,32.523-32.842a14.591,14.591,0,0,0,4.447-14.338,14.431,14.431,0,0,0-10.52-10.623,14.212,14.212,0,0,0-3.425-.419M130.729,365.183a15.39,15.39,0,0,0-3.781.472,14.745,14.745,0,0,0-10.695,10.373,14.223,14.223,0,0,0,4.1,14.12L154.222,423l-77.8,75.517a14.242,14.242,0,0,0-4.316,11.647c0.053,0.461.116,0.921,0.211,1.382a13.738,13.738,0,0,0,1.055,3.285,14.451,14.451,0,0,0,3,4.2l44.444,43.095a15.291,15.291,0,0,0,20.461-.622,14.187,14.187,0,0,0,.643-19.846L108.058,508.8l77.871-75.538a14.225,14.225,0,0,0,.011-20.53l-44.433-43.106a15.193,15.193,0,0,0-10.778-4.446M718.756,30.91a13.81,13.81,0,0,0-10.026,4.358,15.519,15.519,0,0,0,0,21.1l83.947,88.441c0.24,0.253.48,0.485,0.731,0.717l0.241,0.211a15.512,15.512,0,0,0,1.554,1.193c0.3,0.189.6,0.379,0.912,0.548a13.616,13.616,0,0,0,6.6,1.714,13.849,13.849,0,0,0,10.053-4.383l83.7-88.071a15.524,15.524,0,0,0-.61-20.458,13.7,13.7,0,0,0-19.442-.642l-73.641,77.49L728.781,35.268a13.808,13.808,0,0,0-10.025-4.358M1127.01-.008h-41.6l-22.9,22.352L1039.61-.008h-41.6l54.1,52.807a15.367,15.367,0,0,0,4.26,2.877,14.609,14.609,0,0,0,3.33,1.063,13.165,13.165,0,0,0,1.4.192c0.48,0.045.95,0.068,1.43,0.068a15.046,15.046,0,0,0,4.16-.584,14.655,14.655,0,0,0,6.23-3.616L1127.01-.008m81.44,0H1168l52.64,52.826a14.266,14.266,0,0,0,20.18,0,14.411,14.411,0,0,0,0-20.263L1208.45-.008m159.55,0h-34.93l-107.7,108.725-75.35-76.064a14.37,14.37,0,0,0-19.8.628,14.707,14.707,0,0,0-.62,19.986l85.54,86.442a14.508,14.508,0,0,0,10.21,4.277,14.771,14.771,0,0,0,2.77-.267,13.774,13.774,0,0,0,2.67-.805,14.439,14.439,0,0,0,4.79-3.2L1363.77,10.3A14.677,14.677,0,0,0,1368-.008m-667.987,0h-41.8L635.51,22.173,612.8-.008h-41.8l54.056,52.8a15.033,15.033,0,0,0,20.851,0l54.1-52.8m-428,0-35.9.063-77.41,73.5a13.681,13.681,0,0,0,0,20.068,15.5,15.5,0,0,0,21.093,0L267.657,9.67a13.914,13.914,0,0,0,4.354-9.678m407.924,72.06a14.5,14.5,0,0,0-10.174,4.131L468.323,274.019,308.769,117.269l-0.061-.06a14.593,14.593,0,0,0-20.347,0,14.3,14.3,0,0,0-1.018,1.169L76.921,324.977a14.005,14.005,0,0,0-4.465,14,14.289,14.289,0,0,0,10.561,10.372,14.607,14.607,0,0,0,14.252-4.385h0.04L298.6,147.314,458.108,304a14.594,14.594,0,0,0,20.348,0l0.071-.08,0.071-.06L690.109,96.167a13.99,13.99,0,0,0,0-19.984,14.5,14.5,0,0,0-10.174-4.131M556.307,30.91a14.746,14.746,0,0,0-10.317,4.165L422.181,155.956,302.644,39.205a14.883,14.883,0,0,0-20.635,0,14.036,14.036,0,0,0,0,20.147l129.8,126.824a14.882,14.882,0,0,0,20.635,0L566.625,55.222a14.047,14.047,0,0,0,0-20.147,14.75,14.75,0,0,0-10.318-4.165M253.185,72.052a14.12,14.12,0,0,0-10.039,4.183l-73.691,74.407-31.263-31.578a14.188,14.188,0,0,0-24.611,6.014,14.46,14.46,0,0,0,4.532,14.261l41.253,41.643a14.357,14.357,0,0,0,20.31,0l83.639-84.453a14.464,14.464,0,0,0,0-20.274l-0.09-.02a14.122,14.122,0,0,0-10.04-4.183M636.956,452.609a14.181,14.181,0,0,0-9.468,3.621l-83.345,84.306a17.25,17.25,0,0,0,.1,22.487L669.877,690.066a14.2,14.2,0,0,0,20.26,0,14.612,14.612,0,0,0,0-20.443L573.569,551.667,647.7,476.672a14.6,14.6,0,0,0-.615-19.821,14.2,14.2,0,0,0-10.126-4.242m-42.24,210.849a14.478,14.478,0,0,0-10.212,4.186,14.247,14.247,0,0,0,0,20.247l74.925,74.274L456.835,962.951a14.277,14.277,0,0,0,0,20.3,14.582,14.582,0,0,0,20.475,0l212.775-210.94a14.246,14.246,0,0,0,0-20.246l-85.157-84.418a14.478,14.478,0,0,0-10.212-4.186M509.65,576.033a14.594,14.594,0,0,0-10.287,4.212,14.266,14.266,0,0,0-.625,19.681l31.892,31.533-31.892,31.533a14.258,14.258,0,0,0,0,20.3l31.82,31.462-31.891,31.534a14.281,14.281,0,0,0-4.5,14.217,14.461,14.461,0,0,0,10.655,10.535,14.657,14.657,0,0,0,14.378-4.454l40.678-40.221A12.625,12.625,0,0,0,561.5,725a14.258,14.258,0,0,0,0-20.3L529.6,673.172,561.5,641.639a14.257,14.257,0,0,0-.051-20.309l-42.176-41.7a14.6,14.6,0,0,0-9.618-3.594M172,833.166a14.1,14.1,0,0,0-10.044,4.2,14.514,14.514,0,0,0-.4,19.958l30.179,30.536L76.2,1004.8a14.521,14.521,0,0,0,0,20.31v0.04l0.512,0.46c0.161,0.18.3,0.36,0.462,0.52l115.418,116.78L35.714,1301.68a14.484,14.484,0,0,0-4.405,14.22,14.309,14.309,0,0,0,10.418,10.55,14.143,14.143,0,0,0,14.06-4.46L222.28,1153.53a16.013,16.013,0,0,0-.2-21.49l-115.7-117.07L220.594,899.428a16.937,16.937,0,0,0,1-22.027l-39.914-40.386A14.093,14.093,0,0,0,172,833.166M195.009-.008H154.121l-32.614,32.9a14.672,14.672,0,0,0,.719,19.837,14.361,14.361,0,0,0,19.665.725l0.04,0.051,11.323-11.422,0.326-.3L195.009-.008m159.74,0H314.014l46.547,46.851,0.061,0.02,6.178,6.264a14.34,14.34,0,0,0,19.969-.355,14.538,14.538,0,0,0,.4-20.08l-6.2-6.233L354.749-.008m916.4,324.05a14.741,14.741,0,0,0-9.63,3.549l-0.04-.04L1090.09,494.619a13.983,13.983,0,0,0-4.52,14.035,14.4,14.4,0,0,0,10.67,10.4,14.984,14.984,0,0,0,3.48.411,14.732,14.732,0,0,0,10.92-4.808l171.44-167.028a13.94,13.94,0,0,0-.63-19.428,14.71,14.71,0,0,0-10.3-4.158m-251.83,0a14.43,14.43,0,0,0-10.12,4.125l-32.544,32.32-32.172-31.938a14.451,14.451,0,0,0-20.3,0l-116.2,115.315L775.8,411.917a14.422,14.422,0,0,0-24.483,6.216,14.214,14.214,0,0,0,4.179,13.99L797.84,474.16a14.46,14.46,0,0,0,20.3,0l0.264-.283,0.294-.262L934.332,358.9,966.5,390.833a14.45,14.45,0,0,0,20.3,0l0.182-.192,0.193-.181,42.357-42.047a14.226,14.226,0,0,0,0-20.155,14.44,14.44,0,0,0-10.22-4.216m-7.24,82.283a14.362,14.362,0,0,0-9.49,25.135l42.26,42.276a14.358,14.358,0,1,0,20.26-20.322l-42.26-42.226a14.352,14.352,0,0,0-10.77-4.863M931.974,493.75a14.241,14.241,0,0,0-9.559,3.676L796.825,623.573l-0.171.173a14.452,14.452,0,0,0,0,20.351,14.7,14.7,0,0,0,2.02,1.655l31.011,31.161L713.924,793.2a14.442,14.442,0,0,0,0,20.341,14.264,14.264,0,0,0,20.2,0l125.761-126.32a14.421,14.421,0,0,0,.292-20.016,15.829,15.829,0,0,0-1.595-1.929L827.2,633.744,942.618,517.777a14.444,14.444,0,0,0-.5-19.8,14.256,14.256,0,0,0-10.143-4.228M1183.76,236.617a14.53,14.53,0,0,0-10.29,4.25l-42.92,42.914a14.551,14.551,0,0,0,20.57,20.587l42.93-42.924a14.539,14.539,0,0,0-10.29-24.827M1354.27,1337.29a14.284,14.284,0,0,0-10.06,4.13l-73.81,73.54-30.74-30.63a14.286,14.286,0,0,0-10.69-4.8,14.182,14.182,0,0,0-9.42,24.84l30.74,30.63h40.31l63.59-63.45,32.28,32.06a14.223,14.223,0,0,0,20.11-20.04l-40.06-39.96c-0.38-.35-0.78-0.69-1.19-1-0.33-.41-0.68-0.81-1-1.19a14.284,14.284,0,0,0-10.06-4.13M1290.99-.008H1250l9.52,9.9,0.45,0.34c0.12,0.128.22,0.266,0.35,0.394a14.09,14.09,0,0,0,20.44,0l10.23-10.63m-19.61,406.333a14.462,14.462,0,0,0-10.15,4.13L1102.05,567.484,944.218,411.737a16.221,16.221,0,0,0-21.615-.1L754.473,577.553a14.059,14.059,0,0,0,.618,19.427,14.526,14.526,0,0,0,19.688.609L933.365,441.182,1091.87,597.6a14.51,14.51,0,0,0,20.31,0l169.3-167.058a14.082,14.082,0,0,0,.05-20.087,14.462,14.462,0,0,0-10.15-4.13m127.99-210.85a14.914,14.914,0,0,0-11.19,5.053l-87.82,87.84a14.872,14.872,0,1,0,21.04,21.025l87.84-87.808a14.922,14.922,0,0,0-9.87-26.11m-82.85,257.134a14.494,14.494,0,0,0-10.26,4.256l-42.03,42.087a14.535,14.535,0,0,0,0,20.486l42.03,42.087a14.5,14.5,0,0,0,20.46,0c0.26-.266.5-0.543,0.74-0.82l30.96-31,31.78,31.824a14.5,14.5,0,0,0,20.46-20.485l-42.03-42.088a14.473,14.473,0,0,0-20.46,0l-0.15.164-0.18.154-31.41,31.455-21.48-21.509,31.82-31.865a14.5,14.5,0,0,0-10.25-24.742m-86.56,87.425a14.775,14.775,0,0,0-10.34,4.181l-42.5,41.551-0.12.131-0.12.111a14.1,14.1,0,0,0,0,20.275l32.16,31.448-32.06,31.347a14.519,14.519,0,0,0-.06,20.608l42.4,41.6a14.907,14.907,0,0,0,20.68,0,14.12,14.12,0,0,0,0-20.273l-32.22-31.6L1240.1,647.8a14.1,14.1,0,0,0,0-20.274c-0.19-.192-0.4-0.364-0.61-0.546l-31.58-30.872,32.39-31.671a14.1,14.1,0,0,0,0-20.224,14.775,14.775,0,0,0-10.34-4.181m-257.17,0a14.132,14.132,0,0,0-10.017,4.169l-84.338,84.772a14.307,14.307,0,0,0,0,20.117l31.232,31.382-31.141,31.3a14.3,14.3,0,0,0,.608,19.5,14.129,14.129,0,0,0,19.4.612l41.118-41.331a14.536,14.536,0,0,0-.09-20.347l-31.081-31.252,64.273-64.585L1086.69,688.944a14.072,14.072,0,0,0,4.69,3.128,14.034,14.034,0,0,0,5.33,1.045,14.223,14.223,0,0,0,10.01-4.173l41.12-41.33a14.3,14.3,0,0,0,.02-20.168,14.135,14.135,0,0,0-20.01,0l-31.1,31.251L982.787,544.2a14.164,14.164,0,0,0-4-2.817,14.851,14.851,0,0,0-2-.774,14.113,14.113,0,0,0-3.993-.578M1060.52,704.6a14.285,14.285,0,0,0-10.14,4.206L976.6,782.917l-31.532-31.661a14.322,14.322,0,0,0-20.291,0,14.5,14.5,0,0,0,0,20.381l41.688,41.87a14.161,14.161,0,0,0,2.253,1.855c0.263,0.172.537,0.316,0.8,0.468a4.344,4.344,0,0,0,.425.255,9.172,9.172,0,0,0,1.015.448l0.314,0.154c0.224,0.092.456,0.163,0.69,0.244s0.416,0.153.63,0.213l0.232,0.062a14.307,14.307,0,0,0,14.022-3.7l73.756-74.092,31.52,31.661a14.339,14.339,0,0,0,19.68-.62,14.482,14.482,0,0,0,.62-19.76l-41.75-41.891a14.325,14.325,0,0,0-10.15-4.206m3.31,82.283a14.58,14.58,0,0,0-10.38,4.342,14.935,14.935,0,0,0-.63,20.286l42.52,43.048a14.58,14.58,0,0,0,20.72,0l42.57-42.985a14.937,14.937,0,0,0-.64-20.287,14.562,14.562,0,0,0-20.08-.635l-32.2,32.5-32.17-32.566a14.557,14.557,0,0,0-9.71-3.705M847.058,997.731a13.9,13.9,0,0,0-10.425,23.089l40.3,40.29a13.894,13.894,0,0,0,19.613-19.61l-40.3-40.29a13.841,13.841,0,0,0-9.189-3.479M1054.8,874.307a15.556,15.556,0,0,0-10.66,4.215L919.248,1004.46a14.449,14.449,0,0,0,.35,19.91,14.126,14.126,0,0,0,19.731.4h0.04L1054.83,908.291l31.7,31.987a14.813,14.813,0,0,0,20.63.252l31.19-31.47,31.16,31.5a14.136,14.136,0,0,0,19.47-.616,14.443,14.443,0,0,0,.61-19.641l-41.25-41.61a14.148,14.148,0,0,0-20.08,0l-31.32,31.592-31.57-31.845a15.587,15.587,0,0,0-10.57-4.134m-40.57-46.284a14.343,14.343,0,0,0-10.52,4.605l-73.426,73.784L898.77,874.757a14.313,14.313,0,0,0-20.259,0,14.472,14.472,0,0,0,0,20.407l41.623,41.823a14.315,14.315,0,0,0,20.209,0c0.091-.092.172-0.193,0.253-0.285,0.345-.284.679-0.59,1.013-0.906l82.361-82.76a14.408,14.408,0,0,0-9.74-25.013M844.476,915.448a13.946,13.946,0,0,0-9.977,4.21L627.1,1131.83a14.691,14.691,0,0,0-4.379,14.31,14.317,14.317,0,0,0,10.357,10.6,13.973,13.973,0,0,0,13.978-4.48L844.416,950.317l32.11,32.855a13.9,13.9,0,0,0,19.348-.622,14.712,14.712,0,0,0,.607-19.8h0.081l-41-41.951c-0.19-.194-0.389-0.367-0.578-0.541s-0.34-.408-0.53-0.6a13.947,13.947,0,0,0-9.978-4.21m467.9-41.141a14.535,14.535,0,0,0-9.58,3.572L1186.69,992.358l-31.83-31.395a14.614,14.614,0,0,0-20.44,0c-0.19.192-.37,0.393-0.55,0.6L1006.72,1086.89a14.14,14.14,0,0,0,.4,19.81,14.634,14.634,0,0,0,20.09.35v0.04l117.41-115.821,31.68,31.251a14.529,14.529,0,0,0,10.22,4.19h0a15.4,15.4,0,0,0,10.48-4.21l126.24-124.458a14.148,14.148,0,0,0-.62-19.55,14.555,14.555,0,0,0-10.24-4.185m-251.99,87.426a14.479,14.479,0,0,0-10.24,4.226l-84.191,84.2a14.483,14.483,0,0,0,20.485,20.48l84.2-84.194a14.47,14.47,0,0,0-10.25-24.713m82.49,87.427a14.186,14.186,0,0,0-9.43,3.57L966.56,1219.6a14.278,14.278,0,0,0,6.031,24.57,14.648,14.648,0,0,0,3.4.41,14.272,14.272,0,0,0,10.7-4.83l0.04,0.04,166.844-166.92a14.27,14.27,0,0,0-10.7-23.71m168.84-262.278a13.911,13.911,0,0,0-10.08,4.366l-73.96,77.7-31.39-32.979a13.776,13.776,0,0,0-19.53.643,15.539,15.539,0,0,0-.61,20.518l40.28,42.322a14.736,14.736,0,0,0,1.13,1.344,13.8,13.8,0,0,0,20.14,0l74.04-77.777,31.29,32.873a13.971,13.971,0,0,0,10.7,5.077,13.651,13.651,0,0,0,3.41-.434,14.66,14.66,0,0,0,10.45-10.983,15.464,15.464,0,0,0-4.42-14.82l-41.38-43.486a13.906,13.906,0,0,0-10.07-4.366M678.962,915.449a14.55,14.55,0,0,0-10.259,4.2l-42.152,41.775a14.3,14.3,0,0,0,0,20.334l0.082,0.081,0.082,0.091,42.152,41.777a14.586,14.586,0,0,0,25.02-6.09,14.319,14.319,0,0,0-4.5-14.24l-32.038-31.756,31.873-31.588a14.3,14.3,0,0,0,0-20.384,14.55,14.55,0,0,0-10.258-4.2M849.7,833.166a14.268,14.268,0,0,0-9.463,3.577L713.911,963.027a14.3,14.3,0,0,0,0,20.2v0.04a14.3,14.3,0,0,0,20.2,0L860.438,856.946a14.313,14.313,0,0,0-10.737-23.78m0.14-82.283a14.307,14.307,0,0,0-10.11,4.166L713.915,880.755a14.309,14.309,0,0,0,20.22,20.251L849.861,785.384,922.5,857.989a14.322,14.322,0,0,0,20.22-20.21l-82.536-82.508-0.152-.131-0.081-.091a14.3,14.3,0,0,0-10.109-4.166M1140.5,704.6a14.083,14.083,0,0,0-10.06,4.233,14.569,14.569,0,0,0-.35,19.985l83.35,84.524a14.983,14.983,0,0,0,20.74.447l82.81-83.974a14.552,14.552,0,0,0,4.31-14.2,14.32,14.32,0,0,0-10.35-10.521,13.95,13.95,0,0,0-3.45-.432,14.149,14.149,0,0,0-10.57,4.768h-0.09l-72.85,73.887-73.84-74.883a14.066,14.066,0,0,0-9.65-3.83m259.44,169.709a14.221,14.221,0,0,0-10.08,4.179L1264.18,1005.24a15.448,15.448,0,0,0,0,21.13l84.73,85.43a14.232,14.232,0,0,0,20.21,0,14.517,14.517,0,0,0,0-20.38l-74.94-75.57,115.94-116.893a14.552,14.552,0,0,0,0-20.378,14.236,14.236,0,0,0-10.18-4.271m0.04,251.992a14.185,14.185,0,0,0-10.12,4.24l-84.32,85.54a14.705,14.705,0,0,0,0,20.58,14.186,14.186,0,0,0,2.33,1.91l29.76,30.17-74.04,75.1a14.681,14.681,0,0,0,.62,19.9,14.2,14.2,0,0,0,19.62.63l84.31-85.52a14.589,14.589,0,0,0-1.76-22.07l-30.25-30.68,73.96-75a14.7,14.7,0,0,0,.01-20.56,14.185,14.185,0,0,0-10.12-4.24m-214.07,46.28a14.527,14.527,0,0,0-10.26,4.24l-85.46,85.5a14.555,14.555,0,0,0,6.09,25.16,14.737,14.737,0,0,0,3.42.41,14.538,14.538,0,0,0,11-5.04l-0.01.02,75.12-75.17,64.8,64.84-75.12,75.16a14.536,14.536,0,1,0,20.51,20.52l85.4-85.44,0.06-.06a14.546,14.546,0,0,0,0-20.57c-0.38-.36-0.78-0.71-1.19-1.03l-83.08-83.11a12.807,12.807,0,0,0-1.02-1.19,14.527,14.527,0,0,0-10.26-4.24M135.373,1407.35L107.7,1435H66.759l48.1-48.05h0.092A14.472,14.472,0,0,1,135.373,1407.35Zm74.778-193.63a14.867,14.867,0,0,0-3.43.41,14.323,14.323,0,0,0-10.535,10.41,14.112,14.112,0,0,0,4.455,14.05l32.161,31.79-74.268,73.39a14.086,14.086,0,0,0,0,20.09,14.509,14.509,0,0,0,20.3,0l84.447-83.44a14.114,14.114,0,0,0,0-20.06l-42.34-41.83a14.489,14.489,0,0,0-10.787-4.81m351.96-145.75L400.275,1228.73l117.116,116.34a14.36,14.36,0,0,1,0,20.35L447.354,1435H411.882a14.31,14.31,0,0,1,4.23-9.78l70.479-69.98L369.434,1238.89a14.336,14.336,0,0,1,1.27-21.51c0.184-.2.348-0.41,0.543-0.59l170.379-169.17a14.593,14.593,0,0,1,19.862.62A14.348,14.348,0,0,1,562.111,1067.97Zm198.826,352.02a14.816,14.816,0,0,0-10.555,4.41,15.111,15.111,0,0,0-4.367,10.61h36l-10.522-10.61a14.818,14.818,0,0,0-10.555-4.41m168.942-165.13a14.986,14.986,0,0,0-3.444.41,14.3,14.3,0,0,0-10.574,10.36,13.956,13.956,0,0,0,4.471,13.97l127.878,125.18,0.11,0.1a14.68,14.68,0,0,0,20.37.3l130.41-123.82a13.92,13.92,0,0,0,.28-19.92,14.655,14.655,0,0,0-20.37-.3l-120.16,114.12L940.707,1259.65a14.586,14.586,0,0,0-10.828-4.79m1.633-169.7a14.452,14.452,0,0,0-10.882,24.01l31.906,31.8-32.858,32.75a14.415,14.415,0,0,0,20.431,20.34l43.1-42.96a14.429,14.429,0,0,0,0-20.41h-0.05L941.1,1088.77a14.464,14.464,0,0,0-9.59-3.61m-41.157,41.14a14.255,14.255,0,0,0-10.133,4.21l-41.415,41.66a13.847,13.847,0,0,0-1.469,1.27,14.527,14.527,0,0,0,0,20.39l32.426,32.62L839.6,1256.79a14.826,14.826,0,0,0-2.25,1.86,14.507,14.507,0,0,0,0,20.38l42.682,42.94a14.331,14.331,0,0,0,24.714-6.11,14.5,14.5,0,0,0-4.447-14.28l-32.316-32.5,30.846-31.03a14.592,14.592,0,0,0-1.074-24.26l-29.883-29.97,32.619-32.83a14.495,14.495,0,0,0,0-20.48,14.253,14.253,0,0,0-10.133-4.21m-170.523,0a14.026,14.026,0,0,0-11.448,5.88l-82.5,83.98a14.71,14.71,0,0,0,.613,19.88,14.1,14.1,0,0,0,19.542.63l73.9-75.22,63.317,64.54-32.339,32.93a14.7,14.7,0,0,0,0,20.51l42.436,43.2a14.12,14.12,0,0,0,20.156,0,14.735,14.735,0,0,0,0-20.51l-32.35-32.92,32.35-32.92a14.732,14.732,0,0,0,.05-20.61l-83.644-85.13a14.087,14.087,0,0,0-10.077-4.24M680.319,833.166a14.283,14.283,0,0,0-9.478,3.586L543.786,963.846A14.328,14.328,0,0,0,547.1,986.61l67.706,67.77-158.04,158.2a14.377,14.377,0,0,0,0,20.25L625.7,1401.94a14.355,14.355,0,0,0,20.232,0l72.257-72.18,74.453,74.53a14.344,14.344,0,1,0,20.232-20.26l-84.559-84.65a14.305,14.305,0,0,0-20.231,0l-72.156,72.23-148.7-148.86,157.807-157.97,0.1-.12,0.121-.11a14.346,14.346,0,0,0,0-20.25L574.68,973.578,691.073,857.006a14.349,14.349,0,0,0-10.754-23.84M1168.12,1435l-19.61-21.11-21.3,21.11h-41.23l52.22-51.78a14.68,14.68,0,0,1,20.62,0l50.32,51.78h-41.02Zm-196.955-27.34a14.531,14.531,0,0,1,0-20.41,14.319,14.319,0,0,1,20.342-.04L1039.02,1435H998.347ZM1332.83,1435l9.69-10.05h0.02a14.685,14.685,0,0,1,10.55-4.52,14.386,14.386,0,0,1,5.69,1.17,15.453,15.453,0,0,1,9.19,13.4h-35.14Zm25.35-858.967a14.97,14.97,0,0,0-10.59,4.37l-33.63,33.563L1280.41,580.4a15,15,0,0,0-21.17,21.182l33.55,33.605-33.55,33.563a14.974,14.974,0,0,0,21.17,21.182l33.55-33.51,33.55,33.552a15,15,0,0,0,21.17-21.181l-33.54-33.563,33.54-33.563a14.959,14.959,0,0,0-10.5-25.637M726.605,1407.69L699.268,1435H658.313l47.789-47.74,0.041,0.04A14.454,14.454,0,0,1,726.605,1407.69ZM570.514,1435l-17.606-17.16L535.263,1435H493.739l48.719-47.38a14.862,14.862,0,0,1,10.382-4.19,15.151,15.151,0,0,1,4.688.75,13.8,13.8,0,0,1,2.144.89,14.49,14.49,0,0,1,3.635,2.55L612.026,1435H570.514Zm-313.237-15.01a14.8,14.8,0,0,0-10.417,4.26l-10.866,10.76h35.993a14.548,14.548,0,0,0-4.3-10.76H267.7a14.8,14.8,0,0,0-10.418-4.26M314.043,1435l-59.407-58.38L195.172,1435H154.238l2.971-2.92c0.133-.13.275-0.24,0.408-0.36l86.593-85.09,0.357-.35a14.644,14.644,0,0,1,20.271.17l87.032,85.53,3.073,3.02h-40.9ZM1435,0V24.634L1283.13,176.507a14.382,14.382,0,0,1-20.28-20.341L1418.98,0H1435ZM177.135,1281.49L24.1,1435H0v-16.54l156.85-157.35v0.09A14.374,14.374,0,1,1,177.135,1281.49ZM1435,1435h-16.01l16.01-16.01V1435Z"/>
  <path id="Shape_1_copy_10" data-name="Shape 1 copy 10" class="cls-2" d="M216.8,452.609a14.44,14.44,0,0,0-10.2,4.2l-42.959,42.711a14.365,14.365,0,0,0,0,20.38,15.043,15.043,0,0,0,1.878,1.565l31.071,30.941-64.888,64.636L98.908,584.383a14.518,14.518,0,0,0-20.408,0l-0.092.1-0.245.223-43.03,42.813a14.352,14.352,0,0,0,0,20.359l42.98,42.834a14.431,14.431,0,0,0,20.408-20.33L65.765,637.757l22.867-22.779,32.755,32.628a14.55,14.55,0,0,0,20.5,0l84.336-84.01a10.463,10.463,0,0,0,1.02-.945,14.354,14.354,0,0,0,0-20.329L194.407,509.6,227,477.136a14.363,14.363,0,0,0-10.2-24.527M0.01,1328v39H0.017a14.4,14.4,0,0,0,10.576-4.73A16.786,16.786,0,0,0,15,1350.84a16.811,16.811,0,0,0-4.408-11.44L0.01,1328m129.306-195.01a14.885,14.885,0,0,0-10.362,4.13L0.01,1250.9V1292l139.668-134.84a13.832,13.832,0,0,0,0-20.04,14.884,14.884,0,0,0-10.362-4.13M0.01,479.016l0,40.442,29.992,31.653L0.013,580.764l0,41.221L58.769,562.1l0.01-.012a18.013,18.013,0,0,0,0-23.138L0.01,479.016M42.025,369a14.461,14.461,0,0,0-10.28,4.28,14.669,14.669,0,0,0-.624,20l31.87,32.04L41.675,446.731,9.816,414.691C7.208,412.066,3.77,411.105.01,411v35.342l31.4,31.424a14.405,14.405,0,0,0,10.207,4.249h0.071a14.451,14.451,0,0,0,10.257-4.279l41.84-42.043a14.71,14.71,0,0,0,0-20.625L51.635,372.649A14.444,14.444,0,0,0,42.025,369M42.55,1129.99a14.464,14.464,0,0,0-10.216,4.21L0.01,1167.35V1208l52.755-53.49a14.365,14.365,0,0,0-10.216-24.52M0.01,1003v36.38l73.724,77.26a13.783,13.783,0,0,0,20.118,0,15.406,15.406,0,0,0,0-21.04L9.688,1007.34A13.833,13.833,0,0,0,.01,1003m0-87.988v33.98l8.314-9.529a15.847,15.847,0,0,0,0-20.243,11.786,11.786,0,0,0-8.314-4.208m0-252.023v35.993L21.864,720.52,0.01,741.05v41.069L32.15,812.793a14.706,14.706,0,0,0,20.571,0,14.188,14.188,0,0,0,0-20.233L20.838,761.078,52.72,729.657a14.19,14.19,0,0,0,0-20.284c-0.1-.1-0.226-0.192-0.339-0.293s-0.195-.233-0.3-0.334L9.905,667.178a14.616,14.616,0,0,0-9.9-4.189m0,413.011v34a11.714,11.714,0,0,0,8.37-4.17,15.845,15.845,0,0,0,0-20.17L0.008,1076m0-252.008V864.1l31.753,31.753a14.19,14.19,0,1,0,20.071-20.064L0.01,823.992M94.625,91.573L52.062,134.558a14.576,14.576,0,0,1-20.717,0L0,102.826V66.889a14.545,14.545,0,0,1,9.54,3.7l32.174,32.566,32.194-32.5a14.571,14.571,0,0,1,20.086.636A14.932,14.932,0,0,1,94.625,91.573ZM56.5,223.639L24.6,255.172,56.5,286.705a14.259,14.259,0,0,1,0,20.3,12.64,12.64,0,0,1-1.622,1.359L0,363.6V322.536l25.558-25.784L0,271.482V238.8l25.63-25.342L0,187.267V145.875L56.444,203.33A14.258,14.258,0,0,1,56.5,223.639ZM340.577,576.033a14.278,14.278,0,0,0-10.508,4.619L76.835,835.144a14.424,14.424,0,0,0,0,20.3l32.55,32.715L35.094,962.908a14.423,14.423,0,0,0,0,20.341,14.25,14.25,0,0,0,20.2,0l84.058-84.482a14.1,14.1,0,0,0,2.737-3.877,14.437,14.437,0,0,0-2.465-17.012l-32.429-32.584L350.319,600.953a14.41,14.41,0,0,0-6.23-24.48,14.243,14.243,0,0,0-3.512-.44m128.537,46.284a14.2,14.2,0,0,0-10.136,4.25l-32.131,32.575L395.284,627.2a14.242,14.242,0,0,0-20.323,0l-41.608,42.237a14.733,14.733,0,0,0,0,20.558,14.24,14.24,0,0,0,20.323,0l31.472-31.886,31.492,31.938a14.242,14.242,0,0,0,20.323,0l0.294-.339c0.111-.1.233-0.195,0.334-0.309l41.648-42.236a14.7,14.7,0,0,0,.011-20.6,14.2,14.2,0,0,0-10.136-4.25m416.73-344.559a14.152,14.152,0,0,0-10.026,4.146L802.7,355.016l-31.15-31.152a19.245,19.245,0,0,0-11.286-4.887,14.176,14.176,0,0,0-10.04,4.155L667.548,405.78a15.925,15.925,0,0,0,.843,21.267L699.542,458.2l-73.1,73.053a14.2,14.2,0,0,0,20.1,20.053l82.694-82.7,0.19-.221,0.221-.19a14.226,14.226,0,0,0,0-20.1l-32.163-32.155,62.984-62.986,32.153,32.165a14.227,14.227,0,0,0,20.1,0l0.221-.241,0.24-.22,82.684-82.7a14.173,14.173,0,0,0-10.026-24.2M764.734,493.75a15.061,15.061,0,0,0-9.841,3.626L667.81,582.209a14.013,14.013,0,0,0-2.3,2.886,14.178,14.178,0,0,0-1.449,3.235,14.59,14.59,0,0,0-.546,2.744c0,0.46-.063.921-0.063,1.391a10.3,10.3,0,0,0,.063,1.393,14.3,14.3,0,0,0,4.3,8.865l78.081,76.1-33.337,32.533a14.238,14.238,0,0,0,.639,19.85,15.166,15.166,0,0,0,20.367.624l43.82-42.7a14.456,14.456,0,0,0,0-20.679l-78.007-76.018L775.9,517.85A14.24,14.24,0,0,0,775.26,498a15.047,15.047,0,0,0-10.526-4.249M1435,1207.7l-27.28,27.11a14.571,14.571,0,0,1-20.45,0,14.329,14.329,0,0,1-.04-20.39l47.77-47.47v40.75Zm-47.82,92.01,47.82-48.62v41.29l-17.36,17.65,17.36,17.64v39.4a14.407,14.407,0,0,1-5.13-3.34l-40.4-41.08c-0.39-.39-0.73-0.8-1.07-1.21a15.371,15.371,0,0,1-1.19-1.09A14.779,14.779,0,0,1,1387.18,1299.71Zm19.74-996.842-75.7,74.331L1435,479.1V519.7l-134.73-132.35a14.146,14.146,0,0,1,0-20.251l86.03-84.477a14.792,14.792,0,0,1,14.44-4.444,14.5,14.5,0,0,1,10.71,10.51A14.207,14.207,0,0,1,1406.92,302.868Zm-19.3,325.817L1435,581.059v40.552l-27.23,27.375a14.215,14.215,0,0,1-20.15,0A14.39,14.39,0,0,1,1387.62,628.685ZM1434.5,411a14.472,14.472,0,0,0-13.28,8.84,14.829,14.829,0,0,0,3.07,16.244L1435.01,447V411.008q-0.255-.009-0.51-0.009m0.12,251.99a14.6,14.6,0,0,0-13.41,8.919,14.858,14.858,0,0,0,3.08,16.248l10.72,10.832V663q-0.195-.006-0.39-0.006M1434.61,1003a14.579,14.579,0,0,0-13.4,8.91,14.841,14.841,0,0,0,3.09,16.25l10.71,10.84v-36h-0.4m-0.22-87.989a14.187,14.187,0,0,0-10.04,4.163l-83.19,83.246a14.208,14.208,0,0,0-4.17,10.05,8.986,8.986,0,0,0,.07,1.37c0.07,0.45.11,0.9,0.19,1.35a14.153,14.153,0,0,0,3.91,7.36l83.26,83.29a14.194,14.194,0,0,0,10.03,4.16c0.17,0,.35-0.01.52-0.01v-33.86l-63.58-63.66,63.62-63.65v-33.8c-0.21-.009-0.41-0.014-0.62-0.014M1435,741l-10.53,10.12a14.287,14.287,0,0,0,0,20.746L1435,781.99V741m0-553.737-49.26-50.341a14.263,14.263,0,0,1,.62-19.681,14.674,14.674,0,0,1,19.91-.618L1435,145.875v41.392Zm-47.33,183.019,47.33-47.75V363.6l-26.8,26.983a14.661,14.661,0,0,1-14.38,4.454,14.462,14.462,0,0,1-10.66-10.535A14.29,14.29,0,0,1,1387.67,370.286Zm41.07-125.294L1435,238.8v32.681l-6.26-6.192A14.255,14.255,0,0,1,1428.74,244.992ZM1435,102.826L1423.82,91.51a14.936,14.936,0,0,1,.63-20.287,14.584,14.584,0,0,1,10.38-4.342c0.06,0,.11.007,0.17,0.007v35.937ZM587.526,72.052a14.211,14.211,0,0,0-10.659,4.813l-130.385,130.4a14.171,14.171,0,0,0,19.969,20.112L596.926,96.927a14.215,14.215,0,0,0-9.4-24.875M676.04,237.759a14.265,14.265,0,0,0-10.7,4.835l-0.08-.041L498.45,409.463a14.272,14.272,0,0,0,20.138,20.15l166.887-166.87a14.276,14.276,0,0,0-9.435-24.984m465.12-124.566a14.863,14.863,0,0,0-9.83,26.016l87.93,87.936a14.836,14.836,0,0,0,20.98-20.982l-87.93-87.936a14.869,14.869,0,0,0-11.15-5.034M869-.008H833a15.58,15.58,0,0,0,4.4,10.5,14.855,14.855,0,0,0,21.35,0L869-.008m82.985,0h-36l10.248,10.5a14.855,14.855,0,0,0,21.35,0,15.581,15.581,0,0,0,4.4-10.5M1228.52,1126.3a14.79,14.79,0,0,0-10.47,25.26l43.02,43.03a14.84,14.84,0,0,0,20.94-20.95l-43.02-43.02a14.8,14.8,0,0,0-10.47-4.32M806.6,1038.87a14.758,14.758,0,0,0-3.479.42,14.551,14.551,0,0,0-6.167,25.06l42.2,42.26a14.535,14.535,0,0,0,10.29,4.26h0a14.554,14.554,0,0,0,10.292-24.85l-42.2-42.22a14.615,14.615,0,0,0-10.939-4.93m-215.64,133.71a14.37,14.37,0,0,0-10.148,4.17l-41.4,41.11-0.335.34a14.2,14.2,0,0,0,2.912,22.4l82.542,82.09a14.432,14.432,0,0,0,20.295,0l0.314-.33c0.1-.11.224-0.2,0.335-0.31l86.377-85.9a14.242,14.242,0,0,0-.617-19.57,14.427,14.427,0,0,0-19.678-.61l-76.879,76.39-64.752-64.41,31.184-31.01a14.265,14.265,0,0,0-10.148-24.36M383.936,1296.01a14.732,14.732,0,0,0-10.446,4.31l-44.572,44.54a14.758,14.758,0,0,0,6.337,25.3,14.374,14.374,0,0,0,3.552.44,14.8,14.8,0,0,0,11-4.91l34.133-34.11,22.786,22.79-34.132,34.1a14.757,14.757,0,1,0,20.838,20.82l44.572-44.54a14.743,14.743,0,0,0,.042-20.79c-0.156-.16-0.334-0.29-0.5-0.45s-0.292-.34-0.448-0.5l-41.551-41.52a7.821,7.821,0,0,0-.615-0.55c-0.208-.18-0.354-0.42-0.553-0.62a14.727,14.727,0,0,0-10.444-4.31m552.927,40.98a15.534,15.534,0,0,0-10.649,4.14l-33.752,31.71-33.751-31.71a15.77,15.77,0,0,0-21.3,0,13.578,13.578,0,0,0,0,20.02l33.751,31.72-33.751,31.7a13.7,13.7,0,0,0-4.4,10.44H869l23.5-22.09,23.506,22.09H952a13.7,13.7,0,0,0-4.4-10.44l-33.751-31.7,33.751-31.72a13.579,13.579,0,0,0-.085-20.02,15.539,15.539,0,0,0-10.651-4.14M1392.88,705.006a14.153,14.153,0,0,0-9.37,3.524l-42.37,42.132a13.942,13.942,0,0,0-4.08,8.627,13.12,13.12,0,0,0,0,2.707,14,14,0,0,0,4.08,8.617l93.87,93.378V824.008l-63.79-63.465,32.29-32.111a14.1,14.1,0,0,0-10.63-23.426"/>
  <path id="Shape_1_copy_11" data-name="Shape 1 copy 11" class="cls-3" d="M245.969,941.964a14.171,14.171,0,0,0,20.413,0l42.991-44.2,0.072-.084,0.082-.084a15.167,15.167,0,0,0,0-20.994l-42.92-44.224a14.2,14.2,0,0,0-20.464,0,15.2,15.2,0,0,0,0,21l32.763,33.684-32.937,33.916A15.163,15.163,0,0,0,245.969,941.964ZM331.253,1201.2a15.877,15.877,0,0,0,21.515.13l168.339-169.42a14.516,14.516,0,0,0-.714-19.66,14.291,14.291,0,0,0-19.535-.72L342.117,1171.25l-33.208-33.39a14.293,14.293,0,0,0-20.3,0l-42.674,42.91a14.5,14.5,0,0,0,0,20.38l72.9,73.37-33.188,33.39a14.512,14.512,0,0,0,.551,19.87,14.285,14.285,0,0,0,19.748.51l42.634-42.92a16.385,16.385,0,0,0-.05-21.86l-72.147-72.61,22.345-22.5ZM479.086,708.777a15.505,15.505,0,0,0-21.175,0l-33.6,32.122-33.541-32.122a15.5,15.5,0,0,0-21.03.189,13.934,13.934,0,0,0-.2,20.128l33.552,32.072-33.552,32.1a13.946,13.946,0,0,0,0,20.266,15.5,15.5,0,0,0,21.228,0l33.541-32.113,33.551,32.113a15.508,15.508,0,0,0,20.428-.714,13.924,13.924,0,0,0,.747-19.552l-33.5-32.1,33.551-32.113A13.944,13.944,0,0,0,479.086,708.777ZM76.351,263.251a14.86,14.86,0,0,0,20.75,0l42.632-42.035a14.5,14.5,0,0,0,0-20.624L97.1,158.556a14.86,14.86,0,0,0-20.75,0,14.343,14.343,0,0,0,0,20.46l32.3,31.857-32.3,31.867A14.353,14.353,0,0,0,76.351,263.251ZM1157.83,199.727a15.316,15.316,0,0,0-21.18,0l-87.1,84.583a13.441,13.441,0,0,0-1.17,1.028,14.29,14.29,0,0,0,0,20.562l0.05,0.051L1082,338.635l-33.56,32.591a14.273,14.273,0,0,0,0,20.562,15.314,15.314,0,0,0,21.18,0l44.25-42.872a14.29,14.29,0,0,0,0-20.562l-0.05-.051-33.51-32.53,77.61-75.351a14.273,14.273,0,0,0,0-20.562ZM1046.64,1323.39a13.894,13.894,0,0,0,19.61-19.61l-40.29-40.3a13.9,13.9,0,0,0-19.62,19.61ZM773.963,1088.63a13.895,13.895,0,0,0-19.612,19.61l40.294,40.3a13.9,13.9,0,0,0,19.613-19.62Zm192.06-357.406a14.794,14.794,0,0,0,20.717,0l42.56-42.179,0.07-.082,0.09-.072a14.479,14.479,0,0,0,0-20.53L986.9,626.183a14.771,14.771,0,0,0-20.355.407,14.451,14.451,0,0,0-.36,20.174l32.171,31.893-32.328,31.986A14.475,14.475,0,0,0,966.023,731.224ZM1302.8,1150.29a14.3,14.3,0,0,0,20.26-20.15l-82.04-81.87-0.09-.1a14.353,14.353,0,0,0-20.2,0l-168,167.54a14.3,14.3,0,0,0,20.2,20.16L1230.8,1078.5Z"/>
</svg>
